<svg xmlns="http://www.w3.org/2000/svg" xmlns:xlink="http://www.w3.org/1999/xlink" width="1080" zoomAndPan="magnify" viewBox="0 0 810 809.999993" height="1080" preserveAspectRatio="xMidYMid meet" version="1.0"><defs><clipPath id="6ef0cb2fe9"><path d="M 291 539 L 339 539 L 339 561.421875 L 291 561.421875 Z M 291 539 " clip-rule="nonzero"/></clipPath><clipPath id="1d09f2ff98"><path d="M 471 539 L 519 539 L 519 561.421875 L 471 561.421875 Z M 471 539 " clip-rule="nonzero"/></clipPath><clipPath id="059bd15e39"><path d="M 243 248.671875 L 277 248.671875 L 277 339 L 243 339 Z M 243 248.671875 " clip-rule="nonzero"/></clipPath><clipPath id="c8dec8a9f4"><path d="M 533 248.671875 L 567 248.671875 L 567 339 L 533 339 Z M 533 248.671875 " clip-rule="nonzero"/></clipPath></defs><g clip-path="url(#6ef0cb2fe9)"><path fill="#005dbb" d="M 304.503906 544.664062 L 291.105469 561.421875 L 338.003906 561.421875 L 338.003906 539.082031 Z M 304.503906 544.664062 " fill-opacity="1" fill-rule="nonzero"/></g><path fill="#fdc9a6" d="M 343.304688 510.320312 L 326.277344 464.800781 L 317.972656 467.59375 C 309.320312 470.457031 301.992188 476.390625 297.316406 484.210938 C 291.3125 494.191406 290.195312 506.339844 294.3125 517.300781 L 304.503906 544.664062 L 338.003906 539.082031 L 332.417969 511.15625 Z M 343.304688 510.320312 " fill-opacity="1" fill-rule="nonzero"/><path fill="#fdc9a6" d="M 515.753906 517.230469 C 519.875 506.339844 518.757812 494.121094 512.753906 484.140625 C 508.078125 476.320312 500.75 470.457031 492.097656 467.523438 L 483.792969 464.734375 L 466.761719 510.25 L 477.582031 511.15625 L 471.996094 539.082031 L 505.496094 544.664062 Z M 515.753906 517.230469 " fill-opacity="1" fill-rule="nonzero"/><g clip-path="url(#1d09f2ff98)"><path fill="#005dbb" d="M 471.996094 561.421875 L 518.894531 561.421875 L 505.496094 544.664062 L 471.996094 539.082031 Z M 471.996094 561.421875 " fill-opacity="1" fill-rule="nonzero"/></g><g clip-path="url(#059bd15e39)"><path fill="#dc651e" d="M 243.089844 248.671875 L 276.585938 248.671875 L 276.585938 338.027344 L 243.089844 338.027344 Z M 243.089844 248.671875 " fill-opacity="1" fill-rule="nonzero"/></g><g clip-path="url(#c8dec8a9f4)"><path fill="#dc651e" d="M 533.414062 248.671875 L 566.910156 248.671875 L 566.910156 338.027344 L 533.414062 338.027344 Z M 533.414062 248.671875 " fill-opacity="1" fill-rule="nonzero"/></g><path fill="#fd7422" d="M 276.585938 282.179688 L 533.414062 282.179688 L 533.414062 304.519531 L 276.585938 304.519531 Z M 276.585938 282.179688 " fill-opacity="1" fill-rule="nonzero"/><path fill="#fdc9a6" d="M 332.417969 338.027344 L 321.253906 282.179688 L 298.921875 282.179688 L 298.921875 349.753906 C 298.921875 353.035156 300.035156 356.179688 302.128906 358.691406 L 326.835938 388.289062 L 359.707031 355.410156 Z M 332.417969 338.027344 " fill-opacity="1" fill-rule="nonzero"/><path fill="#fdc9a6" d="M 507.871094 358.691406 C 509.964844 356.179688 511.078125 353.035156 511.078125 349.753906 L 511.078125 282.179688 L 488.746094 282.179688 L 477.582031 338.027344 L 450.292969 355.410156 L 483.164062 388.289062 Z M 507.871094 358.691406 " fill-opacity="1" fill-rule="nonzero"/><path fill="#eae9e4" d="M 388.25 373.5625 L 359.707031 355.410156 L 326.835938 388.289062 L 354.75 421.800781 L 388.25 405.046875 Z M 388.25 373.5625 " fill-opacity="1" fill-rule="nonzero"/><path fill="#005dbb" d="M 455.25 455.308594 L 455.25 421.800781 L 421.75 405.046875 L 421.75 373.5625 L 416.167969 377.121094 L 393.832031 377.121094 L 388.25 373.5625 L 388.25 405.046875 L 354.75 421.800781 L 354.75 455.308594 L 326.207031 464.800781 L 343.304688 510.320312 L 405 505.570312 L 466.695312 510.320312 L 483.792969 464.800781 Z M 455.25 455.308594 " fill-opacity="1" fill-rule="nonzero"/><path fill="#eae9e4" d="M 455.25 421.800781 L 483.164062 388.289062 L 450.292969 355.410156 L 421.75 373.5625 L 421.75 405.046875 Z M 455.25 421.800781 " fill-opacity="1" fill-rule="nonzero"/><path fill="#fdc9a6" d="M 393.832031 349.195312 L 388.25 360.367188 C 388.25 369.652344 395.71875 377.121094 405 377.121094 C 414.28125 377.121094 421.75 369.652344 421.75 360.367188 L 416.167969 349.195312 Z M 393.832031 349.195312 " fill-opacity="1" fill-rule="nonzero"/><path fill="#4a4b46" d="M 405 332.441406 C 395.71875 332.441406 388.25 339.910156 388.25 349.195312 L 388.25 360.367188 L 393.832031 349.195312 L 416.167969 349.195312 L 421.75 360.367188 L 421.75 349.195312 C 421.75 339.910156 414.28125 332.441406 405 332.441406 Z M 405 332.441406 " fill-opacity="1" fill-rule="nonzero"/></svg>