<svg xmlns="http://www.w3.org/2000/svg" xmlns:xlink="http://www.w3.org/1999/xlink" width="1080" zoomAndPan="magnify" viewBox="0 0 810 809.999993" height="1080" preserveAspectRatio="xMidYMid meet" version="1.0"><defs><clipPath id="b8caf4c035"><path d="M 259 362.371094 L 550.550781 362.371094 L 550.550781 550.394531 L 259 550.394531 Z M 259 362.371094 " clip-rule="nonzero"/></clipPath><clipPath id="9c37192ce5"><path d="M 328 394.851562 L 482 394.851562 L 482 550.394531 L 328 550.394531 Z M 328 394.851562 " clip-rule="nonzero"/></clipPath><clipPath id="580bc8e304"><path d="M 434.601562 453 L 478.523438 453 L 478.523438 550.394531 L 434.601562 550.394531 Z M 434.601562 453 " clip-rule="nonzero"/></clipPath><clipPath id="f3c21d5d04"><path d="M 543 332 L 566.921875 332 L 566.921875 382 L 543 382 Z M 543 332 " clip-rule="nonzero"/></clipPath><clipPath id="847f1c7a5a"><path d="M 331 453 L 374.871094 453 L 374.871094 550.394531 L 331 550.394531 Z M 331 453 " clip-rule="nonzero"/></clipPath></defs><path fill="#e2ad76" d="M 380.351562 438.242188 L 429.125 438.242188 L 429.125 385.460938 L 380.351562 385.460938 L 380.351562 438.242188 " fill-opacity="1" fill-rule="evenodd"/><path fill="#e2ad76" d="M 358.65625 363.890625 C 362.117188 363.890625 364.945312 357.378906 364.945312 349.394531 C 364.945312 341.410156 362.117188 334.898438 358.65625 334.898438 C 355.191406 334.898438 352.363281 341.410156 352.363281 349.394531 C 352.363281 357.378906 355.191406 363.890625 358.65625 363.890625 " fill-opacity="1" fill-rule="evenodd"/><path fill="#e2ad76" d="M 449.976562 363.890625 C 453.441406 363.890625 456.269531 357.378906 456.269531 349.394531 C 456.269531 341.410156 453.441406 334.898438 449.976562 334.898438 C 446.515625 334.898438 443.6875 341.410156 443.6875 349.394531 C 443.6875 357.378906 446.515625 363.890625 449.976562 363.890625 " fill-opacity="1" fill-rule="evenodd"/><path fill="#fbc083" d="M 405.132812 302.683594 C 431.125 302.683594 452.195312 323.742188 452.195312 349.71875 C 452.195312 375.695312 431.125 396.753906 405.132812 396.753906 C 379.136719 396.753906 358.066406 375.695312 358.066406 349.71875 C 358.066406 323.742188 379.136719 302.683594 405.132812 302.683594 " fill-opacity="1" fill-rule="evenodd"/><path fill="#e2ad76" d="M 387.609375 368.398438 C 394.511719 383.078125 416.207031 383.125 423.128906 368.398438 C 413.195312 378.175781 397.542969 378.175781 387.609375 368.398438 " fill-opacity="1" fill-rule="evenodd"/><path fill="#4b4439" d="M 430.902344 285.429688 C 430.902344 285.429688 443.460938 282.988281 450.195312 294.613281 C 456.9375 306.246094 458.46875 320.933594 456.015625 329.8125 C 453.1875 340.0625 451.210938 342.746094 444.351562 350.410156 C 445.277344 337.90625 445.058594 323.152344 439.78125 317.875 C 429.984375 308.082031 430.296875 315.261719 422.785156 321.054688 C 411.03125 330.121094 385.945312 333.003906 383.742188 317.570312 C 383.742188 317.570312 370.878906 334.40625 365.363281 337.769531 C 362.261719 339.664062 361.972656 344.660156 362.695312 350.410156 C 347.148438 343.289062 355.695312 300.828125 362.914062 291.457031 C 371.796875 279.925781 409.160156 259.417969 430.902344 285.429688 " fill-opacity="1" fill-rule="evenodd"/><g clip-path="url(#b8caf4c035)"><path fill="#fbc083" d="M 404.738281 430.59375 L 404.945312 430.796875 L 428.453125 407.308594 L 431.121094 420.03125 C 431.753906 420.269531 435.070312 407.757812 435.730469 407.914062 C 440.894531 401.738281 457.101562 386.28125 480.433594 401.425781 C 480.695312 401.566406 480.949219 401.738281 481.1875 401.9375 L 478.261719 405.417969 L 481.175781 401.957031 C 481.738281 402.433594 484.023438 401.8125 486.722656 401.082031 C 491.886719 399.683594 497.933594 398.042969 504.523438 400.808594 L 505.527344 385.875 C 505.347656 384.96875 507.285156 364.703125 506.585938 362.503906 L 537.148438 362.503906 C 537.269531 362.683594 540.789062 389.648438 543.980469 398.691406 C 546.195312 404.96875 549.839844 416.953125 550.226562 428.800781 C 550.34375 429.792969 550.132812 430.820312 549.589844 431.710938 C 549.316406 432.152344 548.996094 432.472656 548.648438 432.847656 C 539.585938 442.703125 526.121094 450.546875 511.921875 454.109375 C 500.652344 456.933594 488.847656 457.089844 478.273438 453.480469 C 476.625 460.195312 472.371094 471.207031 461.492188 480.054688 C 459.785156 482.082031 457.144531 491.773438 454.570312 503.148438 C 450.730469 520.109375 447.414062 540.074219 447.230469 545.554688 C 447.234375 545.652344 447.238281 545.75 447.238281 545.847656 C 447.238281 548.359375 445.199219 550.394531 442.691406 550.394531 L 366.789062 550.394531 C 364.277344 550.394531 362.242188 548.359375 362.242188 545.847656 C 362.242188 545.75 362.246094 545.652344 362.25 545.554688 C 362.066406 540.074219 358.746094 520.109375 354.910156 503.148438 C 352.332031 491.773438 349.691406 482.082031 347.988281 480.054688 C 337.105469 471.207031 332.851562 460.195312 331.207031 453.480469 C 320.625 457.089844 308.824219 456.933594 297.554688 454.109375 C 283.355469 450.546875 269.894531 442.703125 260.832031 432.847656 C 260.484375 432.472656 260.160156 432.152344 259.890625 431.710938 C 259.34375 430.820312 259.136719 429.792969 259.253906 428.800781 C 259.640625 416.953125 263.28125 404.96875 265.496094 398.691406 C 268.6875 389.648438 272.207031 362.683594 272.332031 362.503906 L 302.894531 362.503906 C 302.191406 364.703125 304.132812 384.96875 303.949219 385.875 L 304.957031 400.808594 C 311.546875 398.042969 317.59375 399.683594 322.757812 401.082031 C 325.453125 401.8125 327.738281 402.433594 328.300781 401.957031 L 331.21875 405.417969 L 328.292969 401.9375 C 328.527344 401.738281 328.78125 401.566406 329.046875 401.425781 C 352.375 386.28125 368.582031 401.738281 373.746094 407.914062 C 374.40625 407.757812 374.464844 413.316406 375.101562 413.078125 L 381.027344 407.308594 L 404.53125 430.796875 L 404.738281 430.59375 " fill-opacity="1" fill-rule="nonzero"/></g><g clip-path="url(#9c37192ce5)"><path fill="#026398" d="M 328.71875 401.628906 C 352.226562 386.132812 368.558594 401.707031 373.746094 407.914062 C 376.859375 407.171875 378.214844 407.308594 381.441406 407.308594 L 404.945312 430.796875 L 428.453125 407.308594 C 431.578125 407.308594 432.726562 407.199219 435.730469 407.914062 C 440.894531 401.738281 457.101562 386.28125 480.433594 401.425781 C 480.695312 401.566406 480.949219 401.738281 481.1875 401.9375 L 478.261719 405.417969 L 481.175781 401.957031 C 481.285156 402.050781 481.464844 402.101562 481.703125 402.117188 L 478.273438 453.480469 C 476.625 460.195312 472.371094 471.207031 461.492188 480.054688 C 459.785156 482.082031 457.144531 491.773438 454.570312 503.148438 C 450.730469 520.109375 447.414062 540.074219 447.230469 545.554688 C 447.234375 545.652344 447.238281 545.75 447.238281 545.847656 C 447.238281 548.359375 445.199219 550.394531 442.691406 550.394531 L 366.789062 550.394531 C 364.300781 550.394531 362.265625 548.390625 362.242188 545.894531 L 362.257812 545.886719 C 362.207031 540.921875 358.828125 520.464844 354.910156 503.148438 C 352.332031 491.773438 349.691406 482.082031 347.988281 480.054688 C 337.105469 471.207031 332.851562 460.195312 331.207031 453.480469 L 328.1875 402.027344 C 328.351562 401.882812 328.527344 401.746094 328.714844 401.625 L 328.71875 401.628906 " fill-opacity="1" fill-rule="nonzero"/></g><g clip-path="url(#580bc8e304)"><path fill="#025989" d="M 478.273438 453.480469 C 476.625 460.195312 472.371094 471.207031 461.492188 480.054688 C 459.785156 482.082031 457.144531 491.773438 454.570312 503.148438 C 450.730469 520.109375 447.414062 540.074219 447.230469 545.554688 C 447.234375 545.652344 447.238281 545.75 447.238281 545.847656 C 447.238281 548.359375 445.199219 550.394531 442.691406 550.394531 L 434.644531 550.394531 L 443.929688 498.601562 C 453.105469 456.289062 478.273438 453.480469 478.273438 453.480469 " fill-opacity="1" fill-rule="nonzero"/></g><path fill="#2d2d2d" d="M 500.835938 349.382812 L 545.789062 349.382812 C 548.78125 349.382812 548.222656 353.308594 548.222656 357.597656 C 548.222656 361.886719 548.78125 364.914062 545.789062 364.914062 L 500.835938 364.914062 C 497.84375 364.914062 498.070312 361.453125 498.070312 357.167969 C 498.070312 352.875 497.84375 349.382812 500.835938 349.382812 " fill-opacity="1" fill-rule="evenodd"/><path fill="#4d4d4d" d="M 482.890625 332.394531 L 499.242188 332.394531 C 501.234375 332.394531 502.851562 334.011719 502.851562 336.003906 L 502.851562 378.289062 C 502.851562 380.28125 501.234375 381.898438 499.242188 381.898438 L 482.890625 381.898438 C 480.890625 381.898438 479.277344 380.28125 479.277344 378.289062 L 479.277344 336.003906 C 479.277344 334.011719 480.890625 332.394531 482.890625 332.394531 " fill-opacity="1" fill-rule="nonzero"/><g clip-path="url(#f3c21d5d04)"><path fill="#4d4d4d" d="M 546.957031 332.394531 L 563.308594 332.394531 C 565.308594 332.394531 566.921875 334.011719 566.921875 336.003906 L 566.921875 378.289062 C 566.921875 380.28125 565.308594 381.898438 563.308594 381.898438 L 546.957031 381.898438 C 544.964844 381.898438 543.347656 380.28125 543.347656 378.289062 L 543.347656 336.003906 C 543.347656 334.011719 544.964844 332.394531 546.957031 332.394531 " fill-opacity="1" fill-rule="nonzero"/></g><path fill="#fbc083" d="M 513.117188 347.191406 L 513.539062 347.191406 C 515.175781 347.191406 516.511719 348.523438 516.511719 350.15625 L 516.511719 353.542969 C 516.511719 355.175781 515.175781 356.507812 513.539062 356.507812 L 513.117188 356.507812 C 511.484375 356.507812 510.148438 355.175781 510.148438 353.542969 L 510.148438 350.15625 C 510.148438 348.523438 511.484375 347.191406 513.117188 347.191406 " fill-opacity="1" fill-rule="evenodd"/><path fill="#fbc083" d="M 519.632812 347.191406 L 520.054688 347.191406 C 521.691406 347.191406 523.023438 348.523438 523.023438 350.15625 L 523.023438 353.542969 C 523.023438 355.175781 521.691406 356.507812 520.054688 356.507812 L 519.632812 356.507812 C 517.996094 356.507812 516.664062 355.175781 516.664062 353.542969 L 516.664062 350.15625 C 516.664062 348.523438 517.996094 347.191406 519.632812 347.191406 " fill-opacity="1" fill-rule="evenodd"/><path fill="#fbc083" d="M 526.144531 347.191406 L 526.570312 347.191406 C 528.203125 347.191406 529.535156 348.523438 529.535156 350.15625 L 529.535156 353.542969 C 529.535156 355.175781 528.203125 356.507812 526.570312 356.507812 L 526.144531 356.507812 C 524.511719 356.507812 523.175781 355.175781 523.175781 353.542969 L 523.175781 350.15625 C 523.175781 348.523438 524.511719 347.191406 526.144531 347.191406 " fill-opacity="1" fill-rule="evenodd"/><path fill="#fbc083" d="M 532.660156 347.191406 L 533.082031 347.191406 C 534.714844 347.191406 536.054688 348.523438 536.054688 350.15625 L 536.054688 353.542969 C 536.054688 355.175781 534.714844 356.507812 533.082031 356.507812 L 532.660156 356.507812 C 531.027344 356.507812 529.6875 355.175781 529.6875 353.542969 L 529.6875 350.15625 C 529.6875 348.523438 531.027344 347.191406 532.660156 347.191406 " fill-opacity="1" fill-rule="evenodd"/><path fill="#2d2d2d" d="M 264.671875 349.382812 L 309.625 349.382812 C 312.617188 349.382812 312.058594 353.308594 312.058594 357.597656 C 312.058594 361.886719 312.617188 364.914062 309.625 364.914062 L 264.671875 364.914062 C 261.683594 364.914062 261.902344 361.453125 261.902344 357.167969 C 261.902344 352.875 261.679688 349.382812 264.671875 349.382812 " fill-opacity="1" fill-rule="evenodd"/><path fill="#4d4d4d" d="M 246.726562 332.394531 L 263.078125 332.394531 C 265.070312 332.394531 266.6875 334.011719 266.6875 336.003906 L 266.6875 378.289062 C 266.6875 380.28125 265.070312 381.898438 263.078125 381.898438 L 246.726562 381.898438 C 244.730469 381.898438 243.113281 380.28125 243.113281 378.289062 L 243.113281 336.003906 C 243.113281 334.011719 244.730469 332.394531 246.726562 332.394531 " fill-opacity="1" fill-rule="nonzero"/><path fill="#4d4d4d" d="M 310.792969 332.394531 L 327.144531 332.394531 C 329.144531 332.394531 330.757812 334.011719 330.757812 336.003906 L 330.757812 378.289062 C 330.757812 380.28125 329.144531 381.898438 327.144531 381.898438 L 310.792969 381.898438 C 308.800781 381.898438 307.183594 380.28125 307.183594 378.289062 L 307.183594 336.003906 C 307.183594 334.011719 308.800781 332.394531 310.792969 332.394531 " fill-opacity="1" fill-rule="nonzero"/><path fill="#fbc083" d="M 276.953125 347.191406 L 277.375 347.191406 C 279.007812 347.191406 280.347656 348.523438 280.347656 350.15625 L 280.347656 353.542969 C 280.347656 355.175781 279.007812 356.507812 277.375 356.507812 L 276.953125 356.507812 C 275.320312 356.507812 273.984375 355.175781 273.984375 353.542969 L 273.984375 350.15625 C 273.984375 348.523438 275.320312 347.191406 276.953125 347.191406 " fill-opacity="1" fill-rule="evenodd"/><path fill="#fbc083" d="M 283.464844 347.191406 L 283.890625 347.191406 C 285.527344 347.191406 286.859375 348.523438 286.859375 350.15625 L 286.859375 353.542969 C 286.859375 355.175781 285.527344 356.507812 283.890625 356.507812 L 283.464844 356.507812 C 281.832031 356.507812 280.496094 355.175781 280.496094 353.542969 L 280.496094 350.15625 C 280.496094 348.523438 281.832031 347.191406 283.464844 347.191406 " fill-opacity="1" fill-rule="evenodd"/><path fill="#fbc083" d="M 289.980469 347.191406 L 290.40625 347.191406 C 292.039062 347.191406 293.371094 348.523438 293.371094 350.15625 L 293.371094 353.542969 C 293.371094 355.175781 292.039062 356.507812 290.40625 356.507812 L 289.980469 356.507812 C 288.347656 356.507812 287.011719 355.175781 287.011719 353.542969 L 287.011719 350.15625 C 287.011719 348.523438 288.347656 347.191406 289.980469 347.191406 " fill-opacity="1" fill-rule="evenodd"/><path fill="#fbc083" d="M 296.496094 347.191406 L 296.917969 347.191406 C 298.550781 347.191406 299.886719 348.523438 299.886719 350.15625 L 299.886719 353.542969 C 299.886719 355.175781 298.550781 356.507812 296.917969 356.507812 L 296.496094 356.507812 C 294.859375 356.507812 293.523438 355.175781 293.523438 353.542969 L 293.523438 350.15625 C 293.523438 348.523438 294.859375 347.191406 296.496094 347.191406 " fill-opacity="1" fill-rule="evenodd"/><g clip-path="url(#847f1c7a5a)"><path fill="#025989" d="M 331.183594 453.480469 C 332.835938 460.195312 337.085938 471.207031 347.96875 480.054688 C 349.671875 482.082031 352.3125 491.773438 354.886719 503.148438 C 358.726562 520.109375 362.046875 540.074219 362.230469 545.554688 C 362.222656 545.652344 362.21875 545.75 362.21875 545.847656 C 362.21875 548.359375 364.253906 550.394531 366.765625 550.394531 L 374.8125 550.394531 L 365.53125 498.601562 C 356.351562 456.289062 331.183594 453.480469 331.183594 453.480469 " fill-opacity="1" fill-rule="nonzero"/></g><path fill="#ffffff" d="M 405.019531 450.523438 C 407.578125 450.523438 409.664062 448.441406 409.664062 445.886719 C 409.664062 443.328125 407.578125 441.242188 405.019531 441.242188 C 402.457031 441.242188 400.371094 443.328125 400.371094 445.886719 C 400.371094 448.441406 402.457031 450.523438 405.019531 450.523438 " fill-opacity="1" fill-rule="evenodd"/><path fill="#ffffff" d="M 405.019531 464.0625 C 407.578125 464.0625 409.664062 461.976562 409.664062 459.421875 C 409.664062 456.863281 407.578125 454.78125 405.019531 454.78125 C 402.457031 454.78125 400.371094 456.863281 400.371094 459.421875 C 400.371094 461.976562 402.457031 464.0625 405.019531 464.0625 " fill-opacity="1" fill-rule="evenodd"/><path fill="#ffffff" d="M 405.019531 477.601562 C 407.578125 477.601562 409.664062 475.515625 409.664062 472.960938 C 409.664062 470.402344 407.578125 468.316406 405.019531 468.316406 C 402.457031 468.316406 400.371094 470.402344 400.371094 472.960938 C 400.371094 475.515625 402.457031 477.601562 405.019531 477.601562 " fill-opacity="1" fill-rule="evenodd"/></svg>