<svg xmlns="http://www.w3.org/2000/svg" xmlns:xlink="http://www.w3.org/1999/xlink" width="1080" zoomAndPan="magnify" viewBox="0 0 810 809.999993" height="1080" preserveAspectRatio="xMidYMid meet" version="1.0"><defs><clipPath id="e2a4cc2bec"><path d="M 120 739 L 238 739 L 238 795.675781 L 120 795.675781 Z M 120 739 " clip-rule="nonzero"/></clipPath><clipPath id="874ec8dfd4"><path d="M 572 739 L 690 739 L 690 795.675781 L 572 795.675781 Z M 572 739 " clip-rule="nonzero"/></clipPath><clipPath id="1909967864"><path d="M 0 14.175781 L 84 14.175781 L 84 238 L 0 238 Z M 0 14.175781 " clip-rule="nonzero"/></clipPath><clipPath id="06ed8293ea"><path d="M 726 14.175781 L 810 14.175781 L 810 238 L 726 238 Z M 726 14.175781 " clip-rule="nonzero"/></clipPath></defs><g clip-path="url(#e2a4cc2bec)"><path fill="#005dbb" d="M 153.757812 753.808594 L 120.257812 795.675781 L 237.503906 795.675781 L 237.503906 739.855469 Z M 153.757812 753.808594 " fill-opacity="1" fill-rule="nonzero"/></g><path fill="#fdc9a6" d="M 250.765625 667.984375 L 208.195312 554.246094 L 187.433594 561.226562 C 165.796875 568.378906 147.476562 583.203125 135.789062 602.742188 C 120.78125 627.6875 117.992188 658.039062 128.285156 685.425781 L 153.757812 753.808594 L 237.503906 739.855469 L 223.546875 670.078125 Z M 250.765625 667.984375 " fill-opacity="1" fill-rule="nonzero"/><path fill="#fdc9a6" d="M 681.890625 685.253906 C 692.183594 658.039062 689.390625 627.511719 674.386719 602.566406 C 662.695312 583.03125 644.378906 568.378906 622.742188 561.050781 L 601.980469 554.074219 L 559.410156 667.808594 L 586.453125 670.078125 L 572.496094 739.855469 L 656.242188 753.808594 Z M 681.890625 685.253906 " fill-opacity="1" fill-rule="nonzero"/><g clip-path="url(#874ec8dfd4)"><path fill="#005dbb" d="M 572.496094 795.675781 L 689.742188 795.675781 L 656.242188 753.808594 L 572.496094 739.855469 Z M 572.496094 795.675781 " fill-opacity="1" fill-rule="nonzero"/></g><g clip-path="url(#1909967864)"><path fill="#dc651e" d="M 0.222656 14.175781 L 83.96875 14.175781 L 83.96875 237.460938 L 0.222656 237.460938 Z M 0.222656 14.175781 " fill-opacity="1" fill-rule="nonzero"/></g><g clip-path="url(#06ed8293ea)"><path fill="#dc651e" d="M 726.03125 14.175781 L 809.777344 14.175781 L 809.777344 237.460938 L 726.03125 237.460938 Z M 726.03125 14.175781 " fill-opacity="1" fill-rule="nonzero"/></g><path fill="#fd7422" d="M 83.96875 97.90625 L 726.03125 97.90625 L 726.03125 153.730469 L 83.96875 153.730469 Z M 83.96875 97.90625 " fill-opacity="1" fill-rule="nonzero"/><path fill="#fdc9a6" d="M 223.546875 237.460938 L 195.632812 97.90625 L 139.800781 97.90625 L 139.800781 266.765625 C 139.800781 274.964844 142.59375 282.816406 147.828125 289.09375 L 209.589844 363.058594 L 291.765625 280.898438 Z M 223.546875 237.460938 " fill-opacity="1" fill-rule="nonzero"/><path fill="#fdc9a6" d="M 662.171875 289.09375 C 667.40625 282.816406 670.199219 274.964844 670.199219 266.765625 L 670.199219 97.90625 L 614.367188 97.90625 L 586.453125 237.460938 L 518.234375 280.898438 L 600.410156 363.058594 Z M 662.171875 289.09375 " fill-opacity="1" fill-rule="nonzero"/><path fill="#eae9e4" d="M 363.125 326.25 L 291.765625 280.898438 L 209.589844 363.058594 L 279.378906 446.792969 L 363.125 404.925781 Z M 363.125 326.25 " fill-opacity="1" fill-rule="nonzero"/><path fill="#005dbb" d="M 530.621094 530.523438 L 530.621094 446.792969 L 446.875 404.925781 L 446.875 326.25 L 432.914062 335.148438 L 377.085938 335.148438 L 363.125 326.25 L 363.125 404.925781 L 279.378906 446.792969 L 279.378906 530.523438 L 208.019531 554.246094 L 250.765625 667.984375 L 405 656.121094 L 559.234375 667.984375 L 601.980469 554.246094 Z M 530.621094 530.523438 " fill-opacity="1" fill-rule="nonzero"/><path fill="#eae9e4" d="M 530.621094 446.792969 L 600.410156 363.058594 L 518.234375 280.898438 L 446.875 326.25 L 446.875 404.925781 Z M 530.621094 446.792969 " fill-opacity="1" fill-rule="nonzero"/><path fill="#fdc9a6" d="M 377.085938 265.371094 L 363.125 293.28125 C 363.125 316.484375 381.796875 335.148438 405 335.148438 C 428.203125 335.148438 446.875 316.484375 446.875 293.28125 L 432.914062 265.371094 Z M 377.085938 265.371094 " fill-opacity="1" fill-rule="nonzero"/><path fill="#4a4b46" d="M 405 223.503906 C 381.796875 223.503906 363.125 242.171875 363.125 265.371094 L 363.125 293.28125 L 377.085938 265.371094 L 432.914062 265.371094 L 446.875 293.28125 L 446.875 265.371094 C 446.875 242.171875 428.203125 223.503906 405 223.503906 Z M 405 223.503906 " fill-opacity="1" fill-rule="nonzero"/></svg>