<svg width="18" height="20" viewBox="0 0 18 20" fill="none" xmlns="http://www.w3.org/2000/svg">
<path d="M0 4.52381C0 4.12932 0.32671 3.80952 0.729726 3.80952H5.51787C5.52437 2.9683 5.61554 1.81504 6.45037 1.01668C7.10737 0.388386 8.00808 0 8.99999 0C9.99191 0 10.8926 0.388385 11.5496 1.01668C12.3844 1.81504 12.4756 2.9683 12.4821 3.80952H17.2703C17.6733 3.80952 18 4.12932 18 4.52381C18 4.9183 17.6733 5.2381 17.2703 5.2381H0.729726C0.32671 5.2381 0 4.9183 0 4.52381Z" fill="#1C274C"/>
<path d="M8.60656 20H9.39349C12.101 20 13.4547 20 14.3349 19.1368C15.2151 18.2736 15.3052 16.8576 15.4853 14.0257L15.7448 9.9452C15.8425 8.40864 15.8913 7.64037 15.4498 7.15352C15.0082 6.66667 14.2625 6.66667 12.7712 6.66667H5.22884C3.7375 6.66667 2.99183 6.66667 2.55026 7.15352C2.1087 7.64037 2.15756 8.40865 2.25528 9.9452L2.51479 14.0257C2.69489 16.8576 2.78494 18.2736 3.66513 19.1368C4.54532 20 5.89906 20 8.60656 20Z" fill="#1C274C"/>
</svg>
