<svg xmlns="http://www.w3.org/2000/svg" xmlns:xlink="http://www.w3.org/1999/xlink" width="400" zoomAndPan="magnify" viewBox="0 0 300 299.999988" height="400" preserveAspectRatio="xMidYMid meet" version="1.0"><defs><clipPath id="0912ebfea7"><path d="M 0 63 L 114 63 L 114 228.75 L 0 228.75 Z M 0 63 " clip-rule="nonzero"/></clipPath></defs><path fill="#66d2e8" d="M 132.375 104.238281 C 130.796875 123.222656 118.277344 142.804688 100.675781 149.5625 L 111.257812 134.433594 Z M 132.375 104.238281 " fill-opacity="1" fill-rule="nonzero"/><path fill="#66d2e8" d="M 67.699219 155.867188 L 105.492188 101.828125 L 123.890625 75.515625 C 126.222656 78.195312 128.082031 81.171875 129.46875 84.4375 L 81.515625 153.003906 C 76.871094 153.703125 72.210938 154.621094 67.699219 155.867188 Z M 67.699219 155.867188 " fill-opacity="1" fill-rule="nonzero"/><path fill="#66d2e8" d="M -0.00390625 130.152344 L 32.429688 83.777344 C 38.546875 80.097656 44.835938 76.683594 51.28125 73.726562 L -0.00390625 147.058594 Z M -0.00390625 130.152344 " fill-opacity="1" fill-rule="nonzero"/><g clip-path="url(#0912ebfea7)"><path fill="#66d2e8" d="M -0.00390625 211.832031 L 99.722656 69.234375 L 103.515625 63.8125 C 106.648438 64.46875 109.65625 65.5 112.535156 66.90625 L 113.007812 67.140625 L -0.00390625 228.734375 Z M -0.00390625 211.832031 " fill-opacity="1" fill-rule="nonzero"/></g><path fill="#66d2e8" d="M -0.00390625 187.894531 L -0.00390625 170.988281 L 73.695312 65.613281 C 78.085938 64.472656 82.660156 63.570312 87.257812 63.121094 L 34.707031 138.261719 Z M -0.00390625 187.894531 " fill-opacity="1" fill-rule="nonzero"/><path fill="#38b6ff" d="M 300 0.0195312 L -0.00390625 0.0195312 L -0.00390625 149.402344 C 20.074219 149.222656 40.179688 140.554688 53.332031 125.292969 C 70.882812 104.921875 76.378906 75.007812 97.628906 58.53125 C 115.40625 44.75 140.246094 41.976562 161.109375 49.082031 C 174.875 53.773438 187.546875 59.175781 202.21875 60.742188 C 223.875 63.054688 248.734375 60.320312 266.621094 46.898438 C 278.0625 38.3125 286.109375 26.007812 293.019531 13.480469 C 295.457031 9.054688 297.785156 4.566406 300 0.0195312 Z M 300 0.0195312 " fill-opacity="1" fill-rule="nonzero"/></svg>