<svg xmlns="http://www.w3.org/2000/svg" xmlns:xlink="http://www.w3.org/1999/xlink" width="1080" zoomAndPan="magnify" viewBox="0 0 810 809.999993" height="1080" preserveAspectRatio="xMidYMid meet" version="1.0"><path fill="#a4a8b6" d="M 520.851562 378.320312 C 521.671875 350.722656 523.007812 257.480469 503.988281 251.003906 C 484.988281 244.535156 459.269531 282.667969 451.542969 295 C 437.078125 286.820312 421.394531 282.074219 405.011719 282.074219 C 388.632812 282.074219 372.949219 286.820312 358.480469 295 C 350.757812 282.667969 325.039062 244.535156 306.039062 251.003906 C 287.015625 257.480469 288.351562 350.722656 289.171875 378.320312 C 279.410156 401.28125 273.871094 425.722656 273.871094 448.457031 C 273.871094 510.515625 378.273438 562.175781 405.011719 562.175781 C 431.753906 562.175781 536.15625 510.515625 536.15625 448.457031 C 536.15625 425.722656 530.613281 401.28125 520.851562 378.320312 " fill-opacity="1" fill-rule="nonzero"/><path fill="#484b5d" d="M 310.519531 255.101562 C 309.511719 255.101562 308.53125 255.25 307.59375 255.570312 C 306.054688 256.09375 298.21875 261.035156 294.976562 307.078125 C 293.085938 333.960938 293.550781 363.164062 293.996094 378.179688 C 294.015625 378.875 293.882812 379.566406 293.613281 380.207031 C 283.851562 403.167969 278.695312 426.769531 278.695312 448.457031 C 278.695312 482.070312 312.210938 510.617188 332.1875 524.640625 C 362.585938 545.984375 394.011719 557.351562 405.011719 557.351562 C 416.011719 557.351562 447.441406 545.984375 477.835938 524.640625 C 497.816406 510.617188 531.328125 482.070312 531.328125 448.457031 C 531.328125 426.769531 526.171875 403.167969 516.414062 380.207031 C 516.140625 379.566406 516.011719 378.875 516.03125 378.179688 C 516.476562 363.164062 516.941406 333.960938 515.046875 307.078125 C 511.804688 261.035156 503.96875 256.09375 502.433594 255.570312 C 494.316406 252.808594 483.03125 262.972656 477.035156 269.277344 C 467.65625 279.132812 459.601562 291.226562 455.636719 297.5625 C 454.265625 299.75 451.414062 300.46875 449.167969 299.203125 C 434.734375 291.035156 419.878906 286.898438 405.011719 286.898438 C 390.148438 286.898438 375.292969 291.035156 360.855469 299.199219 C 358.613281 300.46875 355.761719 299.75 354.390625 297.5625 C 350.425781 291.226562 342.371094 279.132812 332.992188 269.277344 C 327.6875 263.699219 318.25 255.101562 310.519531 255.101562 Z M 405.011719 567 C 390.617188 567 357.367188 554.109375 326.640625 532.535156 C 309.914062 520.792969 296.492188 508.265625 286.746094 495.304688 C 275 479.691406 269.046875 463.929688 269.046875 448.457031 C 269.046875 425.792969 274.324219 401.25 284.320312 377.414062 C 283.878906 361.933594 283.472656 333.085938 285.351562 306.402344 C 288.019531 268.527344 293.917969 250.035156 304.480469 246.4375 C 314.558594 243.007812 326.5 248.457031 339.984375 262.628906 C 348.277344 271.339844 355.53125 281.605469 360.128906 288.628906 C 374.773438 281.078125 389.855469 277.25 405.011719 277.25 C 420.171875 277.25 435.25 281.078125 449.898438 288.628906 C 454.496094 281.605469 461.75 271.339844 470.042969 262.628906 C 483.527344 248.457031 495.472656 243.011719 505.542969 246.4375 C 516.109375 250.035156 522.007812 268.527344 524.671875 306.402344 C 526.550781 333.085938 526.144531 361.933594 525.707031 377.414062 C 535.703125 401.25 540.980469 425.792969 540.980469 448.457031 C 540.980469 463.929688 535.027344 479.691406 523.28125 495.304688 C 513.535156 508.265625 500.109375 520.792969 483.382812 532.535156 C 452.660156 554.109375 419.410156 567 405.011719 567 " fill-opacity="1" fill-rule="nonzero"/><path fill="#ffffff" d="M 428.472656 328.570312 C 414.121094 328.570312 414.632812 354.5625 405.011719 354.5625 C 395.394531 354.5625 395.902344 328.570312 381.546875 328.570312 C 344.949219 328.570312 301.789062 401.867188 304.859375 446.351562 C 307.371094 482.761719 374.441406 537.511719 405.011719 537.511719 C 435.582031 537.511719 502.65625 482.761719 505.167969 446.351562 C 508.234375 401.867188 465.078125 328.570312 428.472656 328.570312 " fill-opacity="1" fill-rule="nonzero"/><path fill="#fbc3d4" d="M 498.726562 338.886719 C 500.59375 341.476562 504.6875 340.210938 504.792969 337.019531 C 505.464844 316.609375 505.472656 277.136719 495.730469 273.960938 C 486.90625 271.082031 473.082031 287.855469 464.726562 299.550781 C 463.679688 301.019531 463.972656 303.0625 465.410156 304.152344 C 477.800781 313.542969 489.039062 325.441406 498.726562 338.886719 " fill-opacity="1" fill-rule="nonzero"/><path fill="#fbc3d4" d="M 344.613281 304.152344 C 346.054688 303.0625 346.347656 301.019531 345.296875 299.550781 C 336.945312 287.855469 323.121094 271.082031 314.296875 273.960938 C 304.550781 277.136719 304.5625 316.609375 305.234375 337.019531 C 305.339844 340.210938 309.429688 341.476562 311.296875 338.886719 C 320.984375 325.441406 332.222656 313.542969 344.613281 304.152344 " fill-opacity="1" fill-rule="nonzero"/><path fill="#f35a79" d="M 405.011719 463.421875 L 405.011719 470.058594 C 405.011719 476.320312 410.089844 481.398438 416.355469 481.398438 C 422.617188 481.398438 427.695312 476.320312 427.695312 470.058594 L 427.695312 452.636719 C 424.625 457.113281 418 463.421875 405.011719 463.421875 " fill-opacity="1" fill-rule="nonzero"/><path fill="#484b5d" d="M 422.871094 470.058594 C 422.871094 473.652344 419.949219 476.574219 416.355469 476.574219 C 412.761719 476.574219 409.835938 473.652344 409.835938 470.058594 L 409.835938 467.96875 C 415.210938 467.351562 419.488281 465.730469 422.871094 463.695312 Z M 431.484375 443.652344 C 428.945312 442.835938 426.234375 444.210938 425.421875 446.746094 C 425.410156 446.777344 424.34375 449.820312 421.316406 452.757812 C 418.3125 455.671875 414.464844 457.507812 409.835938 458.238281 L 409.835938 436.378906 C 416.777344 434.550781 422.71875 429.117188 424.449219 423.699219 C 426.570312 417.050781 416.539062 413.828125 405.011719 413.828125 C 393.484375 413.828125 383.453125 417.050781 385.578125 423.699219 C 387.289062 429.066406 393.125 434.457031 399.980469 436.339844 L 400.1875 436.34375 L 400.1875 458.238281 C 395.5625 457.507812 391.714844 455.671875 388.710938 452.757812 C 385.691406 449.824219 384.621094 446.792969 384.621094 446.792969 C 383.804688 444.257812 381.085938 442.859375 378.550781 443.671875 C 376.015625 444.488281 374.617188 447.203125 375.433594 449.738281 C 375.65625 450.441406 380.808594 465.742188 400.1875 467.96875 L 400.1875 470.058594 C 400.1875 478.972656 407.441406 486.222656 416.355469 486.222656 C 425.269531 486.222656 432.519531 478.972656 432.519531 470.058594 L 432.519531 454.054688 C 433.929688 451.71875 434.519531 449.964844 434.59375 449.738281 C 435.40625 447.203125 434.019531 444.464844 431.484375 443.652344 " fill-opacity="1" fill-rule="nonzero"/><path fill="#484b5d" d="M 443.148438 384.9375 C 437.503906 384.9375 432.925781 390.695312 432.925781 397.792969 C 432.925781 404.886719 437.503906 410.640625 443.148438 410.640625 C 448.792969 410.640625 453.375 404.886719 453.375 397.792969 C 453.375 390.695312 448.792969 384.9375 443.148438 384.9375 " fill-opacity="1" fill-rule="nonzero"/><path fill="#484b5d" d="M 377.9375 405.976562 C 379.59375 405.992188 381.136719 405.175781 382.042969 403.796875 C 382.945312 402.414062 383.082031 400.664062 382.402344 399.164062 C 375.140625 383.128906 357.449219 381.546875 349.109375 382.945312 C 346.488281 383.382812 344.726562 385.859375 345.15625 388.480469 C 345.585938 391.101562 348.066406 392.882812 350.691406 392.460938 C 351.25 392.371094 362.027344 390.753906 369.277344 397.1875 C 365.515625 397.890625 361.09375 399.160156 357.140625 401.460938 C 354.839844 402.804688 354.0625 405.753906 355.402344 408.054688 C 356.300781 409.59375 357.917969 410.453125 359.578125 410.453125 C 360.402344 410.453125 361.238281 410.242188 362.003906 409.796875 C 368.632812 405.929688 377.839844 405.960938 377.9375 405.976562 " fill-opacity="1" fill-rule="nonzero"/></svg>