<svg xmlns="http://www.w3.org/2000/svg" xmlns:xlink="http://www.w3.org/1999/xlink" width="1080" zoomAndPan="magnify" viewBox="0 0 810 809.999993" height="1080" preserveAspectRatio="xMidYMid meet" version="1.0"><defs><clipPath id="2bb101b607"><path d="M 76 5 L 729 5 L 729 777.75 L 76 777.75 Z M 76 5 " clip-rule="nonzero"/></clipPath></defs><rect x="-81" width="972" fill="#ffffff" y="-80.999999" height="971.999992" fill-opacity="1"/><rect x="-81" width="972" fill="#ffffff" y="-80.999999" height="971.999992" fill-opacity="1"/><path fill="#a4a8b6" d="M 680.449219 324.835938 C 682.417969 258.578125 685.625 34.757812 639.984375 19.210938 C 594.394531 3.6875 532.683594 95.21875 514.148438 124.828125 C 479.429688 105.1875 441.800781 93.792969 402.5 93.792969 C 363.195312 93.792969 325.566406 105.1875 290.851562 124.828125 C 272.316406 95.21875 210.605469 3.6875 165.019531 19.210938 C 119.375 34.757812 122.582031 258.578125 124.546875 324.835938 C 101.128906 379.953125 87.832031 438.621094 87.832031 493.195312 C 87.832031 642.164062 338.335938 766.171875 402.5 766.171875 C 466.664062 766.171875 717.167969 642.164062 717.167969 493.195312 C 717.167969 438.621094 703.871094 379.953125 680.449219 324.835938 " fill-opacity="1" fill-rule="nonzero"/><g clip-path="url(#2bb101b607)"><path fill="#484b5d" d="M 175.773438 29.054688 C 173.355469 29.054688 171.003906 29.410156 168.753906 30.175781 C 165.058594 31.429688 146.253906 43.296875 138.476562 153.820312 C 133.9375 218.351562 135.050781 288.449219 136.121094 324.492188 C 136.167969 326.160156 135.855469 327.820312 135.203125 329.363281 C 111.78125 384.480469 99.410156 441.128906 99.410156 493.195312 C 99.410156 573.875 179.824219 642.40625 227.761719 676.074219 C 300.699219 727.304688 376.105469 754.59375 402.5 754.59375 C 428.890625 754.59375 504.300781 727.304688 577.238281 676.074219 C 625.175781 642.40625 705.589844 573.875 705.589844 493.195312 C 705.589844 441.128906 693.214844 384.480469 669.796875 329.363281 C 669.144531 327.820312 668.832031 326.160156 668.878906 324.492188 C 669.945312 288.449219 671.0625 218.351562 666.523438 153.820312 C 658.742188 43.296875 639.9375 31.429688 636.253906 30.175781 C 616.777344 23.542969 589.707031 47.941406 575.308594 63.078125 C 552.804688 86.734375 533.480469 115.769531 523.964844 130.972656 C 520.679688 136.222656 513.839844 137.953125 508.449219 134.910156 C 473.8125 115.3125 438.167969 105.371094 402.5 105.371094 C 366.832031 105.371094 331.183594 115.3125 296.550781 134.902344 C 291.164062 137.953125 284.328125 136.222656 281.035156 130.972656 C 271.519531 115.769531 252.195312 86.734375 229.691406 63.078125 C 216.957031 49.6875 194.3125 29.054688 175.773438 29.054688 Z M 402.5 777.75 C 367.960938 777.75 288.175781 746.808594 214.445312 695.019531 C 174.320312 666.832031 142.105469 636.761719 118.722656 605.648438 C 90.539062 568.164062 76.253906 530.332031 76.253906 493.195312 C 76.253906 438.789062 88.917969 379.875 112.90625 322.652344 C 111.84375 285.5 110.871094 216.246094 115.382812 152.191406 C 121.78125 61.277344 135.9375 16.890625 161.28125 8.253906 C 185.460938 0.0234375 214.109375 13.101562 246.464844 47.113281 C 266.363281 68.03125 283.773438 92.667969 294.800781 109.527344 C 329.941406 91.402344 366.128906 82.214844 402.5 82.214844 C 438.871094 82.214844 475.050781 91.402344 510.199219 109.527344 C 521.226562 92.667969 538.636719 68.03125 558.535156 47.113281 C 590.890625 13.101562 619.550781 0.0273438 643.71875 8.253906 C 669.058594 16.890625 683.21875 61.277344 689.617188 152.191406 C 694.125 216.246094 693.148438 285.5 692.09375 322.652344 C 716.082031 379.875 728.742188 438.789062 728.742188 493.195312 C 728.742188 530.332031 714.460938 568.164062 686.277344 605.648438 C 662.890625 636.761719 630.679688 666.832031 590.550781 695.019531 C 516.824219 746.808594 437.039062 777.75 402.5 777.75 " fill-opacity="1" fill-rule="nonzero"/></g><path fill="#ffffff" d="M 458.792969 205.402344 C 424.363281 205.402344 425.582031 267.800781 402.5 267.800781 C 379.417969 267.800781 380.636719 205.402344 346.203125 205.402344 C 258.378906 205.402344 154.824219 381.351562 162.1875 488.136719 C 168.210938 575.535156 329.148438 706.964844 402.5 706.964844 C 475.851562 706.964844 636.789062 575.535156 642.8125 488.136719 C 650.175781 381.351562 546.617188 205.402344 458.792969 205.402344 " fill-opacity="1" fill-rule="nonzero"/><path fill="#fbc3d4" d="M 627.363281 230.171875 C 631.84375 236.386719 641.667969 233.355469 641.914062 225.691406 C 643.523438 176.699219 643.554688 81.945312 620.171875 74.316406 C 598.992188 67.40625 565.824219 107.675781 545.78125 135.746094 C 543.265625 139.277344 543.964844 144.179688 547.421875 146.796875 C 577.152344 169.335938 604.125 197.898438 627.363281 230.171875 " fill-opacity="1" fill-rule="nonzero"/><path fill="#fbc3d4" d="M 257.578125 146.796875 C 261.035156 144.179688 261.734375 139.277344 259.21875 135.746094 C 239.175781 107.675781 206.003906 67.40625 184.828125 74.316406 C 161.445312 81.945312 161.476562 176.699219 163.085938 225.691406 C 163.332031 233.355469 173.15625 236.386719 177.636719 230.171875 C 200.875 197.898438 227.84375 169.335938 257.578125 146.796875 " fill-opacity="1" fill-rule="nonzero"/><path fill="#484b5d" d="M 457.246094 487.746094 C 451.15625 485.792969 444.652344 489.082031 442.707031 495.167969 C 442.683594 495.226562 440.558594 501.191406 434.601562 506.9375 C 429.152344 512.1875 422.277344 515.628906 414.078125 517.246094 L 414.078125 464.203125 C 430.730469 459.8125 444.980469 446.769531 449.132812 433.761719 C 454.222656 417.804688 430.160156 410.0625 402.5 410.0625 C 374.839844 410.0625 350.777344 417.804688 355.863281 433.761719 C 359.976562 446.640625 373.976562 459.589844 390.421875 464.105469 L 390.921875 464.113281 L 390.921875 517.210938 C 368.691406 512.714844 362.589844 496.007812 362.335938 495.300781 C 360.386719 489.210938 353.863281 485.855469 347.777344 487.8125 C 341.6875 489.757812 338.335938 496.285156 340.289062 502.367188 C 340.800781 503.964844 353.394531 541.476562 402.5 541.476562 C 451.605469 541.476562 464.195312 503.964844 464.710938 502.367188 C 466.664062 496.285156 463.328125 489.699219 457.246094 487.746094 " fill-opacity="1" fill-rule="nonzero"/><path fill="#484b5d" d="M 500.039062 348.910156 C 478.867188 348.910156 461.640625 366.132812 461.640625 387.308594 C 461.640625 393.703125 466.824219 398.886719 473.21875 398.886719 C 479.613281 398.886719 484.792969 393.703125 484.792969 387.308594 C 484.792969 378.902344 491.632812 372.066406 500.039062 372.066406 C 508.445312 372.066406 515.28125 378.902344 515.28125 387.308594 C 515.28125 393.703125 520.46875 398.886719 526.859375 398.886719 C 533.25 398.886719 538.4375 393.703125 538.4375 387.308594 C 538.4375 366.132812 521.207031 348.910156 500.039062 348.910156 " fill-opacity="1" fill-rule="nonzero"/><path fill="#484b5d" d="M 343.359375 387.308594 C 343.359375 366.132812 326.132812 348.910156 304.960938 348.910156 C 283.789062 348.910156 266.5625 366.132812 266.5625 387.308594 C 266.5625 393.703125 271.75 398.886719 278.140625 398.886719 C 284.53125 398.886719 289.71875 393.703125 289.71875 387.308594 C 289.71875 378.902344 296.554688 372.066406 304.960938 372.066406 C 313.367188 372.066406 320.203125 378.902344 320.203125 387.308594 C 320.203125 393.703125 325.382812 398.886719 331.78125 398.886719 C 338.171875 398.886719 343.359375 393.703125 343.359375 387.308594 " fill-opacity="1" fill-rule="nonzero"/></svg>