<svg xmlns="http://www.w3.org/2000/svg" xmlns:xlink="http://www.w3.org/1999/xlink" width="400" zoomAndPan="magnify" viewBox="0 0 300 299.999988" height="400" preserveAspectRatio="xMidYMid meet" version="1.0"><defs><g/><clipPath id="b17776e841"><path d="M 75.140625 30 L 235.144531 30 L 235.144531 221.394531 L 75.140625 221.394531 Z M 75.140625 30 " clip-rule="nonzero"/></clipPath><clipPath id="99dd95955f"><path d="M 16.328125 24.375 L 80.886719 24.375 L 80.886719 98.160156 L 16.328125 98.160156 Z M 16.328125 24.375 " clip-rule="nonzero"/></clipPath><clipPath id="d471c50633"><path d="M 36 228 L 71 228 L 71 263 L 36 263 Z M 36 228 " clip-rule="nonzero"/></clipPath><clipPath id="eba9fb7478"><path d="M 0 231.128906 L 53.234375 190.199219 L 85.574219 232.261719 L 32.339844 273.191406 Z M 0 231.128906 " clip-rule="nonzero"/></clipPath><clipPath id="dedf863ab4"><path d="M 53.410156 190.066406 L 0.175781 230.992188 L 32.511719 273.054688 L 85.75 232.128906 Z M 53.410156 190.066406 " clip-rule="nonzero"/></clipPath><clipPath id="40c48c4427"><path d="M 55.765625 217.695312 L 24.421875 241.789062 L 42.667969 265.519531 L 74.007812 241.421875 Z M 55.765625 217.695312 " clip-rule="nonzero"/></clipPath><clipPath id="091adab88a"><path d="M 55.765625 217.695312 L 24.421875 241.789062 L 42.664062 265.515625 L 74.003906 241.417969 Z M 55.765625 217.695312 " clip-rule="nonzero"/></clipPath><clipPath id="0d7fec48af"><path d="M 56 206 L 68 206 L 68 224 L 56 224 Z M 56 206 " clip-rule="nonzero"/></clipPath><clipPath id="efa05a5472"><path d="M 0 231.128906 L 53.234375 190.199219 L 85.574219 232.261719 L 32.339844 273.191406 Z M 0 231.128906 " clip-rule="nonzero"/></clipPath><clipPath id="37f1a66a8e"><path d="M 53.410156 190.066406 L 0.175781 230.992188 L 32.511719 273.054688 L 85.75 232.128906 Z M 53.410156 190.066406 " clip-rule="nonzero"/></clipPath><clipPath id="a10bbf198d"><path d="M 35 203 L 50 203 L 50 223 L 35 223 Z M 35 203 " clip-rule="nonzero"/></clipPath><clipPath id="3a983d8653"><path d="M 0 231.128906 L 53.234375 190.199219 L 85.574219 232.261719 L 32.339844 273.191406 Z M 0 231.128906 " clip-rule="nonzero"/></clipPath><clipPath id="ea8aa0843f"><path d="M 53.410156 190.066406 L 0.175781 230.992188 L 32.511719 273.054688 L 85.75 232.128906 Z M 53.410156 190.066406 " clip-rule="nonzero"/></clipPath><clipPath id="bb8c13e0f1"><path d="M 16 217 L 35 217 L 35 233 L 16 233 Z M 16 217 " clip-rule="nonzero"/></clipPath><clipPath id="a623d90142"><path d="M 0 231.128906 L 53.234375 190.199219 L 85.574219 232.261719 L 32.339844 273.191406 Z M 0 231.128906 " clip-rule="nonzero"/></clipPath><clipPath id="c429a197e1"><path d="M 53.410156 190.066406 L 0.175781 230.992188 L 32.511719 273.054688 L 85.75 232.128906 Z M 53.410156 190.066406 " clip-rule="nonzero"/></clipPath><clipPath id="2a87e17a7d"><path d="M 12 238 L 32 238 L 32 252 L 12 252 Z M 12 238 " clip-rule="nonzero"/></clipPath><clipPath id="e547db6f6f"><path d="M 0 231.128906 L 53.234375 190.199219 L 85.574219 232.261719 L 32.339844 273.191406 Z M 0 231.128906 " clip-rule="nonzero"/></clipPath><clipPath id="26799f94eb"><path d="M 53.410156 190.066406 L 0.175781 230.992188 L 32.511719 273.054688 L 85.75 232.128906 Z M 53.410156 190.066406 " clip-rule="nonzero"/></clipPath></defs><path fill="#66d2e8" d="M 128.714844 261.996094 C 151.269531 257.90625 172.621094 244.78125 184.074219 224.925781 C 187.140625 219.609375 189.488281 213.886719 192.78125 208.703125 C 204.726562 189.898438 226.910156 180.964844 246.003906 169.46875 C 265.207031 157.902344 294.414062 144.875 296.128906 119.191406 C 299.988281 61.273438 232.628906 0.0625 178.777344 35.882812 C 172.339844 40.164062 164.28125 41.050781 156.5625 41.5 C 156.5625 41.5 156.558594 41.5 156.554688 41.5 C 126.34375 43.246094 95.449219 30.375 68.40625 49.386719 C 56.5625 57.714844 47.507812 69.457031 40.035156 81.859375 C 24.953125 106.898438 45.347656 127.121094 41.304688 153.945312 C 39.285156 167.34375 35.109375 180.480469 34.871094 194.027344 C 34.539062 213.003906 42.53125 230.363281 55.125 244.203125 C 59.007812 248.464844 62.808594 252.78125 68.140625 255.222656 C 75.769531 258.722656 84.589844 260.613281 92.816406 261.984375 C 104.671875 263.960938 116.867188 264.144531 128.714844 261.996094 Z M 128.714844 261.996094 " fill-opacity="1" fill-rule="nonzero"/><g clip-path="url(#b17776e841)"><path fill="#a4a8b6" d="M 225.828125 108.640625 C 226.328125 91.722656 227.144531 34.566406 215.539062 30.597656 C 203.949219 26.632812 188.261719 50.003906 183.546875 57.566406 C 174.71875 52.550781 165.152344 49.640625 155.160156 49.640625 C 145.171875 49.640625 135.601562 52.550781 126.777344 57.566406 C 122.0625 50.003906 106.375 26.632812 94.785156 30.597656 C 83.179688 34.566406 83.996094 91.722656 84.496094 108.640625 C 78.539062 122.714844 75.160156 137.699219 75.160156 151.636719 C 75.160156 189.675781 138.847656 221.34375 155.160156 221.34375 C 171.472656 221.34375 235.164062 189.675781 235.164062 151.636719 C 235.164062 137.699219 231.78125 122.714844 225.828125 108.640625 " fill-opacity="1" fill-rule="nonzero"/></g><path fill="#ffffff" d="M 169.472656 78.140625 C 160.71875 78.140625 161.03125 94.078125 155.160156 94.078125 C 149.292969 94.078125 149.601562 78.140625 140.847656 78.140625 C 118.519531 78.140625 92.191406 123.074219 94.0625 150.34375 C 95.59375 172.660156 136.511719 206.222656 155.160156 206.222656 C 173.8125 206.222656 214.726562 172.660156 216.257812 150.34375 C 218.132812 123.074219 191.804688 78.140625 169.472656 78.140625 " fill-opacity="1" fill-rule="nonzero"/><path fill="#fbc3d4" d="M 212.332031 84.46875 C 213.472656 86.054688 215.96875 85.28125 216.03125 83.324219 C 216.441406 70.8125 216.445312 46.613281 210.503906 44.667969 C 205.117188 42.902344 196.6875 53.1875 191.589844 60.355469 C 190.949219 61.253906 191.128906 62.507812 192.007812 63.175781 C 199.566406 68.933594 206.421875 76.226562 212.332031 84.46875 " fill-opacity="1" fill-rule="nonzero"/><path fill="#fbc3d4" d="M 118.316406 63.175781 C 119.195312 62.507812 119.371094 61.253906 118.734375 60.355469 C 113.636719 53.1875 105.203125 42.902344 99.820312 44.667969 C 93.875 46.613281 93.882812 70.8125 94.292969 83.324219 C 94.355469 85.28125 96.851562 86.054688 97.992188 84.46875 C 103.898438 76.226562 110.757812 68.933594 118.316406 63.175781 " fill-opacity="1" fill-rule="nonzero"/><path fill="#484b5d" d="M 155.160156 130.265625 C 148.339844 130.265625 142.40625 132.183594 143.660156 136.136719 C 144.675781 139.328125 148.128906 142.535156 152.183594 143.652344 L 152.304688 143.65625 L 152.304688 153.558594 C 152.304688 155.144531 153.585938 156.425781 155.160156 156.425781 C 156.738281 156.425781 158.015625 155.144531 158.015625 153.558594 L 158.015625 143.675781 C 162.125 142.589844 165.636719 139.359375 166.664062 136.136719 C 167.917969 132.183594 161.984375 130.265625 155.160156 130.265625 " fill-opacity="1" fill-rule="nonzero"/><path fill="#484b5d" d="M 184.371094 119.867188 L 188.203125 116.019531 C 189.316406 114.902344 189.316406 113.085938 188.203125 111.964844 C 187.085938 110.84375 185.277344 110.84375 184.164062 111.964844 L 180.332031 115.8125 L 176.503906 111.964844 C 175.386719 110.84375 173.578125 110.84375 172.464844 111.964844 C 171.347656 113.085938 171.347656 114.902344 172.464844 116.019531 L 176.296875 119.867188 L 172.464844 123.714844 C 171.347656 124.835938 171.347656 126.652344 172.464844 127.773438 C 173.023438 128.332031 173.753906 128.613281 174.484375 128.613281 C 175.214844 128.613281 175.945312 128.332031 176.503906 127.773438 L 180.332031 123.925781 L 184.164062 127.773438 C 184.722656 128.332031 185.453125 128.613281 186.183594 128.613281 C 186.914062 128.613281 187.644531 128.332031 188.203125 127.773438 C 189.316406 126.652344 189.316406 124.835938 188.203125 123.714844 L 184.371094 119.867188 " fill-opacity="1" fill-rule="nonzero"/><path fill="#484b5d" d="M 137.859375 111.964844 C 136.742188 110.84375 134.933594 110.84375 133.820312 111.964844 L 129.992188 115.8125 L 126.160156 111.964844 C 125.042969 110.84375 123.234375 110.84375 122.121094 111.964844 C 121.003906 113.085938 121.003906 114.902344 122.121094 116.019531 L 125.953125 119.867188 L 122.121094 123.714844 C 121.003906 124.835938 121.003906 126.652344 122.121094 127.773438 C 122.679688 128.332031 123.410156 128.613281 124.140625 128.613281 C 124.871094 128.613281 125.601562 128.332031 126.160156 127.773438 L 129.992188 123.925781 L 133.820312 127.773438 C 134.378906 128.332031 135.109375 128.613281 135.839844 128.613281 C 136.570312 128.613281 137.300781 128.332031 137.859375 127.773438 C 138.972656 126.652344 138.972656 124.835938 137.859375 123.714844 L 134.027344 119.867188 L 137.859375 116.019531 C 138.972656 114.902344 138.972656 113.085938 137.859375 111.964844 " fill-opacity="1" fill-rule="nonzero"/><path fill="#f35a79" d="M 155.160156 150.691406 C 144.261719 150.691406 135.394531 159.597656 135.394531 170.550781 C 135.394531 172.132812 136.671875 173.417969 138.246094 173.417969 L 172.074219 173.417969 C 173.652344 173.417969 174.929688 172.132812 174.929688 170.550781 C 174.929688 159.597656 166.0625 150.691406 155.160156 150.691406 " fill-opacity="1" fill-rule="nonzero"/><g clip-path="url(#99dd95955f)"><path fill="#ffd05b" d="M 16.222656 56.757812 C 16.222656 74.644531 30.722656 89.140625 48.605469 89.140625 C 50.332031 89.140625 52.019531 89.007812 53.671875 88.746094 L 64.941406 98.007812 C 65.191406 98.210938 65.414062 98.238281 65.5625 98.113281 C 65.570312 98.105469 65.582031 98.097656 65.585938 98.089844 C 65.675781 98 65.730469 97.847656 65.734375 97.644531 L 66.054688 84.046875 C 71.554688 80.519531 75.914062 75.382812 78.472656 69.296875 C 80.09375 65.441406 80.992188 61.203125 80.992188 56.757812 C 80.992188 38.875 66.492188 24.375 48.605469 24.375 C 44.160156 24.375 39.925781 25.273438 36.070312 26.894531 C 32.292969 28.480469 28.875 30.765625 25.984375 33.585938 C 25.800781 33.769531 25.617188 33.953125 25.433594 34.136719 C 19.734375 39.976562 16.222656 47.953125 16.222656 56.757812 " fill-opacity="1" fill-rule="nonzero"/></g><path fill="#ffd05b" d="M 55.753906 61.285156 C 57.996094 63.5 62.792969 64.621094 61.761719 70.4375 C 60.710938 76.367188 52.496094 74.925781 48.21875 74.835938 C 45.945312 74.792969 36.613281 76.628906 34.722656 71.953125 C 33.070312 67.859375 35.703125 65.082031 39.703125 61.808594 C 43.273438 58.882812 44.25 54.070312 48.425781 54.070312 C 52.332031 54.070312 54.382812 59.929688 55.753906 61.285156 " fill-opacity="1" fill-rule="nonzero"/><path fill="#ffd05b" d="M 63.246094 52.402344 C 60.984375 55.003906 60.582031 58.277344 62.351562 59.714844 C 64.117188 61.148438 67.386719 60.203125 69.652344 57.601562 C 71.914062 54.996094 72.316406 51.722656 70.546875 50.289062 C 68.78125 48.851562 65.511719 49.796875 63.246094 52.402344 " fill-opacity="1" fill-rule="nonzero"/><path fill="#ffd05b" d="M 52.003906 44.378906 C 50.941406 48.101562 52.011719 51.636719 54.386719 52.265625 C 56.765625 52.902344 59.554688 50.394531 60.613281 46.667969 C 61.675781 42.945312 60.609375 39.410156 58.230469 38.777344 C 55.851562 38.144531 53.0625 40.652344 52.003906 44.378906 " fill-opacity="1" fill-rule="nonzero"/><path fill="#ffd05b" d="M 37.675781 46.125 C 38.816406 49.75 41.597656 52.15625 43.894531 51.5 C 46.191406 50.847656 47.128906 47.375 45.992188 43.75 C 44.855469 40.125 42.070312 37.71875 39.773438 38.375 C 37.480469 39.027344 36.539062 42.5 37.675781 46.125 " fill-opacity="1" fill-rule="nonzero"/><path fill="#ffd05b" d="M 27.847656 57.894531 C 30.285156 60.648438 33.757812 61.644531 35.609375 60.117188 C 37.457031 58.589844 36.988281 55.117188 34.554688 52.359375 C 32.121094 49.605469 28.644531 48.609375 26.792969 50.136719 C 24.941406 51.664062 25.414062 55.136719 27.847656 57.894531 " fill-opacity="1" fill-rule="nonzero"/><g fill="#ffffff" fill-opacity="1"><g transform="translate(26.905441, 55.687081)"><g><path d="M 7.90625 -7.953125 C 8.144531 -7.472656 8.265625 -6.9375 8.265625 -6.34375 C 8.265625 -5.757812 8.144531 -5.226562 7.90625 -4.75 C 7.664062 -4.28125 7.363281 -3.90625 7 -3.625 C 6.238281 -3.039062 5.457031 -2.75 4.65625 -2.75 L 2.953125 -2.75 L 2.953125 -1.21875 C 2.953125 -1 2.941406 -0.835938 2.921875 -0.734375 C 2.910156 -0.628906 2.867188 -0.507812 2.796875 -0.375 C 2.671875 -0.132812 2.316406 -0.015625 1.734375 -0.015625 C 1.109375 -0.015625 0.738281 -0.179688 0.625 -0.515625 C 0.570312 -0.671875 0.546875 -0.90625 0.546875 -1.21875 L 0.546875 -8.78125 C 0.546875 -8.988281 0.550781 -9.144531 0.5625 -9.25 C 0.570312 -9.351562 0.613281 -9.472656 0.6875 -9.609375 C 0.820312 -9.847656 1.175781 -9.96875 1.75 -9.96875 L 4.671875 -9.96875 C 5.460938 -9.96875 6.238281 -9.679688 7 -9.109375 C 7.363281 -8.828125 7.664062 -8.441406 7.90625 -7.953125 Z M 4.671875 -5.15625 C 4.941406 -5.15625 5.207031 -5.253906 5.46875 -5.453125 C 5.726562 -5.648438 5.859375 -5.945312 5.859375 -6.34375 C 5.859375 -6.75 5.726562 -7.050781 5.46875 -7.25 C 5.207031 -7.457031 4.9375 -7.5625 4.65625 -7.5625 L 2.953125 -7.5625 L 2.953125 -5.15625 Z M 4.671875 -5.15625 "/></g></g></g><g fill="#ffffff" fill-opacity="1"><g transform="translate(35.504044, 55.687081)"><g><path d="M 0.546875 -9.34375 C 0.546875 -9.550781 0.550781 -9.707031 0.5625 -9.8125 C 0.570312 -9.914062 0.613281 -10.039062 0.6875 -10.1875 C 0.8125 -10.425781 1.160156 -10.546875 1.734375 -10.546875 C 2.296875 -10.546875 2.644531 -10.425781 2.78125 -10.1875 C 2.851562 -10.039062 2.894531 -9.914062 2.90625 -9.8125 C 2.914062 -9.707031 2.921875 -9.550781 2.921875 -9.34375 L 2.921875 -3.03125 C 2.921875 -2.707031 2.945312 -2.5 3 -2.40625 C 3.0625 -2.320312 3.179688 -2.28125 3.359375 -2.28125 C 3.546875 -2.28125 3.671875 -2.273438 3.734375 -2.265625 C 3.804688 -2.253906 3.882812 -2.21875 3.96875 -2.15625 C 4.15625 -2.03125 4.25 -1.707031 4.25 -1.1875 C 4.25 -0.613281 4.15625 -0.265625 3.96875 -0.140625 C 3.738281 0.0234375 3.175781 0.0546875 2.28125 -0.046875 C 1.582031 -0.140625 1.128906 -0.375 0.921875 -0.75 C 0.671875 -1.195312 0.546875 -1.90625 0.546875 -2.875 Z M 0.546875 -9.34375 "/></g></g></g><g fill="#ffffff" fill-opacity="1"><g transform="translate(39.953004, 55.687081)"><g><path d="M 7.453125 -4.4375 C 7.453125 -3.882812 7.3125 -3.472656 7.03125 -3.203125 C 6.757812 -2.929688 6.457031 -2.796875 6.125 -2.796875 L 2.90625 -2.796875 C 2.90625 -2.546875 3.050781 -2.332031 3.34375 -2.15625 C 3.644531 -1.988281 3.945312 -1.90625 4.25 -1.90625 C 4.769531 -1.90625 5.179688 -1.957031 5.484375 -2.0625 L 5.640625 -2.125 C 5.847656 -2.21875 6.023438 -2.265625 6.171875 -2.265625 C 6.460938 -2.265625 6.710938 -2.0625 6.921875 -1.65625 C 7.046875 -1.414062 7.109375 -1.207031 7.109375 -1.03125 C 7.109375 -0.226562 6.140625 0.171875 4.203125 0.171875 C 3.535156 0.171875 2.941406 0.0546875 2.421875 -0.171875 C 1.898438 -0.398438 1.492188 -0.707031 1.203125 -1.09375 C 0.628906 -1.820312 0.34375 -2.640625 0.34375 -3.546875 C 0.34375 -4.691406 0.710938 -5.609375 1.453125 -6.296875 C 2.191406 -6.984375 3.113281 -7.328125 4.21875 -7.328125 C 5.476562 -7.328125 6.40625 -6.878906 7 -5.984375 C 7.300781 -5.515625 7.453125 -5 7.453125 -4.4375 Z M 4.59375 -4.046875 C 4.9375 -4.046875 5.109375 -4.191406 5.109375 -4.484375 C 5.109375 -4.691406 5.023438 -4.859375 4.859375 -4.984375 C 4.703125 -5.109375 4.476562 -5.171875 4.1875 -5.171875 C 3.894531 -5.171875 3.601562 -5.050781 3.3125 -4.8125 C 3.019531 -4.570312 2.875 -4.316406 2.875 -4.046875 Z M 4.59375 -4.046875 "/></g></g></g><g fill="#ffffff" fill-opacity="1"><g transform="translate(47.748889, 55.687081)"><g><path d="M 5.203125 -6.40625 C 5.253906 -6.914062 5.613281 -7.171875 6.28125 -7.171875 C 6.632812 -7.171875 6.894531 -7.144531 7.0625 -7.09375 C 7.238281 -7.039062 7.359375 -6.941406 7.421875 -6.796875 C 7.492188 -6.660156 7.535156 -6.539062 7.546875 -6.4375 C 7.554688 -6.332031 7.5625 -6.175781 7.5625 -5.96875 L 7.5625 -1.21875 C 7.5625 -1 7.554688 -0.835938 7.546875 -0.734375 C 7.535156 -0.628906 7.5 -0.507812 7.4375 -0.375 C 7.300781 -0.144531 6.984375 -0.03125 6.484375 -0.03125 C 5.992188 -0.03125 5.664062 -0.0859375 5.5 -0.203125 C 5.332031 -0.328125 5.238281 -0.507812 5.21875 -0.75 C 4.875 -0.269531 4.3125 -0.03125 3.53125 -0.03125 C 2.75 -0.03125 2.019531 -0.382812 1.34375 -1.09375 C 0.675781 -1.8125 0.34375 -2.644531 0.34375 -3.59375 C 0.34375 -4.539062 0.679688 -5.367188 1.359375 -6.078125 C 2.035156 -6.796875 2.773438 -7.15625 3.578125 -7.15625 C 3.890625 -7.15625 4.171875 -7.097656 4.421875 -6.984375 C 4.671875 -6.878906 4.847656 -6.78125 4.953125 -6.6875 C 5.054688 -6.59375 5.140625 -6.5 5.203125 -6.40625 Z M 2.71875 -3.578125 C 2.71875 -3.273438 2.832031 -3.003906 3.0625 -2.765625 C 3.300781 -2.523438 3.585938 -2.40625 3.921875 -2.40625 C 4.265625 -2.40625 4.546875 -2.523438 4.765625 -2.765625 C 4.992188 -3.015625 5.109375 -3.285156 5.109375 -3.578125 C 5.109375 -3.878906 5 -4.15625 4.78125 -4.40625 C 4.570312 -4.664062 4.285156 -4.796875 3.921875 -4.796875 C 3.566406 -4.796875 3.273438 -4.664062 3.046875 -4.40625 C 2.828125 -4.15625 2.71875 -3.878906 2.71875 -3.578125 Z M 2.71875 -3.578125 "/></g></g></g><g fill="#ffffff" fill-opacity="1"><g transform="translate(55.857696, 55.687081)"><g><path d="M 0.59375 -0.640625 C 0.425781 -0.742188 0.34375 -0.914062 0.34375 -1.15625 C 0.34375 -1.394531 0.515625 -1.753906 0.859375 -2.234375 C 0.953125 -2.390625 1.109375 -2.46875 1.328125 -2.46875 C 1.554688 -2.46875 1.859375 -2.351562 2.234375 -2.125 C 2.617188 -1.90625 2.96875 -1.796875 3.28125 -1.796875 C 3.832031 -1.796875 4.109375 -1.90625 4.109375 -2.125 C 4.109375 -2.289062 3.804688 -2.414062 3.203125 -2.5 C 2.628906 -2.582031 2.0625 -2.796875 1.5 -3.140625 C 1.238281 -3.304688 1.019531 -3.5625 0.84375 -3.90625 C 0.664062 -4.257812 0.578125 -4.675781 0.578125 -5.15625 C 0.578125 -6.59375 1.5625 -7.3125 3.53125 -7.3125 C 4.175781 -7.3125 4.84375 -7.15625 5.53125 -6.84375 C 5.84375 -6.695312 6 -6.515625 6 -6.296875 C 6 -6.078125 5.898438 -5.804688 5.703125 -5.484375 C 5.503906 -5.171875 5.300781 -5.015625 5.09375 -5.015625 C 4.976562 -5.015625 4.773438 -5.082031 4.484375 -5.21875 C 4.191406 -5.363281 3.875 -5.4375 3.53125 -5.4375 C 2.988281 -5.4375 2.71875 -5.332031 2.71875 -5.125 C 2.71875 -4.851562 3.023438 -4.675781 3.640625 -4.59375 C 4.242188 -4.53125 4.828125 -4.359375 5.390625 -4.078125 C 5.648438 -3.953125 5.867188 -3.734375 6.046875 -3.421875 C 6.222656 -3.109375 6.3125 -2.710938 6.3125 -2.234375 C 6.3125 -1.765625 6.222656 -1.363281 6.046875 -1.03125 C 5.867188 -0.707031 5.625 -0.460938 5.3125 -0.296875 C 4.726562 -0.015625 4 0.125 3.125 0.125 C 2.25 0.125 1.40625 -0.128906 0.59375 -0.640625 Z M 0.59375 -0.640625 "/></g></g></g><g fill="#ffffff" fill-opacity="1"><g transform="translate(62.510727, 55.687081)"><g><path d="M 7.453125 -4.4375 C 7.453125 -3.882812 7.3125 -3.472656 7.03125 -3.203125 C 6.757812 -2.929688 6.457031 -2.796875 6.125 -2.796875 L 2.90625 -2.796875 C 2.90625 -2.546875 3.050781 -2.332031 3.34375 -2.15625 C 3.644531 -1.988281 3.945312 -1.90625 4.25 -1.90625 C 4.769531 -1.90625 5.179688 -1.957031 5.484375 -2.0625 L 5.640625 -2.125 C 5.847656 -2.21875 6.023438 -2.265625 6.171875 -2.265625 C 6.460938 -2.265625 6.710938 -2.0625 6.921875 -1.65625 C 7.046875 -1.414062 7.109375 -1.207031 7.109375 -1.03125 C 7.109375 -0.226562 6.140625 0.171875 4.203125 0.171875 C 3.535156 0.171875 2.941406 0.0546875 2.421875 -0.171875 C 1.898438 -0.398438 1.492188 -0.707031 1.203125 -1.09375 C 0.628906 -1.820312 0.34375 -2.640625 0.34375 -3.546875 C 0.34375 -4.691406 0.710938 -5.609375 1.453125 -6.296875 C 2.191406 -6.984375 3.113281 -7.328125 4.21875 -7.328125 C 5.476562 -7.328125 6.40625 -6.878906 7 -5.984375 C 7.300781 -5.515625 7.453125 -5 7.453125 -4.4375 Z M 4.59375 -4.046875 C 4.9375 -4.046875 5.109375 -4.191406 5.109375 -4.484375 C 5.109375 -4.691406 5.023438 -4.859375 4.859375 -4.984375 C 4.703125 -5.109375 4.476562 -5.171875 4.1875 -5.171875 C 3.894531 -5.171875 3.601562 -5.050781 3.3125 -4.8125 C 3.019531 -4.570312 2.875 -4.316406 2.875 -4.046875 Z M 4.59375 -4.046875 "/></g></g></g><g fill="#ffffff" fill-opacity="1"><g transform="translate(18.667397, 69.199844)"><g><path d="M 4.703125 -4.765625 L 3.828125 -4.8125 L 3.828125 -2.9375 C 3.828125 -2.695312 3.863281 -2.519531 3.9375 -2.40625 C 4.019531 -2.300781 4.164062 -2.25 4.375 -2.25 C 4.582031 -2.25 4.742188 -2.238281 4.859375 -2.21875 C 4.972656 -2.207031 5.09375 -2.164062 5.21875 -2.09375 C 5.425781 -1.976562 5.53125 -1.675781 5.53125 -1.1875 C 5.53125 -0.613281 5.40625 -0.265625 5.15625 -0.140625 C 5.019531 -0.078125 4.898438 -0.0351562 4.796875 -0.015625 C 4.691406 -0.00390625 4.539062 0 4.34375 0 C 3.394531 0 2.675781 -0.210938 2.1875 -0.640625 C 1.695312 -1.066406 1.453125 -1.785156 1.453125 -2.796875 L 1.453125 -4.8125 C 1.285156 -4.789062 1.097656 -4.78125 0.890625 -4.78125 C 0.691406 -4.78125 0.523438 -4.851562 0.390625 -5 C 0.265625 -5.15625 0.203125 -5.421875 0.203125 -5.796875 C 0.203125 -6.171875 0.222656 -6.441406 0.265625 -6.609375 C 0.316406 -6.773438 0.382812 -6.894531 0.46875 -6.96875 C 0.613281 -7.082031 0.789062 -7.140625 1 -7.140625 L 1.453125 -7.09375 L 1.453125 -8.5 C 1.453125 -8.707031 1.457031 -8.859375 1.46875 -8.953125 C 1.488281 -9.054688 1.535156 -9.164062 1.609375 -9.28125 C 1.722656 -9.507812 2.070312 -9.625 2.65625 -9.625 C 3.269531 -9.625 3.632812 -9.457031 3.75 -9.125 C 3.800781 -8.976562 3.828125 -8.742188 3.828125 -8.421875 L 3.828125 -7.09375 C 4.222656 -7.125 4.519531 -7.140625 4.71875 -7.140625 C 4.925781 -7.140625 5.082031 -7.132812 5.1875 -7.125 C 5.289062 -7.113281 5.410156 -7.070312 5.546875 -7 C 5.785156 -6.875 5.90625 -6.523438 5.90625 -5.953125 C 5.90625 -5.378906 5.78125 -5.03125 5.53125 -4.90625 C 5.394531 -4.832031 5.273438 -4.789062 5.171875 -4.78125 C 5.066406 -4.769531 4.910156 -4.765625 4.703125 -4.765625 Z M 4.703125 -4.765625 "/></g></g></g><g fill="#ffffff" fill-opacity="1"><g transform="translate(24.776213, 69.199844)"><g><path d="M 5.40625 -7.09375 C 5.582031 -7.039062 5.726562 -6.945312 5.84375 -6.8125 C 5.957031 -6.675781 6.015625 -6.460938 6.015625 -6.171875 C 6.015625 -5.890625 5.925781 -5.570312 5.75 -5.21875 C 5.582031 -4.875 5.335938 -4.703125 5.015625 -4.703125 C 4.847656 -4.703125 4.6875 -4.738281 4.53125 -4.8125 C 4.382812 -4.882812 4.1875 -4.921875 3.9375 -4.921875 C 3.695312 -4.921875 3.46875 -4.832031 3.25 -4.65625 C 3.039062 -4.488281 2.9375 -4.285156 2.9375 -4.046875 L 2.9375 -1.1875 C 2.9375 -0.976562 2.929688 -0.820312 2.921875 -0.71875 C 2.910156 -0.613281 2.867188 -0.492188 2.796875 -0.359375 C 2.648438 -0.117188 2.296875 0 1.734375 0 C 1.296875 0 0.984375 -0.078125 0.796875 -0.234375 C 0.648438 -0.359375 0.566406 -0.550781 0.546875 -0.8125 C 0.546875 -0.90625 0.546875 -1.039062 0.546875 -1.21875 L 0.546875 -5.984375 C 0.546875 -6.191406 0.550781 -6.347656 0.5625 -6.453125 C 0.570312 -6.554688 0.613281 -6.675781 0.6875 -6.8125 C 0.8125 -7.050781 1.160156 -7.171875 1.734375 -7.171875 C 2.285156 -7.171875 2.628906 -7.066406 2.765625 -6.859375 C 2.859375 -6.710938 2.90625 -6.5625 2.90625 -6.40625 C 2.957031 -6.46875 3.023438 -6.546875 3.109375 -6.640625 C 3.191406 -6.734375 3.375 -6.851562 3.65625 -7 C 3.9375 -7.15625 4.179688 -7.234375 4.390625 -7.234375 C 4.609375 -7.234375 4.789062 -7.222656 4.9375 -7.203125 C 5.082031 -7.179688 5.238281 -7.144531 5.40625 -7.09375 Z M 5.40625 -7.09375 "/></g></g></g><g fill="#ffffff" fill-opacity="1"><g transform="translate(30.993872, 69.199844)"><g><path d="M 7.21875 -7.09375 C 7.75 -6.851562 8.015625 -6.566406 8.015625 -6.234375 C 8.015625 -6.066406 7.976562 -5.910156 7.90625 -5.765625 C 7.832031 -5.617188 7.796875 -5.539062 7.796875 -5.53125 L 4.234375 2.4375 C 4.160156 2.601562 4.097656 2.734375 4.046875 2.828125 C 3.992188 2.921875 3.910156 3.007812 3.796875 3.09375 C 3.691406 3.175781 3.554688 3.21875 3.390625 3.21875 C 3.234375 3.21875 3 3.144531 2.6875 3 C 2.144531 2.769531 1.875 2.488281 1.875 2.15625 C 1.875 1.945312 2.3125 0.910156 3.1875 -0.953125 L 0.46875 -5.515625 C 0.289062 -5.804688 0.203125 -6.023438 0.203125 -6.171875 C 0.203125 -6.460938 0.445312 -6.753906 0.9375 -7.046875 C 1.25 -7.234375 1.488281 -7.328125 1.65625 -7.328125 C 1.832031 -7.328125 1.972656 -7.289062 2.078125 -7.21875 C 2.191406 -7.144531 2.269531 -7.066406 2.3125 -6.984375 C 2.363281 -6.910156 2.613281 -6.488281 3.0625 -5.71875 C 3.519531 -4.957031 3.953125 -4.242188 4.359375 -3.578125 C 4.398438 -3.722656 4.640625 -4.28125 5.078125 -5.25 C 5.523438 -6.226562 5.765625 -6.75 5.796875 -6.8125 C 5.835938 -6.875 5.890625 -6.953125 5.953125 -7.046875 C 6.078125 -7.203125 6.242188 -7.28125 6.453125 -7.28125 C 6.671875 -7.28125 6.925781 -7.21875 7.21875 -7.09375 Z M 7.21875 -7.09375 "/></g></g></g><g fill="#ffffff" fill-opacity="1"><g transform="translate(39.211521, 69.199844)"><g/></g></g><g fill="#ffffff" fill-opacity="1"><g transform="translate(42.653684, 69.199844)"><g><path d="M 5.203125 -6.40625 C 5.253906 -6.914062 5.613281 -7.171875 6.28125 -7.171875 C 6.632812 -7.171875 6.894531 -7.144531 7.0625 -7.09375 C 7.238281 -7.039062 7.359375 -6.941406 7.421875 -6.796875 C 7.492188 -6.660156 7.535156 -6.539062 7.546875 -6.4375 C 7.554688 -6.332031 7.5625 -6.175781 7.5625 -5.96875 L 7.5625 -1.21875 C 7.5625 -1 7.554688 -0.835938 7.546875 -0.734375 C 7.535156 -0.628906 7.5 -0.507812 7.4375 -0.375 C 7.300781 -0.144531 6.984375 -0.03125 6.484375 -0.03125 C 5.992188 -0.03125 5.664062 -0.0859375 5.5 -0.203125 C 5.332031 -0.328125 5.238281 -0.507812 5.21875 -0.75 C 4.875 -0.269531 4.3125 -0.03125 3.53125 -0.03125 C 2.75 -0.03125 2.019531 -0.382812 1.34375 -1.09375 C 0.675781 -1.8125 0.34375 -2.644531 0.34375 -3.59375 C 0.34375 -4.539062 0.679688 -5.367188 1.359375 -6.078125 C 2.035156 -6.796875 2.773438 -7.15625 3.578125 -7.15625 C 3.890625 -7.15625 4.171875 -7.097656 4.421875 -6.984375 C 4.671875 -6.878906 4.847656 -6.78125 4.953125 -6.6875 C 5.054688 -6.59375 5.140625 -6.5 5.203125 -6.40625 Z M 2.71875 -3.578125 C 2.71875 -3.273438 2.832031 -3.003906 3.0625 -2.765625 C 3.300781 -2.523438 3.585938 -2.40625 3.921875 -2.40625 C 4.265625 -2.40625 4.546875 -2.523438 4.765625 -2.765625 C 4.992188 -3.015625 5.109375 -3.285156 5.109375 -3.578125 C 5.109375 -3.878906 5 -4.15625 4.78125 -4.40625 C 4.570312 -4.664062 4.285156 -4.796875 3.921875 -4.796875 C 3.566406 -4.796875 3.273438 -4.664062 3.046875 -4.40625 C 2.828125 -4.15625 2.71875 -3.878906 2.71875 -3.578125 Z M 2.71875 -3.578125 "/></g></g></g><g fill="#ffffff" fill-opacity="1"><g transform="translate(50.762492, 69.199844)"><g><path d="M 5.09375 -0.890625 C 4.75 -0.441406 4.195312 -0.21875 3.4375 -0.21875 C 2.6875 -0.21875 1.984375 -0.5625 1.328125 -1.25 C 0.671875 -1.945312 0.34375 -2.757812 0.34375 -3.6875 C 0.34375 -4.613281 0.671875 -5.425781 1.328125 -6.125 C 1.992188 -6.820312 2.722656 -7.171875 3.515625 -7.171875 C 3.816406 -7.171875 4.09375 -7.113281 4.34375 -7 C 4.601562 -6.882812 4.78125 -6.78125 4.875 -6.6875 C 4.96875 -6.59375 5.046875 -6.503906 5.109375 -6.421875 C 5.128906 -6.679688 5.21875 -6.875 5.375 -7 C 5.539062 -7.132812 5.800781 -7.203125 6.15625 -7.203125 C 6.507812 -7.203125 6.765625 -7.171875 6.921875 -7.109375 C 7.085938 -7.054688 7.203125 -6.960938 7.265625 -6.828125 C 7.335938 -6.703125 7.378906 -6.585938 7.390625 -6.484375 C 7.410156 -6.390625 7.421875 -6.238281 7.421875 -6.03125 L 7.421875 -0.390625 C 7.421875 0.648438 7.054688 1.488281 6.328125 2.125 C 5.597656 2.769531 4.78125 3.09375 3.875 3.09375 C 3.1875 3.09375 2.53125 2.921875 1.90625 2.578125 C 1.28125 2.242188 0.96875 1.941406 0.96875 1.671875 C 0.96875 1.316406 1.101562 1.003906 1.375 0.734375 C 1.550781 0.546875 1.6875 0.414062 1.78125 0.34375 C 1.875 0.269531 1.984375 0.234375 2.109375 0.234375 C 2.234375 0.234375 2.363281 0.285156 2.5 0.390625 C 2.9375 0.722656 3.410156 0.890625 3.921875 0.890625 C 4.265625 0.890625 4.546875 0.753906 4.765625 0.484375 C 4.984375 0.210938 5.09375 -0.109375 5.09375 -0.484375 Z M 2.671875 -3.671875 C 2.671875 -3.378906 2.785156 -3.113281 3.015625 -2.875 C 3.242188 -2.644531 3.523438 -2.53125 3.859375 -2.53125 C 4.191406 -2.53125 4.46875 -2.648438 4.6875 -2.890625 C 4.90625 -3.128906 5.015625 -3.390625 5.015625 -3.671875 C 5.015625 -3.960938 4.90625 -4.234375 4.6875 -4.484375 C 4.476562 -4.734375 4.195312 -4.859375 3.84375 -4.859375 C 3.5 -4.859375 3.21875 -4.734375 3 -4.484375 C 2.78125 -4.242188 2.671875 -3.972656 2.671875 -3.671875 Z M 2.671875 -3.671875 "/></g></g></g><g fill="#ffffff" fill-opacity="1"><g transform="translate(58.721639, 69.199844)"><g><path d="M 5.203125 -6.40625 C 5.253906 -6.914062 5.613281 -7.171875 6.28125 -7.171875 C 6.632812 -7.171875 6.894531 -7.144531 7.0625 -7.09375 C 7.238281 -7.039062 7.359375 -6.941406 7.421875 -6.796875 C 7.492188 -6.660156 7.535156 -6.539062 7.546875 -6.4375 C 7.554688 -6.332031 7.5625 -6.175781 7.5625 -5.96875 L 7.5625 -1.21875 C 7.5625 -1 7.554688 -0.835938 7.546875 -0.734375 C 7.535156 -0.628906 7.5 -0.507812 7.4375 -0.375 C 7.300781 -0.144531 6.984375 -0.03125 6.484375 -0.03125 C 5.992188 -0.03125 5.664062 -0.0859375 5.5 -0.203125 C 5.332031 -0.328125 5.238281 -0.507812 5.21875 -0.75 C 4.875 -0.269531 4.3125 -0.03125 3.53125 -0.03125 C 2.75 -0.03125 2.019531 -0.382812 1.34375 -1.09375 C 0.675781 -1.8125 0.34375 -2.644531 0.34375 -3.59375 C 0.34375 -4.539062 0.679688 -5.367188 1.359375 -6.078125 C 2.035156 -6.796875 2.773438 -7.15625 3.578125 -7.15625 C 3.890625 -7.15625 4.171875 -7.097656 4.421875 -6.984375 C 4.671875 -6.878906 4.847656 -6.78125 4.953125 -6.6875 C 5.054688 -6.59375 5.140625 -6.5 5.203125 -6.40625 Z M 2.71875 -3.578125 C 2.71875 -3.273438 2.832031 -3.003906 3.0625 -2.765625 C 3.300781 -2.523438 3.585938 -2.40625 3.921875 -2.40625 C 4.265625 -2.40625 4.546875 -2.523438 4.765625 -2.765625 C 4.992188 -3.015625 5.109375 -3.285156 5.109375 -3.578125 C 5.109375 -3.878906 5 -4.15625 4.78125 -4.40625 C 4.570312 -4.664062 4.285156 -4.796875 3.921875 -4.796875 C 3.566406 -4.796875 3.273438 -4.664062 3.046875 -4.40625 C 2.828125 -4.15625 2.71875 -3.878906 2.71875 -3.578125 Z M 2.71875 -3.578125 "/></g></g></g><g fill="#ffffff" fill-opacity="1"><g transform="translate(66.830446, 69.199844)"><g><path d="M 0.546875 -5.96875 C 0.546875 -6.175781 0.550781 -6.332031 0.5625 -6.4375 C 0.570312 -6.539062 0.613281 -6.664062 0.6875 -6.8125 C 0.8125 -7.039062 1.160156 -7.15625 1.734375 -7.15625 C 2.171875 -7.15625 2.484375 -7.078125 2.671875 -6.921875 C 2.828125 -6.796875 2.90625 -6.601562 2.90625 -6.34375 C 2.914062 -6.25 2.921875 -6.117188 2.921875 -5.953125 L 2.921875 -1.1875 C 2.921875 -0.976562 2.914062 -0.820312 2.90625 -0.71875 C 2.894531 -0.613281 2.851562 -0.492188 2.78125 -0.359375 C 2.65625 -0.117188 2.304688 0 1.734375 0 C 1.160156 0 0.8125 -0.125 0.6875 -0.375 C 0.613281 -0.507812 0.570312 -0.625 0.5625 -0.71875 C 0.550781 -0.820312 0.546875 -0.984375 0.546875 -1.203125 Z M 2.78125 -8.5 C 2.71875 -8.363281 2.597656 -8.269531 2.421875 -8.21875 C 2.242188 -8.164062 2.015625 -8.140625 1.734375 -8.140625 C 1.453125 -8.140625 1.222656 -8.164062 1.046875 -8.21875 C 0.878906 -8.269531 0.757812 -8.363281 0.6875 -8.5 C 0.613281 -8.632812 0.570312 -8.753906 0.5625 -8.859375 C 0.550781 -8.960938 0.546875 -9.117188 0.546875 -9.328125 C 0.546875 -9.546875 0.550781 -9.707031 0.5625 -9.8125 C 0.570312 -9.914062 0.613281 -10.03125 0.6875 -10.15625 C 0.8125 -10.394531 1.160156 -10.515625 1.734375 -10.515625 C 2.304688 -10.515625 2.65625 -10.394531 2.78125 -10.15625 C 2.851562 -10.019531 2.894531 -9.898438 2.90625 -9.796875 C 2.914062 -9.691406 2.921875 -9.535156 2.921875 -9.328125 C 2.921875 -9.117188 2.914062 -8.960938 2.90625 -8.859375 C 2.894531 -8.753906 2.851562 -8.632812 2.78125 -8.5 Z M 2.78125 -8.5 "/></g></g></g><g fill="#ffffff" fill-opacity="1"><g transform="translate(70.299819, 69.199844)"><g><path d="M 4.53125 -7.171875 C 5.4375 -7.171875 6.191406 -6.820312 6.796875 -6.125 C 7.398438 -5.4375 7.703125 -4.59375 7.703125 -3.59375 L 7.703125 -1.203125 C 7.703125 -0.992188 7.691406 -0.835938 7.671875 -0.734375 C 7.660156 -0.628906 7.625 -0.507812 7.5625 -0.375 C 7.4375 -0.132812 7.082031 -0.015625 6.5 -0.015625 C 5.851562 -0.015625 5.484375 -0.179688 5.390625 -0.515625 C 5.335938 -0.671875 5.3125 -0.90625 5.3125 -1.21875 L 5.3125 -3.609375 C 5.3125 -3.984375 5.203125 -4.273438 4.984375 -4.484375 C 4.773438 -4.691406 4.488281 -4.796875 4.125 -4.796875 C 3.769531 -4.796875 3.476562 -4.6875 3.25 -4.46875 C 3.03125 -4.25 2.921875 -3.960938 2.921875 -3.609375 L 2.921875 -1.203125 C 2.921875 -0.992188 2.914062 -0.835938 2.90625 -0.734375 C 2.894531 -0.628906 2.851562 -0.507812 2.78125 -0.375 C 2.65625 -0.132812 2.304688 -0.015625 1.734375 -0.015625 C 1.160156 -0.015625 0.8125 -0.132812 0.6875 -0.375 C 0.613281 -0.507812 0.570312 -0.628906 0.5625 -0.734375 C 0.550781 -0.835938 0.546875 -1 0.546875 -1.21875 L 0.546875 -6.03125 C 0.546875 -6.226562 0.550781 -6.378906 0.5625 -6.484375 C 0.570312 -6.585938 0.613281 -6.703125 0.6875 -6.828125 C 0.820312 -7.054688 1.171875 -7.171875 1.734375 -7.171875 C 2.296875 -7.171875 2.640625 -7.066406 2.765625 -6.859375 C 2.859375 -6.703125 2.90625 -6.515625 2.90625 -6.296875 C 2.9375 -6.359375 3.015625 -6.445312 3.140625 -6.5625 C 3.265625 -6.6875 3.390625 -6.785156 3.515625 -6.859375 C 3.816406 -7.066406 4.15625 -7.171875 4.53125 -7.171875 Z M 4.53125 -7.171875 "/></g></g></g><g clip-path="url(#d471c50633)"><g clip-path="url(#eba9fb7478)"><g clip-path="url(#dedf863ab4)"><g clip-path="url(#40c48c4427)"><g clip-path="url(#091adab88a)"><path fill="#dadada" d="M 55.183594 231.230469 C 59.621094 231.828125 66.035156 228.996094 69.839844 236.488281 C 73.714844 244.125 63.148438 249.511719 58.214844 253.070312 C 55.59375 254.964844 46.5625 265.035156 40.414062 261.339844 C 35.03125 258.105469 35.652344 252.695312 37.390625 245.554688 C 38.945312 239.175781 35.9375 232.871094 40.679688 229.300781 C 45.121094 225.957031 52.464844 230.863281 55.183594 231.230469 " fill-opacity="1" fill-rule="nonzero"/></g></g></g></g></g><g clip-path="url(#0d7fec48af)"><g clip-path="url(#efa05a5472)"><g clip-path="url(#37f1a66a8e)"><path fill="#dadada" d="M 56.09375 214.722656 C 55.746094 219.621094 58.09375 223.683594 61.332031 223.800781 C 64.566406 223.917969 67.472656 220.046875 67.816406 215.15625 C 68.160156 210.261719 65.816406 206.195312 62.578125 206.078125 C 59.34375 205.957031 56.4375 209.832031 56.09375 214.722656 " fill-opacity="1" fill-rule="nonzero"/></g></g></g><g clip-path="url(#a10bbf198d)"><g clip-path="url(#3a983d8653)"><g clip-path="url(#ea8aa0843f)"><path fill="#dadada" d="M 36.453125 215.226562 C 38.4375 220.367188 42.671875 223.46875 45.914062 222.152344 C 49.160156 220.835938 50.179688 215.605469 48.199219 210.464844 C 46.21875 205.324219 41.984375 202.226562 38.738281 203.539062 C 35.496094 204.855469 34.472656 210.089844 36.453125 215.226562 " fill-opacity="1" fill-rule="nonzero"/></g></g></g><g clip-path="url(#bb8c13e0f1)"><g clip-path="url(#a623d90142)"><g clip-path="url(#c429a197e1)"><path fill="#dadada" d="M 21.671875 229.46875 C 26.066406 232.613281 31.289062 232.96875 33.335938 230.257812 C 35.386719 227.550781 33.484375 222.804688 29.09375 219.660156 C 24.699219 216.515625 19.476562 216.160156 17.425781 218.867188 C 15.378906 221.578125 17.277344 226.324219 21.671875 229.46875 " fill-opacity="1" fill-rule="nonzero"/></g></g></g><g clip-path="url(#2a87e17a7d)"><g clip-path="url(#e547db6f6f)"><g clip-path="url(#26799f94eb)"><path fill="#dadada" d="M 20.574219 251.246094 C 25.699219 252.296875 30.496094 250.457031 31.292969 247.136719 C 32.089844 243.820312 28.582031 240.277344 23.460938 239.226562 C 18.335938 238.175781 13.535156 240.019531 12.738281 243.335938 C 11.941406 246.65625 15.453125 250.195312 20.574219 251.246094 " fill-opacity="1" fill-rule="nonzero"/></g></g></g></svg>