<svg xmlns="http://www.w3.org/2000/svg" xmlns:xlink="http://www.w3.org/1999/xlink" width="400" zoomAndPan="magnify" viewBox="0 0 300 299.999988" height="400" preserveAspectRatio="xMidYMid meet" version="1.0"><defs><clipPath id="9ebe5efec2"><path d="M 109 138 L 230 138 L 230 239 L 109 239 Z M 109 138 " clip-rule="nonzero"/></clipPath><clipPath id="6732646453"><path d="M 26.296875 100.804688 L 226.058594 41.070312 L 273.328125 199.152344 L 73.570312 258.886719 Z M 26.296875 100.804688 " clip-rule="nonzero"/></clipPath><clipPath id="2fae1d19be"><path d="M 26.296875 100.804688 L 226.058594 41.070312 L 273.328125 199.152344 L 73.570312 258.886719 Z M 26.296875 100.804688 " clip-rule="nonzero"/></clipPath><clipPath id="a160cb0dca"><path d="M 91.496094 156.8125 L 208.90625 121.703125 L 235.488281 210.597656 L 118.074219 245.707031 Z M 91.496094 156.8125 " clip-rule="nonzero"/></clipPath><clipPath id="0de1751500"><path d="M 91.496094 156.8125 L 208.90625 121.703125 L 235.480469 210.582031 L 118.070312 245.691406 Z M 91.496094 156.8125 " clip-rule="nonzero"/></clipPath><clipPath id="9471d2e157"><path d="M 47 146 L 99 146 L 99 189 L 47 189 Z M 47 146 " clip-rule="nonzero"/></clipPath><clipPath id="ff87615d6f"><path d="M 26.296875 100.804688 L 226.058594 41.070312 L 273.328125 199.152344 L 73.570312 258.886719 Z M 26.296875 100.804688 " clip-rule="nonzero"/></clipPath><clipPath id="1513d9e61e"><path d="M 26.296875 100.804688 L 226.058594 41.070312 L 273.328125 199.152344 L 73.570312 258.886719 Z M 26.296875 100.804688 " clip-rule="nonzero"/></clipPath><clipPath id="c1f13fa4ba"><path d="M 79 86 L 128 86 L 128 143 L 79 143 Z M 79 86 " clip-rule="nonzero"/></clipPath><clipPath id="9e605ac8fc"><path d="M 26.296875 100.804688 L 226.058594 41.070312 L 273.328125 199.152344 L 73.570312 258.886719 Z M 26.296875 100.804688 " clip-rule="nonzero"/></clipPath><clipPath id="441579dfe8"><path d="M 26.296875 100.804688 L 226.058594 41.070312 L 273.328125 199.152344 L 73.570312 258.886719 Z M 26.296875 100.804688 " clip-rule="nonzero"/></clipPath><clipPath id="916e8f2b7b"><path d="M 144 62 L 183 62 L 183 124 L 144 124 Z M 144 62 " clip-rule="nonzero"/></clipPath><clipPath id="585a32e7aa"><path d="M 26.296875 100.804688 L 226.058594 41.070312 L 273.328125 199.152344 L 73.570312 258.886719 Z M 26.296875 100.804688 " clip-rule="nonzero"/></clipPath><clipPath id="0cfdcde2bc"><path d="M 26.296875 100.804688 L 226.058594 41.070312 L 273.328125 199.152344 L 73.570312 258.886719 Z M 26.296875 100.804688 " clip-rule="nonzero"/></clipPath><clipPath id="81668676af"><path d="M 200 94 L 244 94 L 244 150 L 200 150 Z M 200 94 " clip-rule="nonzero"/></clipPath><clipPath id="18ba074680"><path d="M 26.296875 100.804688 L 226.058594 41.070312 L 273.328125 199.152344 L 73.570312 258.886719 Z M 26.296875 100.804688 " clip-rule="nonzero"/></clipPath><clipPath id="e2ea8ccf0f"><path d="M 26.296875 100.804688 L 226.058594 41.070312 L 273.328125 199.152344 L 73.570312 258.886719 Z M 26.296875 100.804688 " clip-rule="nonzero"/></clipPath></defs><rect x="-30" width="360" fill="#ffffff" y="-29.999999" height="359.999986" fill-opacity="1"/><g clip-path="url(#9ebe5efec2)"><g clip-path="url(#6732646453)"><g clip-path="url(#2fae1d19be)"><g clip-path="url(#a160cb0dca)"><g clip-path="url(#0de1751500)"><path fill="#ededef" d="M 126.582031 179.894531 C 120.039062 192.140625 101.292969 203.128906 113.230469 226.277344 C 125.40625 249.875 158.101562 233.074219 175.992188 227.121094 C 185.507812 223.960938 227.207031 219.519531 229.066406 197.351562 C 230.691406 177.960938 215.96875 169.707031 194.855469 161.136719 C 175.996094 153.476562 165.605469 134.484375 148.027344 139.933594 C 131.566406 145.035156 130.585938 172.390625 126.582031 179.894531 " fill-opacity="1" fill-rule="nonzero"/></g></g></g></g></g><g clip-path="url(#9471d2e157)"><g clip-path="url(#ff87615d6f)"><g clip-path="url(#1513d9e61e)"><path fill="#ededef" d="M 83.429688 152.253906 C 96.367188 160.261719 102.332031 173.523438 96.757812 181.878906 C 91.183594 190.234375 76.1875 190.515625 63.257812 182.511719 C 50.328125 174.503906 44.363281 161.238281 49.929688 152.886719 C 55.503906 144.53125 70.5 144.25 83.429688 152.253906 " fill-opacity="1" fill-rule="nonzero"/></g></g></g><g clip-path="url(#c1f13fa4ba)"><g clip-path="url(#9e605ac8fc)"><g clip-path="url(#441579dfe8)"><path fill="#ededef" d="M 120.308594 103.792969 C 129.636719 118.09375 129.75 134.367188 120.566406 140.128906 C 111.375 145.902344 96.367188 138.988281 87.039062 124.683594 C 77.707031 110.386719 77.59375 94.117188 86.78125 88.34375 C 95.96875 82.578125 110.980469 89.496094 120.308594 103.792969 " fill-opacity="1" fill-rule="nonzero"/></g></g></g><g clip-path="url(#916e8f2b7b)"><g clip-path="url(#585a32e7aa)"><g clip-path="url(#0cfdcde2bc)"><path fill="#ededef" d="M 182.917969 92.453125 C 182.859375 109.199219 174.273438 122.976562 163.75 123.210938 C 153.230469 123.449219 144.742188 110.066406 144.800781 93.316406 C 144.859375 76.5625 153.4375 62.792969 163.964844 62.550781 C 174.488281 62.308594 182.976562 75.695312 182.917969 92.453125 " fill-opacity="1" fill-rule="nonzero"/></g></g></g><g clip-path="url(#81668676af)"><g clip-path="url(#18ba074680)"><g clip-path="url(#e2ea8ccf0f)"><path fill="#ededef" d="M 239.660156 129.179688 C 233.007812 143.964844 219.683594 152.691406 209.894531 148.675781 C 200.109375 144.660156 197.5625 129.421875 204.210938 114.632812 C 210.859375 99.851562 224.1875 91.121094 233.980469 95.136719 C 243.769531 99.148438 246.3125 114.390625 239.660156 129.179688 " fill-opacity="1" fill-rule="nonzero"/></g></g></g></svg>