<svg xmlns="http://www.w3.org/2000/svg" xmlns:xlink="http://www.w3.org/1999/xlink" width="1920" zoomAndPan="magnify" viewBox="0 0 1440 809.999993" height="1080" preserveAspectRatio="xMidYMid meet" version="1.0"><defs><clipPath id="25d2c10927"><path d="M 923 632 L 955 632 L 955 681.75 L 923 681.75 Z M 923 632 " clip-rule="nonzero"/></clipPath><clipPath id="6e7e48970b"><path d="M 1020 635 L 1054 635 L 1054 681.75 L 1020 681.75 Z M 1020 635 " clip-rule="nonzero"/></clipPath></defs><path fill="#595658" d="M 633.960938 241.808594 C 631.660156 244.96875 629.269531 248.375 627.339844 251.964844 C 626.355469 244.773438 625.050781 237.644531 623.289062 230.613281 C 622.617188 227.941406 618.710938 229.945312 619.21875 232.277344 C 625.300781 260.304688 625.496094 288.929688 626.371094 317.472656 C 627.261719 346.367188 627.855469 375.257812 628.207031 404.167969 C 628.914062 462.292969 629.871094 520.429688 630.285156 578.5625 C 630.519531 611.722656 629.859375 644.839844 626.507812 677.851562 C 626.191406 680.941406 630.28125 680.859375 630.621094 677.996094 C 637.5 620.160156 634.476562 561.269531 633.765625 503.175781 C 633.050781 444.242188 632.785156 385.285156 631.019531 326.375 C 630.359375 304.261719 630.632812 281.558594 628.238281 259.335938 C 631.335938 254.410156 633.902344 249.203125 637.34375 244.449219 C 639.109375 242.007812 635.863281 239.203125 633.960938 241.808594 " fill-opacity="1" fill-rule="nonzero"/><path fill="#2a313a" d="M 463.089844 624.128906 C 463.089844 624.550781 461.40625 677.660156 462.667969 679.34375 C 463.933594 681.027344 507.761719 679.90625 509.308594 677.660156 C 510.855469 675.410156 491.953125 658.410156 482.296875 663.890625 C 482.476562 658.410156 481.695312 628.765625 482.296875 626.09375 C 482.898438 623.425781 463.089844 624.128906 463.089844 624.128906 " fill-opacity="1" fill-rule="nonzero"/><path fill="#2a313a" d="M 526.117188 624.128906 C 526.117188 624.550781 524.433594 677.660156 525.695312 679.34375 C 526.960938 681.027344 570.789062 679.90625 572.335938 677.660156 C 573.882812 675.410156 554.980469 658.410156 545.324219 663.890625 C 545.503906 658.410156 544.726562 628.765625 545.324219 626.09375 C 545.925781 623.425781 526.117188 624.128906 526.117188 624.128906 " fill-opacity="1" fill-rule="nonzero"/><path fill="#4b4d37" d="M 461.289062 381.414062 C 461.289062 381.414062 452.71875 415.132812 465.429688 430.097656 C 466.765625 477.097656 456.707031 502.597656 461.945312 510.394531 C 467.1875 518.191406 467.890625 516.503906 465.429688 521.984375 C 462.972656 527.464844 466.792969 530.835938 466.792969 530.835938 C 466.792969 530.835938 451.636719 612.609375 458.464844 622.089844 C 465.292969 631.574219 483.625 626.515625 488.890625 627.78125 C 494.160156 629.046875 500.058594 544.113281 503.21875 541.375 C 506.382812 538.636719 508.277344 520.25 507.433594 517.21875 C 506.59375 514.1875 507.632812 464.578125 507.632812 464.578125 C 507.632812 464.578125 517.546875 515.398438 514.808594 519.851562 C 512.070312 524.304688 521.339844 535.050781 521.339844 536.949219 C 521.339844 538.84375 517.96875 542.636719 519.65625 547.484375 C 521.339844 552.332031 516.074219 620.191406 519.65625 626.304688 C 523.238281 632.417969 541.992188 626.789062 548.945312 628.023438 C 555.898438 629.253906 559.691406 545.378906 557.796875 538.425781 C 555.898438 531.46875 557.796875 524.460938 556.742188 519.851562 C 555.6875 515.242188 553.582031 510.386719 554.847656 508.808594 C 556.109375 507.230469 556.53125 504.914062 556.742188 493.742188 C 556.953125 482.574219 558.21875 453.492188 556.53125 449.910156 C 554.847656 446.328125 552.738281 445.273438 552.738281 445.273438 C 552.738281 445.273438 545.476562 392.648438 543.734375 384.714844 C 541.992188 376.78125 461.289062 381.414062 461.289062 381.414062 " fill-opacity="1" fill-rule="nonzero"/><path fill="#a73744" d="M 479.621094 173.828125 C 479.621094 173.828125 461.917969 198.695312 463.183594 205.230469 C 464.449219 211.761719 501.34375 212.300781 501.070312 206.0625 C 500.796875 199.816406 495.84375 179.730469 479.621094 173.828125 " fill-opacity="1" fill-rule="nonzero"/><path fill="#dc817a" d="M 533.300781 149.007812 C 535.53125 148.183594 547.613281 145.9375 547.894531 144.460938 C 548.171875 142.984375 538.765625 138.914062 539.605469 138.421875 C 540.445312 137.925781 558.359375 134.628906 558.007812 132.941406 C 557.65625 131.253906 546.769531 129.777344 546.769531 129.777344 C 546.769531 129.777344 556.179688 125.144531 555.617188 124.089844 C 555.058594 123.035156 528.226562 126.828125 526.257812 129.570312 C 524.292969 132.308594 533.300781 149.007812 533.300781 149.007812 " fill-opacity="1" fill-rule="nonzero"/><path fill="#dc817a" d="M 539.578125 158.589844 C 539.46875 157.640625 538.988281 156.730469 538.519531 155.914062 C 537.414062 153.992188 536.386719 152.25 536.007812 150.023438 C 535.835938 149.007812 534.507812 149.242188 534.441406 150.195312 C 534.304688 152.152344 534.523438 154 535.167969 155.859375 C 535.4375 156.640625 536.183594 157.652344 536.234375 158.472656 C 536.328125 159.859375 534.972656 160.730469 533.902344 161.328125 C 531.289062 162.78125 533.171875 167.277344 535.898438 165.128906 C 537.792969 163.636719 539.882812 161.207031 539.578125 158.589844 " fill-opacity="1" fill-rule="nonzero"/><path fill="#f9b084" d="M 489.59375 188.019531 C 489.59375 188.019531 491.28125 200.800781 490.578125 201.644531 C 489.875 202.488281 517.269531 208.953125 517.269531 208.25 C 517.269531 207.546875 515.300781 190.402344 515.300781 190.402344 C 515.300781 190.402344 530.894531 189.703125 532.582031 188.019531 C 534.265625 186.332031 537.496094 170.03125 536.933594 154.015625 C 536.375 138 529.066406 119.875 519.9375 116.359375 C 510.804688 112.851562 485.800781 134.207031 485.800781 134.207031 L 489.59375 188.019531 " fill-opacity="1" fill-rule="nonzero"/><path fill="#f9b084" d="M 617.78125 285.246094 C 617.78125 285.03125 617.78125 278.285156 618.832031 275.195312 C 619.886719 272.109375 632.671875 273.160156 635.550781 275.195312 C 638.429688 277.234375 636.324219 278.710938 636.113281 280.535156 C 635.902344 282.367188 637.238281 294.179688 634.425781 295.996094 C 631.617188 297.816406 616.515625 297.117188 616.515625 297.117188 L 617.78125 285.246094 " fill-opacity="1" fill-rule="nonzero"/><path fill="#d64553" d="M 465.429688 383.171875 C 466.835938 384.433594 497.882812 393.003906 516.988281 387.664062 C 536.09375 382.328125 547.050781 385.839844 547.613281 384.433594 C 548.171875 383.03125 540.589844 370.246094 544.800781 366.03125 C 549.015625 361.816406 551.476562 308.707031 550.421875 307.652344 C 549.367188 306.597656 556.675781 307.652344 556.675781 307.652344 C 556.675781 307.652344 559.796875 312.183594 564.855469 313.65625 C 569.914062 315.136719 594.25 310.183594 601.203125 307.753906 C 608.15625 305.332031 609.949219 301.03125 611.847656 299.917969 C 613.742188 298.800781 620.0625 299.324219 620.695312 298.59375 C 621.328125 297.851562 622.488281 287.523438 621.855469 284.996094 C 621.222656 282.46875 612.898438 284.363281 612.898438 283.625 C 612.898438 282.890625 612.792969 281.308594 610.160156 279.832031 C 607.527344 278.359375 582.238281 277.304688 580.554688 275.300781 C 578.867188 273.300781 574.125 272.5625 573.601562 272.351562 C 573.074219 272.140625 556.109375 258.230469 551.265625 246.21875 C 546.417969 234.207031 543.503906 218.117188 533.84375 216.679688 C 524.1875 215.238281 525.03125 212.496094 525.03125 212.496094 C 525.03125 212.496094 525.765625 208.703125 523.660156 205.652344 C 521.554688 202.59375 485.519531 196.269531 478.460938 198.902344 C 471.402344 201.539062 465.429688 383.171875 465.429688 383.171875 " fill-opacity="1" fill-rule="nonzero"/><path fill="#a73744" d="M 538.070312 372.179688 C 535.574219 371.480469 533.472656 372.121094 530.941406 372.570312 C 527.800781 373.128906 524.667969 373.703125 521.546875 374.355469 C 515.097656 375.707031 508.546875 377.847656 501.90625 377.625 C 501.089844 377.597656 500.859375 379 501.730469 379.101562 C 508.066406 379.832031 514.433594 378.988281 520.746094 378.347656 C 526.023438 377.808594 533.484375 378.082031 538.035156 375.308594 C 539.011719 374.714844 539.511719 372.585938 538.070312 372.179688 " fill-opacity="1" fill-rule="nonzero"/><path fill="#a73744" d="M 545.417969 299.539062 C 543.871094 295.546875 541.390625 292.308594 539.449219 288.476562 C 537.589844 284.816406 535.613281 281.222656 533.625 277.628906 C 529.410156 270.003906 524.863281 262.664062 519.929688 255.484375 C 518.195312 252.957031 514.859375 256.59375 516.410156 258.828125 C 517.117188 259.851562 517.808594 260.878906 518.507812 261.902344 C 517.785156 261.582031 517.066406 261.375 516.195312 261.550781 C 514.8125 261.835938 514.253906 263.75 515 264.839844 C 515.714844 265.882812 516.914062 266.152344 518.070312 266.523438 C 519.167969 266.875 520.269531 267.214844 521.363281 267.578125 C 521.710938 267.695312 522.03125 267.691406 522.316406 267.601562 C 529.523438 278.589844 537.238281 291.789062 543.96875 303.042969 C 544.429688 303.816406 545.671875 300.199219 545.417969 299.539062 " fill-opacity="1" fill-rule="nonzero"/><path fill="#2a313a" d="M 544.109375 296.785156 C 543.820312 296.203125 541.921875 341.722656 522.359375 348.324219 C 519.09375 350.433594 520.414062 359.988281 520.386719 359.566406 C 520.359375 359.144531 537.496094 348.746094 541.148438 337.507812 C 556.882812 336.527344 558.15625 309.519531 558.15625 309.519531 L 544.109375 296.785156 " fill-opacity="1" fill-rule="nonzero"/><path fill="#2a313a" d="M 502.128906 232.878906 C 502.800781 231.347656 524.855469 215.554688 533.84375 216.675781 C 530.332031 209.511719 510.664062 207.265625 496.617188 210.214844 C 482.570312 213.164062 502.128906 232.878906 502.128906 232.878906 " fill-opacity="1" fill-rule="nonzero"/><path fill="#54573d" d="M 428.835938 258.96875 C 428.835938 258.96875 437.054688 375.511719 447.167969 380.574219 C 457.285156 385.628906 515.441406 393.007812 521.972656 377.199219 C 525.347656 357.597656 505.539062 232.835938 505.539062 232.835938 C 505.539062 232.835938 451.59375 219.558594 428.835938 258.96875 " fill-opacity="1" fill-rule="nonzero"/><path fill="#8a8d46" d="M 505.539062 232.835938 C 505.539062 232.835938 489.945312 235.996094 485.097656 238.105469 C 480.253906 240.214844 485.097656 260.234375 482.78125 261.921875 C 480.460938 263.605469 431.15625 260.445312 428.835938 258.96875 C 426.519531 257.496094 423.992188 217.027344 426.941406 206.703125 C 429.890625 196.375 470.769531 195.953125 486.785156 198.695312 C 502.800781 201.433594 505.960938 209.65625 505.539062 232.835938 " fill-opacity="1" fill-rule="nonzero"/><path fill="#8a8d46" d="M 437.054688 300.132812 C 437.476562 299.996094 480.460938 299.011719 481.867188 304.628906 C 483.273438 310.25 489.875 372.632812 487.207031 377.269531 C 484.535156 381.90625 443.9375 378.535156 435.371094 374.179688 C 426.800781 369.824219 426.519531 313.90625 427.785156 306.035156 C 429.046875 298.167969 437.054688 300.132812 437.054688 300.132812 " fill-opacity="1" fill-rule="nonzero"/><path fill="#8a8d46" d="M 486.644531 304.632812 C 486.625 305.195312 489.875 369.265625 494.089844 372.632812 C 498.304688 376.003906 516.425781 373.992188 523.730469 367.765625 C 531.035156 361.535156 521.339844 301.542969 518.8125 297.328125 C 516.285156 293.113281 486.785156 299.855469 486.644531 304.632812 " fill-opacity="1" fill-rule="nonzero"/><path fill="#54573d" d="M 483.089844 327.6875 C 473.769531 328.054688 464.4375 327.777344 455.160156 326.804688 C 450.589844 326.320312 446.039062 325.671875 441.515625 324.886719 C 436.875 324.082031 432.28125 322.800781 427.613281 322.195312 C 427.140625 322.132812 426.949219 322.957031 427.390625 323.132812 C 431.558594 324.75 436.140625 325.515625 440.523438 326.34375 C 445.171875 327.21875 449.855469 327.898438 454.558594 328.402344 C 463.96875 329.417969 473.4375 329.710938 482.894531 329.339844 C 483.800781 329.304688 484.0625 327.648438 483.089844 327.6875 " fill-opacity="1" fill-rule="nonzero"/><path fill="#54573d" d="M 522.691406 319.628906 C 517.40625 321.828125 511.925781 323.546875 506.320312 324.730469 C 503.675781 325.292969 501.011719 325.742188 498.328125 326.066406 C 495.546875 326.40625 492.628906 326.375 489.898438 327.011719 C 489.425781 327.125 489.402344 327.871094 489.894531 327.960938 C 492.554688 328.429688 495.457031 328.003906 498.121094 327.695312 C 501.0625 327.359375 503.988281 326.882812 506.878906 326.261719 C 512.488281 325.054688 517.941406 323.292969 523.234375 321.089844 C 524.089844 320.730469 523.671875 319.21875 522.691406 319.628906 " fill-opacity="1" fill-rule="nonzero"/><path fill="#54573d" d="M 505.941406 231.792969 C 502.308594 230.910156 498.105469 231.382812 494.441406 231.960938 C 491.332031 232.453125 486.503906 233.03125 484.234375 235.464844 C 483.984375 235.734375 484.160156 236.429688 484.589844 236.140625 C 487.28125 234.316406 491.417969 233.710938 494.585938 233.230469 C 498.332031 232.660156 501.960938 233.003906 505.699219 232.804688 C 506.15625 232.78125 506.496094 231.925781 505.941406 231.792969 " fill-opacity="1" fill-rule="nonzero"/><path fill="#2a313a" d="M 433.78125 325.691406 C 433.632812 322.957031 433.578125 320.246094 432.785156 317.609375 C 432.164062 315.554688 429.796875 316.984375 429.539062 318.445312 C 429.054688 321.210938 429.324219 324.019531 429.464844 326.8125 C 429.605469 329.5625 429.535156 332.359375 430.207031 335.039062 C 430.800781 337.425781 433.75 335.78125 433.976562 334.070312 C 434.34375 331.316406 433.933594 328.457031 433.78125 325.691406 " fill-opacity="1" fill-rule="nonzero"/><path fill="#2a313a" d="M 469.640625 338.179688 C 469.304688 335.347656 468.972656 332.511719 468.640625 329.675781 C 468.339844 327.113281 468.269531 324.417969 467.269531 322.019531 C 466.464844 320.078125 464.171875 321.203125 463.925781 322.878906 C 463.167969 328.074219 464.714844 334.113281 465.296875 339.304688 C 465.660156 342.558594 469.976562 341.046875 469.640625 338.179688 " fill-opacity="1" fill-rule="nonzero"/><path fill="#2a313a" d="M 437.527344 279.695312 C 436.667969 274.765625 435.953125 269.820312 435.433594 264.84375 C 434.957031 260.320312 435.042969 255.53125 433.894531 251.125 C 433.355469 249.070312 430.910156 250.527344 430.679688 251.953125 C 429.945312 256.488281 430.683594 261.410156 431.140625 265.953125 C 431.644531 270.933594 432.34375 275.886719 433.183594 280.824219 C 433.734375 284.042969 438.023438 282.546875 437.527344 279.695312 " fill-opacity="1" fill-rule="nonzero"/><path fill="#2a313a" d="M 474.945312 282.199219 C 473.820312 276.761719 472.859375 271.296875 472.066406 265.800781 C 471.335938 260.710938 471.132812 255.460938 469.945312 250.453125 C 469.460938 248.402344 466.714844 249.726562 466.601562 251.3125 C 465.851562 261.773438 468.503906 273.125 470.601562 283.320312 C 471.261719 286.515625 475.535156 285.039062 474.945312 282.199219 " fill-opacity="1" fill-rule="nonzero"/><path fill="#2a313a" d="M 502.824219 320.609375 C 501.835938 318.445312 499.261719 320.046875 499.429688 322 C 499.753906 325.789062 500.574219 329.421875 500.59375 333.257812 C 500.609375 336.398438 504.933594 334.972656 504.832031 332.160156 C 504.699219 328.386719 504.414062 324.089844 502.824219 320.609375 " fill-opacity="1" fill-rule="nonzero"/><path fill="#2a313a" d="M 520.863281 315.683594 C 520.128906 313.746094 517.449219 315.171875 517.816406 316.925781 C 518.257812 319.042969 518.578125 321.191406 518.746094 323.34375 C 518.890625 325.246094 518.601562 327.195312 519.613281 328.867188 C 520.1875 329.824219 521.59375 329.449219 522.074219 328.628906 C 524.160156 325.0625 522.226562 319.257812 520.863281 315.683594 " fill-opacity="1" fill-rule="nonzero"/><path fill="#604045" d="M 547.613281 299.917969 C 547.613281 299.917969 558.027344 294.828125 561.378906 295.996094 C 583.292969 303.648438 577.007812 313.039062 577.007812 313.039062 C 577.007812 313.039062 566.789062 315.3125 563.554688 314.324219 C 560.324219 313.34375 547.613281 299.917969 547.613281 299.917969 " fill-opacity="1" fill-rule="nonzero"/><path fill="#2e2f31" d="M 508.171875 145.375 C 508.171875 145.375 514.492188 152.125 515.441406 152.015625 C 516.390625 151.910156 514.703125 142.113281 513.125 137.472656 C 516.285156 135.789062 512.808594 124.511719 512.703125 123.566406 C 512.597656 122.617188 521.550781 127.464844 525.871094 122.511719 C 524.921875 120.929688 520.5 119.140625 521.234375 118.824219 C 521.972656 118.507812 531.246094 118.082031 531.878906 116.925781 C 527.347656 112.289062 518.8125 111.128906 519.128906 110.917969 C 519.445312 110.707031 522.183594 110.5 521.761719 109.234375 C 517.546875 105.546875 502.378906 103.332031 497.847656 105.652344 C 474.667969 104.070312 456.546875 110.078125 460.128906 138.527344 C 463.710938 166.980469 487.207031 191.636719 491.945312 193.324219 C 497.636719 193.007812 497.214844 187.421875 497.214844 187.421875 C 497.214844 187.421875 499.109375 189.214844 500.164062 189 C 501.21875 188.789062 504.695312 179.625 503.851562 176.359375 C 508.171875 175.9375 508.066406 167.503906 508.066406 167.503906 C 508.066406 167.503906 495.949219 157.8125 498.164062 147.589844 C 500.375 137.367188 505.960938 142.007812 508.171875 145.375 " fill-opacity="1" fill-rule="nonzero"/><path fill="#2e2f31" d="M 533.703125 133.589844 C 533.042969 133.375 532.574219 133.503906 531.96875 133.761719 C 531.628906 133.898438 531.359375 134.175781 531.160156 134.503906 C 531.046875 134.582031 530.929688 134.664062 530.816406 134.746094 C 530.496094 134.96875 530.175781 135.191406 529.855469 135.417969 C 529.058594 135.980469 528.339844 136.511719 527.773438 137.324219 C 527.339844 137.9375 527.257812 138.875 527.625 139.535156 C 528.007812 140.222656 528.605469 140.421875 529.367188 140.335938 C 530.3125 140.226562 531.191406 139.628906 532.007812 139.171875 C 532.921875 138.660156 534.003906 138.191406 534.539062 137.246094 C 535.191406 136.101562 535.265625 134.101562 533.703125 133.589844 " fill-opacity="1" fill-rule="nonzero"/><path fill="#dc817a" d="M 510.230469 153.648438 C 509.867188 152.707031 509.082031 152.113281 508.332031 151.496094 C 507.085938 150.476562 506.136719 148.96875 504.761719 148.183594 C 503.800781 147.636719 502.714844 148.535156 502.863281 149.605469 C 503.066406 151.117188 503.769531 151.96875 504.886719 153 C 505.117188 153.210938 505.441406 153.414062 505.773438 153.617188 C 505.164062 153.757812 504.550781 153.902344 503.941406 154.050781 C 502.714844 154.339844 502.789062 156.511719 504.195312 156.28125 C 504.972656 156.15625 505.75 156.035156 506.53125 155.894531 C 506.878906 155.832031 507.210938 155.78125 507.515625 155.683594 C 507.457031 155.898438 507.320312 156.140625 507.167969 156.542969 C 506.144531 159.230469 506.617188 161.78125 508.667969 163.753906 C 509.4375 164.492188 510.34375 163.007812 509.867188 162.304688 C 508.464844 160.234375 509.226562 158.246094 510.0625 156.238281 C 510.417969 155.378906 510.574219 154.550781 510.230469 153.648438 " fill-opacity="1" fill-rule="nonzero"/><path fill="#040606" d="M 534.730469 146.6875 C 534.679688 146.25 534.660156 145.8125 534.570312 145.375 C 534.429688 144.691406 533.980469 144.089844 533.207031 144.183594 C 532.460938 144.277344 531.921875 144.949219 531.828125 145.683594 C 531.691406 146.792969 531.753906 148.261719 532.328125 149.238281 C 532.617188 149.71875 533.296875 149.828125 533.773438 149.628906 C 534.363281 149.382812 534.671875 148.847656 534.792969 148.234375 C 534.894531 147.710938 534.792969 147.207031 534.730469 146.6875 " fill-opacity="1" fill-rule="nonzero"/><path fill="#2b2b26" d="M 508.351562 406.027344 C 508.328125 405.863281 508.300781 405.699219 508.277344 405.539062 C 507.792969 402.269531 505.683594 399.8125 502.332031 399.46875 C 496.367188 398.859375 491.734375 404.671875 490.996094 410.078125 C 490.851562 411.125 490.539062 412.679688 490.734375 413.792969 C 489.808594 414.480469 488.070312 415.914062 487.59375 416.304688 C 485.234375 418.242188 485.054688 421.527344 486.382812 423.96875 C 486.417969 424.257812 486.453125 424.546875 486.488281 424.832031 C 486.957031 428.648438 490.269531 428.996094 492.546875 427.355469 C 495.789062 427.230469 499.101562 425.074219 501.15625 422.492188 C 503.011719 420.152344 504.085938 417.378906 504.378906 414.402344 C 504.390625 414.296875 504.40625 414.15625 504.425781 414.007812 C 507.042969 412.507812 508.800781 409.046875 508.351562 406.027344 " fill-opacity="1" fill-rule="nonzero"/><path fill="#2b2b26" d="M 526.003906 418.148438 C 526.136719 418.339844 526.269531 418.527344 526.394531 418.726562 C 526.457031 418.835938 526.523438 418.9375 526.585938 419.046875 C 526.113281 419.089844 525.808594 418.886719 526.003906 418.148438 Z M 538.246094 410.453125 C 538.171875 410.460938 537.359375 410.394531 537.015625 410.4375 C 536.859375 410.296875 536.664062 410.132812 536.5625 410.007812 C 535.203125 408.316406 534.03125 406.949219 531.890625 406.300781 C 529.839844 405.683594 527.605469 406.039062 525.78125 407.144531 C 524.40625 407.988281 523.265625 409.484375 521.976562 410.253906 C 516.644531 413.457031 519.003906 423.175781 525.65625 420.167969 C 526.101562 419.96875 526.480469 419.75 526.863281 419.5 C 527.078125 419.847656 527.300781 420.1875 527.550781 420.507812 C 530.105469 423.84375 534.078125 425.316406 538.175781 424.339844 C 541.453125 423.5625 543.609375 420 543.570312 416.800781 C 543.535156 414 541.65625 410.183594 538.246094 410.453125 " fill-opacity="1" fill-rule="nonzero"/><path fill="#2b2b26" d="M 531.539062 458.289062 C 531.542969 458.285156 531.550781 458.277344 531.554688 458.269531 C 532.835938 456.011719 533.28125 453.378906 532.703125 450.835938 C 531.765625 446.71875 528.515625 443.734375 524.363281 443.179688 C 520.195312 442.621094 518.210938 450.269531 522.351562 451.601562 C 522.285156 451.578125 522.609375 451.75 522.957031 451.894531 C 522.757812 452.078125 522.554688 452.257812 522.363281 452.441406 C 520.339844 454.445312 518.890625 456.835938 518.449219 459.6875 C 517.570312 465.394531 520.375 470.023438 525.402344 472.523438 C 529.015625 474.320312 533.148438 470.625 534.300781 467.460938 C 535.542969 464.042969 534.609375 460.171875 531.539062 458.289062 " fill-opacity="1" fill-rule="nonzero"/><path fill="#2b2b26" d="M 551.835938 524.535156 C 551.464844 521.5 549.296875 519.65625 547.09375 517.871094 C 547.84375 517.015625 548.585938 516.144531 549.242188 515.21875 C 551.148438 512.53125 551.984375 509.773438 551.777344 506.496094 C 551.554688 503.019531 548.277344 501.90625 545.484375 503.0625 C 543.371094 503.941406 542.246094 505.570312 541.347656 507.609375 C 541.09375 508.1875 540.984375 508.757812 540.976562 509.304688 C 538.984375 511.722656 536.433594 513.753906 535.367188 516.75 C 533.539062 521.878906 537.074219 524.003906 540.007812 526.824219 C 539.6875 527.441406 539.394531 528.070312 539.097656 528.714844 C 536.773438 533.75 542.425781 537.691406 546.503906 534.4375 C 549.292969 532.207031 552.304688 528.359375 551.835938 524.535156 " fill-opacity="1" fill-rule="nonzero"/><path fill="#2b2b26" d="M 532.390625 488.027344 C 530.382812 487.296875 528.179688 487.394531 526.109375 487.78125 C 525.617188 487.871094 523.871094 488.863281 523.492188 488.457031 C 518.964844 483.621094 513.285156 490.636719 516.089844 495.503906 C 517.570312 498.078125 520.410156 500.195312 523.253906 501.039062 C 524.320312 501.355469 526.042969 501.457031 526.90625 501.445312 C 526.917969 501.457031 526.921875 501.464844 526.9375 501.476562 C 527.816406 502.421875 528.503906 502.914062 529.6875 503.542969 C 532.195312 504.878906 534.972656 502.636719 536.40625 500.851562 C 539.867188 496.53125 537.320312 489.820312 532.390625 488.027344 " fill-opacity="1" fill-rule="nonzero"/><path fill="#2b2b26" d="M 496.960938 475.378906 C 494.523438 475.40625 492.140625 475.800781 489.742188 476.21875 C 487.519531 476.605469 485.105469 476.8125 483.066406 477.828125 C 479.273438 479.714844 476.695312 484.527344 478.546875 488.65625 C 480.167969 492.273438 484.027344 491.21875 485.601562 488.570312 C 486.578125 488.601562 487.59375 488.765625 488.558594 488.859375 C 490.820312 489.078125 493.039062 489.332031 495.3125 489.167969 C 498.953125 488.910156 501.742188 486.144531 502.175781 482.488281 C 502.546875 479.335938 500.605469 475.335938 496.960938 475.378906 " fill-opacity="1" fill-rule="nonzero"/><path fill="#2b2b26" d="M 508.214844 442.480469 C 505.671875 441.351562 502.757812 441.34375 500.125 442.195312 C 498.734375 442.644531 497.617188 443.488281 496.527344 444.316406 C 495.570312 443.15625 494.554688 442.226562 493.078125 441.730469 C 491.417969 441.171875 489.417969 441.644531 488.207031 442.949219 C 486.871094 444.386719 486.046875 445.992188 486.222656 448.007812 C 486.335938 449.304688 486.9375 450.011719 487.421875 451.058594 C 487.128906 450.5 487.820312 452.984375 487.875 453.21875 C 488.632812 455.601562 490.203125 457.902344 492.644531 458.789062 C 495.347656 459.777344 498.113281 458.734375 500.320312 457.1875 C 502.542969 455.628906 501.777344 455.78125 503.921875 456.507812 C 512.203125 459.320312 515.78125 445.835938 508.214844 442.480469 " fill-opacity="1" fill-rule="nonzero"/><path fill="#2b2b26" d="M 487.875 453.21875 C 487.863281 453.179688 487.847656 453.144531 487.835938 453.105469 C 487.875 453.238281 487.886719 453.261719 487.875 453.21875 " fill-opacity="1" fill-rule="nonzero"/><path fill="#2b2b26" d="M 483.113281 585.136719 C 482.5 582.898438 481.269531 581.058594 479.371094 579.695312 C 479.179688 579.558594 477.660156 578.488281 476.90625 578.183594 C 476.664062 573.472656 471.667969 571.539062 468.609375 575.726562 C 465.183594 580.421875 466.207031 585.863281 469.417969 589.898438 C 469.175781 590.527344 468.988281 591.253906 468.867188 591.652344 C 468.011719 594.417969 468.0625 596.898438 468.875 599.667969 C 470.84375 606.40625 478.75 603.050781 480.761719 598.425781 C 482.523438 594.378906 484.320312 589.574219 483.113281 585.136719 " fill-opacity="1" fill-rule="nonzero"/><path fill="#2b2b26" d="M 542.8125 582.320312 C 541.777344 580.808594 540.414062 579.488281 538.683594 578.796875 C 538.507812 578.726562 538.328125 578.667969 538.148438 578.621094 C 538.1875 578.289062 538.21875 577.957031 538.226562 577.601562 C 538.292969 575.515625 537.828125 573.546875 536.941406 571.664062 C 534.636719 566.769531 527.691406 570.121094 528.753906 575.015625 C 529.777344 579.722656 525.109375 583.59375 527.746094 588.476562 C 528.257812 589.429688 529.007812 590.316406 529.894531 590.964844 C 530.414062 591.277344 530.949219 591.558594 531.488281 591.824219 C 531.574219 592.921875 531.648438 594.449219 531.667969 594.578125 C 531.960938 596.289062 532.625 597.640625 533.703125 599.007812 C 537.707031 604.085938 544.582031 599.808594 545.191406 594.335938 C 545.621094 590.457031 545.074219 585.628906 542.8125 582.320312 " fill-opacity="1" fill-rule="nonzero"/><path fill="#2b2b26" d="M 546.914062 465.757812 C 547.765625 468.011719 549.4375 468.996094 551.695312 469.394531 C 552.5625 469.550781 553.394531 469.394531 554.269531 469.382812 C 554.609375 469.378906 554.972656 469.378906 555.320312 469.417969 C 555.324219 469.4375 555.402344 469.484375 555.5 469.53125 C 555.421875 469.539062 555.734375 469.769531 555.890625 469.855469 C 555.992188 470.050781 556.125 470.289062 556.160156 470.363281 C 556.171875 470.382812 556.175781 470.390625 556.1875 470.40625 C 556.199219 470.472656 556.214844 470.542969 556.234375 470.625 C 556.460938 471.625 556.804688 472.574219 557.269531 473.421875 C 557.425781 466.140625 557.480469 458.90625 557.199219 454.335938 C 553.640625 454.25 550.246094 455.863281 547.796875 458.890625 C 546.359375 460.667969 546.128906 463.675781 546.914062 465.757812 " fill-opacity="1" fill-rule="nonzero"/><path fill="#2b2b26" d="M 533.777344 395.796875 C 533.140625 399.328125 536.335938 403.707031 540.253906 402.402344 C 541.351562 402.039062 542.648438 401.414062 543.472656 400.875 C 543.609375 400.929688 543.777344 400.992188 543.980469 401.074219 C 544.71875 401.382812 545.382812 401.589844 546.167969 401.773438 C 546.289062 401.800781 546.410156 401.816406 546.535156 401.84375 C 545.359375 394 544.328125 387.488281 543.78125 384.90625 C 538.398438 385.789062 534.707031 390.640625 533.777344 395.796875 " fill-opacity="1" fill-rule="nonzero"/><path fill="#2b2b26" d="M 491.433594 603.015625 C 491.324219 603.011719 491.21875 603.019531 491.109375 603.023438 C 489.316406 601.949219 486.929688 602.191406 485.195312 603.511719 C 482.550781 605.515625 481.84375 608.667969 482.648438 611.785156 C 483.546875 615.277344 486.914062 616.804688 489.957031 617.933594 C 490.265625 618.046875 490.769531 618.296875 490.902344 618.339844 C 491.058594 618.453125 491.222656 618.5625 491.371094 618.683594 C 491.386719 618.707031 491.398438 618.722656 491.414062 618.742188 C 491.453125 618.792969 491.488281 618.851562 491.527344 618.902344 C 491.554688 618.980469 491.59375 619.066406 491.636719 619.175781 C 491.75 619.453125 491.875 619.714844 492.011719 619.972656 C 492.921875 615.597656 493.832031 609.695312 494.726562 603.078125 C 494.335938 603.003906 493.941406 602.953125 493.542969 602.9375 C 492.847656 602.902344 492.125 602.964844 491.433594 603.015625 " fill-opacity="1" fill-rule="nonzero"/><path fill="#2b2b26" d="M 556.453125 546.160156 C 555.328125 544.21875 552.542969 544.019531 550.769531 545.015625 C 548.648438 546.210938 547.585938 548.742188 547.765625 551.101562 C 548.136719 555.929688 549.304688 561.390625 553.855469 563.996094 C 555.191406 564.757812 556.535156 565.125 557.882812 565.21875 C 558.128906 559.121094 558.265625 553.546875 558.285156 549.046875 C 557.554688 548.207031 556.984375 547.082031 556.453125 546.160156 " fill-opacity="1" fill-rule="nonzero"/><path fill="#2b2b26" d="M 471.347656 621.613281 C 472.191406 617.1875 469.082031 612.097656 464 613.230469 C 460.734375 613.960938 458.363281 616.863281 457.589844 620.078125 C 457.828125 620.917969 458.117188 621.597656 458.464844 622.082031 C 461.148438 625.808594 465.613281 627.285156 470.363281 627.789062 C 470.601562 627.316406 470.84375 626.847656 471.074219 626.371094 C 471.59375 624.753906 471.609375 623.175781 471.347656 621.613281 " fill-opacity="1" fill-rule="nonzero"/><path fill="#2b2b26" d="M 549.519531 621 C 549.453125 620.722656 549.371094 620.449219 549.257812 620.179688 C 548.839844 619.113281 548.296875 618.042969 547.609375 617.125 C 544.949219 613.566406 540.328125 611.488281 536.007812 612.902344 C 533.554688 613.707031 531.953125 616.605469 532.945312 619.109375 C 533.921875 621.574219 535.402344 622.949219 537.128906 624.882812 C 537.429688 625.21875 538 625.789062 538.152344 626.058594 C 538.1875 626.117188 538.546875 627.511719 538.828125 628.40625 C 542.859375 627.96875 546.585938 627.59375 548.949219 628.015625 C 550.167969 628.230469 551.285156 625.828125 552.296875 621.695312 C 551.449219 621.230469 550.46875 620.960938 549.519531 621 " fill-opacity="1" fill-rule="nonzero"/><path fill="#2b2b26" d="M 458.59375 409.230469 C 458.699219 409.382812 458.796875 409.535156 458.910156 409.683594 C 461.742188 413.40625 466.8125 414.335938 471.085938 412.878906 C 475.121094 411.507812 477.800781 407.457031 477.300781 403.152344 C 476.859375 399.355469 474.167969 397.050781 470.695312 397.003906 C 470.625 396.714844 470.5625 396.425781 470.46875 396.140625 C 469.613281 393.703125 467.800781 391.335938 465.289062 390.421875 C 463.207031 389.664062 461.257812 389.828125 459.558594 390.585938 C 458.808594 395.742188 458.191406 402.484375 458.59375 409.230469 " fill-opacity="1" fill-rule="nonzero"/><path fill="#2b2b26" d="M 533.957031 543.8125 C 529.925781 541.101562 525.351562 539.363281 520.476562 539.570312 C 519.613281 541.601562 518.558594 544.3125 519.660156 547.476562 C 519.910156 548.191406 520.003906 550.289062 520.003906 553.34375 C 520.832031 553.511719 521.660156 553.703125 522.480469 553.96875 C 526.132812 555.148438 529.152344 555.484375 532.679688 553.703125 C 535.925781 552.0625 537.320312 546.078125 533.957031 543.8125 " fill-opacity="1" fill-rule="nonzero"/><path fill="#2b2b26" d="M 496.820312 554.542969 C 496.796875 554.113281 496.769531 553.695312 496.667969 553.21875 C 495.742188 549.015625 491.449219 548.289062 488.902344 551.671875 C 485.640625 556.003906 483.710938 565.664062 489.558594 568.667969 C 490.789062 569.300781 492.027344 569.46875 493.390625 569.492188 C 493.707031 569.476562 494.023438 569.46875 494.339844 569.460938 C 494.363281 569.535156 494.390625 569.609375 494.414062 569.683594 C 494.839844 570.867188 495.355469 572 496.105469 573.019531 C 496.652344 573.761719 497.363281 574.359375 498.164062 574.789062 C 499 567.566406 499.792969 560.734375 500.53125 555.140625 C 499.589844 554.796875 498.59375 554.585938 497.566406 554.535156 C 497.320312 554.519531 497.070312 554.53125 496.820312 554.542969 " fill-opacity="1" fill-rule="nonzero"/><path fill="#2b2b26" d="M 501.011719 514.167969 C 499.085938 514.382812 497.488281 514.980469 495.933594 516.140625 C 493.746094 517.769531 492.898438 519.792969 492.339844 522.375 C 491.722656 525.207031 493.886719 528.132812 496.703125 528.402344 C 497.242188 528.441406 498.007812 528.476562 498.3125 528.441406 C 498.5 528.421875 498.640625 528.402344 498.765625 528.390625 C 498.773438 528.390625 498.773438 528.390625 498.777344 528.390625 C 499.085938 528.394531 499.382812 528.394531 499.683594 528.402344 C 499.78125 528.433594 500.046875 528.492188 500.332031 528.574219 C 502.664062 529.257812 504.753906 529.308594 506.945312 528.574219 C 507.621094 523.539062 507.835938 518.648438 507.4375 517.210938 C 507.382812 517.015625 507.339844 516.632812 507.300781 516.085938 C 507.203125 516.003906 507.109375 515.914062 507.007812 515.835938 C 505.359375 514.558594 503.042969 513.9375 501.011719 514.167969 " fill-opacity="1" fill-rule="nonzero"/><path fill="#2b2b26" d="M 474.039062 429.128906 C 471.140625 426.679688 467.328125 426.433594 464.003906 428.179688 C 464.003906 428.183594 464 428.183594 464 428.183594 C 464.445312 428.847656 464.921875 429.484375 465.433594 430.089844 C 465.664062 438.132812 465.554688 445.535156 465.246094 452.339844 C 466 453.726562 466.917969 455.03125 467.980469 456.207031 C 474.886719 463.878906 484.144531 452.71875 479.570312 445.175781 C 478.898438 444.070312 477.792969 442.941406 477.386719 441.746094 C 477.378906 441.726562 477.367188 441.753906 477.355469 441.785156 C 477.394531 441.417969 477.433594 440.542969 477.453125 440.265625 C 477.71875 436.269531 477.324219 431.902344 474.039062 429.128906 " fill-opacity="1" fill-rule="nonzero"/><path fill="#2b2b26" d="M 461.742188 502.820312 C 462.992188 503.96875 464.613281 504.097656 466.144531 503.765625 C 469.574219 503.496094 471.734375 500.453125 471.902344 497.238281 C 472 496.378906 471.949219 495.511719 471.878906 494.59375 C 471.90625 494.222656 471.875 493.855469 471.804688 493.492188 C 471.8125 493.429688 471.816406 493.375 471.824219 493.300781 C 472.277344 490.183594 472.289062 486.910156 470.429688 484.210938 C 468.414062 481.285156 465.5625 480.6875 462.742188 480.871094 C 461.667969 489.523438 460.660156 496.347656 460.464844 501.429688 C 460.828125 501.902344 461.246094 502.367188 461.742188 502.820312 " fill-opacity="1" fill-rule="nonzero"/><path fill="#2b2b26" d="M 478.542969 522.613281 C 476.242188 523.558594 474.507812 525.441406 472.902344 527.300781 C 472.179688 528.140625 471.277344 529.039062 470.75 530.023438 C 470.703125 530.074219 470.667969 530.113281 470.625 530.164062 C 470.453125 530.117188 470.257812 530.074219 470.011719 530.027344 C 468.433594 528.738281 466.640625 527.679688 464.761719 527.050781 C 465.253906 529.457031 466.796875 530.828125 466.796875 530.828125 C 466.796875 530.828125 465.90625 535.636719 464.65625 543.042969 C 467.148438 544.355469 469.710938 545.28125 473.078125 544.035156 C 476.074219 542.925781 477.4375 540.808594 478.917969 538.074219 C 480.398438 535.335938 482.660156 533.046875 484.039062 530.289062 L 483.828125 530.28125 C 486.28125 526.449219 484.1875 520.296875 478.542969 522.613281 " fill-opacity="1" fill-rule="nonzero"/><path fill="#383929" d="M 508.484375 464.550781 C 506.910156 454.109375 502.445312 443.882812 499.691406 433.679688 C 499.496094 432.957031 498.730469 432.417969 498 432.394531 C 492.40625 432.210938 487.585938 430.621094 482.246094 429.277344 C 480.203125 428.761719 478.195312 432.117188 480.226562 433.3125 C 484.523438 435.839844 489.769531 436.847656 494.800781 437.128906 C 492.21875 438.429688 489.402344 439.320312 486.527344 439.460938 C 485.023438 439.535156 484.503906 442.183594 486.191406 442.261719 C 490.042969 442.433594 493.578125 441.917969 496.972656 440.335938 C 499.375 448.972656 501.886719 458.253906 506.648438 465.59375 C 507.308594 466.609375 508.621094 465.460938 508.484375 464.550781 " fill-opacity="1" fill-rule="nonzero"/><path fill="#383929" d="M 553.96875 506.710938 C 548.152344 506.636719 542.863281 503.914062 538.082031 500.769531 C 533.089844 497.480469 532.863281 490.246094 531.808594 484.808594 C 529.578125 473.328125 528.03125 461.722656 526.785156 450.09375 C 526.652344 448.863281 525.105469 449.460938 525.167969 450.511719 C 526.015625 464.945312 528.152344 479.265625 531.1875 493.398438 C 532.332031 498.722656 532.910156 501.667969 537.761719 504.617188 C 542.601562 507.5625 547.765625 510.230469 553.582031 509.9375 C 555.320312 509.847656 555.90625 506.738281 553.96875 506.710938 " fill-opacity="1" fill-rule="nonzero"/><path fill="#383929" d="M 553.527344 445.0625 C 549.382812 443.546875 543.847656 445.195312 539.554688 445.660156 C 535.476562 446.097656 530.648438 445.953125 527.222656 448.433594 C 526.507812 448.953125 526.429688 450.6875 527.679688 450.363281 C 531.773438 449.316406 535.824219 448.894531 540.023438 448.453125 C 543.96875 448.039062 548.652344 446.816406 552.574219 447.679688 C 554.050781 448.003906 555.027344 445.609375 553.527344 445.0625 " fill-opacity="1" fill-rule="nonzero"/><path fill="#383929" d="M 556.480469 463.617188 C 552.285156 463.75 548.09375 463.898438 543.902344 464.058594 C 539.988281 464.210938 535.996094 464.605469 532.246094 463.238281 C 531.136719 462.832031 530.476562 464.71875 531.527344 465.203125 C 538.859375 468.566406 548.363281 466.675781 556.152344 466.335938 C 557.640625 466.273438 558.085938 463.566406 556.480469 463.617188 " fill-opacity="1" fill-rule="nonzero"/><path fill="#383929" d="M 486.335938 531.027344 C 487.917969 530.804688 489.488281 529.929688 489.472656 528.125 C 489.457031 525.886719 487.015625 525.109375 485.308594 524.410156 C 481.265625 522.761719 477.113281 521.496094 472.847656 520.558594 C 471.429688 520.246094 470.507812 522.683594 471.945312 523.046875 C 476.089844 524.089844 481.210938 525.097656 484.902344 527.339844 C 485.871094 527.925781 486.46875 527.738281 485.230469 528.140625 C 484.34375 528.429688 482.902344 528.058594 481.929688 528.023438 C 479.292969 527.925781 476.648438 527.871094 474.015625 527.695312 C 472.527344 527.597656 472.046875 529.683594 472.96875 530.574219 C 475.050781 532.578125 477.429688 534.285156 479.78125 535.957031 C 481.867188 537.441406 483.960938 539.171875 486.425781 539.921875 C 487.488281 540.25 488.492188 538.722656 487.761719 537.863281 C 486.074219 535.871094 483.757812 534.605469 481.632812 533.125 C 480.671875 532.453125 479.738281 531.753906 478.804688 531.046875 C 481.355469 531.214844 483.921875 531.363281 486.335938 531.027344 " fill-opacity="1" fill-rule="nonzero"/><path fill="#383929" d="M 537.824219 533.453125 C 534.457031 526.625 524.566406 526.828125 519.277344 522.339844 C 517.914062 521.179688 516.335938 523.804688 517.605469 524.894531 C 521.121094 527.898438 525.457031 528.808594 529.585938 530.648438 C 530.289062 530.964844 535.59375 533.625 535.417969 534.773438 C 535.410156 534.832031 525.3125 533.269531 525.09375 533.226562 C 523.792969 532.964844 522.242188 534.753906 523.347656 535.921875 C 526.574219 539.324219 530.742188 543.511719 535.503906 544.417969 C 536.800781 544.667969 537.15625 542.628906 536.410156 541.933594 C 534.601562 540.246094 532.550781 538.902344 530.519531 537.503906 C 535.140625 538.140625 540.105469 538.085938 537.824219 533.453125 " fill-opacity="1" fill-rule="nonzero"/><path fill="#383929" d="M 505.738281 392.351562 C 500.351562 391.746094 494.960938 391.050781 489.554688 390.597656 C 487.472656 390.421875 486.863281 394.175781 489.101562 394.386719 C 492.449219 394.703125 495.808594 394.894531 499.164062 395.113281 C 500.710938 395.21875 502.261719 395.320312 503.8125 395.421875 C 504.585938 395.472656 505.359375 395.523438 506.136719 395.574219 C 507.414062 395.140625 507.929688 395.421875 507.691406 396.417969 C 508.246094 397.347656 507.898438 401.425781 507.886719 402.058594 C 507.847656 403.683594 507.679688 405.316406 507.523438 406.933594 C 507.210938 410.175781 506.761719 413.40625 506.160156 416.609375 C 505.929688 417.84375 505.644531 421.007812 504.980469 421.972656 C 503.460938 424.1875 500.851562 423.105469 499.074219 422.457031 C 496.0625 421.363281 493.242188 419.71875 491.25 417.15625 C 486.613281 411.207031 487.167969 403.113281 487.332031 396.023438 C 487.359375 394.859375 485.894531 394.863281 485.769531 395.96875 C 484.847656 404.066406 484.484375 413.464844 490.351562 419.945312 C 493.285156 423.1875 503.296875 429.496094 506.503906 423.914062 C 508.433594 420.554688 508.695312 415.609375 509.257812 411.871094 C 509.988281 407.003906 510.738281 401.734375 510.757812 396.820312 C 510.773438 392.972656 509.105469 392.730469 505.738281 392.351562 " fill-opacity="1" fill-rule="nonzero"/><path fill="#383929" d="M 471.347656 390.601562 C 469.359375 388.296875 463.03125 389.636719 460.441406 390.023438 C 457.996094 390.390625 458.183594 394.761719 460.933594 394.398438 C 462.84375 394.140625 466.550781 393.007812 468.21875 394.226562 C 469.589844 395.230469 468.632812 401.390625 468.457031 403.1875 C 468.09375 406.945312 467.753906 417.160156 463.761719 418.800781 C 462.871094 419.164062 463.125 420.851562 464.191406 420.625 C 466.847656 420.058594 467.875 418.070312 468.703125 415.625 C 470.304688 410.917969 470.996094 405.78125 471.496094 400.855469 C 471.75 398.351562 473.183594 392.726562 471.347656 390.601562 " fill-opacity="1" fill-rule="nonzero"/><path fill="#383929" d="M 540.277344 387.402344 C 539.902344 386.480469 538.921875 386.652344 538.398438 387.3125 C 536.828125 389.285156 536.832031 391.808594 536.195312 394.207031 C 535.476562 396.902344 534.59375 399.554688 533.550781 402.144531 C 531.359375 407.589844 528.421875 412.761719 524.941406 417.488281 C 524.046875 418.703125 525.621094 420.738281 526.75 419.382812 C 530.699219 414.640625 533.992188 409.621094 536.464844 403.941406 C 538.222656 399.902344 542.074219 391.824219 540.277344 387.402344 " fill-opacity="1" fill-rule="nonzero"/><path fill="#20262b" d="M 482.945312 657.410156 C 483.40625 656.792969 483.703125 656.066406 483.695312 655.175781 C 483.683594 653.972656 483.175781 653.28125 482.441406 652.785156 C 483.273438 652.058594 483.933594 651.210938 483.949219 649.941406 C 483.957031 649.214844 483.742188 648.539062 483.34375 647.921875 C 483.179688 647.671875 482.027344 646.800781 481.726562 646.636719 C 482.097656 646.515625 483.757812 644.621094 483.832031 643.761719 C 484.003906 641.84375 482.707031 641.242188 481.6875 640.144531 C 482.347656 639.238281 483.390625 638.148438 483.839844 637.207031 C 484.039062 636.789062 484.007812 636.03125 483.679688 635.675781 C 483.175781 635.132812 482.980469 634.898438 482.304688 634.679688 C 481.691406 634.566406 481.078125 634.574219 480.464844 634.695312 C 479.90625 634.609375 479.578125 634.613281 479.46875 634.707031 C 479.363281 634.652344 479.242188 634.621094 479.109375 634.609375 C 479.050781 634.605469 478.992188 634.601562 478.933594 634.59375 C 478.386719 634.554688 477.871094 635.039062 477.703125 635.523438 C 477.679688 635.59375 477.65625 635.664062 477.632812 635.734375 C 477.402344 636.40625 477.59375 637.1875 478.285156 637.488281 C 478.695312 637.671875 479.5 637.597656 480.207031 637.578125 C 479.617188 638.210938 478.980469 638.808594 478.453125 639.464844 C 478.101562 639.910156 477.96875 640.777344 478.21875 641.296875 C 478.367188 641.601562 480.089844 643.445312 480.324219 643.511719 C 480.082031 643.671875 478.273438 645.179688 478.121094 645.734375 C 477.855469 646.699219 478.132812 647.789062 478.652344 648.585938 C 478.765625 648.757812 480.402344 649.871094 480.429688 650.128906 C 480.4375 650.246094 478.335938 651.976562 478.3125 652 C 477.445312 652.839844 477.414062 654.480469 478.628906 655.015625 C 479.59375 655.066406 479.816406 655.445312 479.300781 656.152344 C 478.078125 656.75 478.035156 658.433594 478.894531 659.308594 C 479.535156 659.964844 480.109375 660.121094 480.292969 660.023438 C 478.175781 661.109375 479.636719 665.019531 481.605469 663.5625 C 482.953125 662.566406 484.3125 661.40625 484.234375 659.554688 C 484.179688 658.296875 483.644531 657.792969 482.945312 657.410156 " fill-opacity="1" fill-rule="nonzero"/><path fill="#20262b" d="M 547.703125 636.660156 C 547.976562 636.042969 547.742188 635.398438 547.308594 634.945312 C 545.792969 633.359375 543.175781 634.289062 541.234375 634.507812 C 540.003906 634.644531 539.835938 637.171875 541.222656 637.078125 C 541.765625 637.039062 543.082031 636.746094 544.113281 636.765625 C 542.925781 637.851562 541.585938 639.054688 541.640625 640.546875 C 541.699219 642.125 544.367188 642.765625 544.394531 643.492188 C 544.40625 643.8125 542.050781 645.117188 542.097656 646.464844 C 542.113281 646.917969 542.265625 647.460938 542.507812 647.855469 C 543.011719 648.679688 543.605469 648.730469 543.539062 649.097656 C 543.347656 650.171875 541.726562 650.640625 541.699219 652.191406 C 541.683594 653.128906 543.402344 655.699219 543.828125 655.246094 C 543.4375 656.078125 541.707031 656.375 541.636719 657.917969 C 541.535156 660.046875 544.78125 660.828125 542.347656 662.605469 C 540.8125 663.726562 541.390625 666.957031 543.535156 665.800781 C 545.242188 664.882812 546.84375 663.484375 547.105469 661.429688 C 547.375 659.351562 546.285156 658.851562 545.292969 657.878906 C 545.9375 657.457031 546.84375 656.980469 547.09375 656.457031 C 547.613281 655.375 547.472656 654.410156 546.8125 653.398438 C 546.480469 652.886719 545.355469 652.503906 545.34375 651.769531 C 545.339844 651.5 546.378906 651.082031 546.574219 650.710938 C 547.144531 649.632812 547.660156 648.914062 547.171875 647.621094 C 546.957031 647.058594 546.601562 646.675781 546.152344 646.308594 C 546.128906 646.289062 546.109375 646.277344 546.085938 646.261719 C 547.015625 645.507812 547.679688 644.742188 547.667969 643.359375 C 547.648438 641.214844 546.3125 641.324219 545.324219 639.925781 C 545.664062 639.574219 545.988281 639.207031 546.296875 638.832031 C 546.980469 638.199219 547.335938 637.476562 547.703125 636.660156 " fill-opacity="1" fill-rule="nonzero"/><path fill="#20262b" d="M 571.164062 676.574219 C 563.894531 676.699219 556.628906 677.113281 549.359375 677.234375 C 545.917969 677.292969 542.5 677.070312 539.082031 676.828125 C 539.347656 674.472656 538.558594 671.789062 537.234375 670.003906 C 535.09375 667.117188 531.902344 665.914062 528.542969 665.039062 C 527.761719 664.835938 527.277344 666.101562 528.042969 666.414062 C 530.804688 667.535156 533.890625 668.992188 535.644531 671.515625 C 536.515625 672.773438 536.914062 674.171875 536.976562 675.683594 C 536.992188 676.050781 536.984375 676.378906 536.984375 676.679688 C 533.839844 676.457031 530.699219 676.261719 527.542969 676.296875 C 526.804688 676.304688 526.621094 677.476562 527.386719 677.617188 C 530.648438 678.210938 534.019531 678.457031 537.410156 678.574219 C 537.46875 678.667969 537.523438 678.761719 537.597656 678.859375 C 537.921875 679.292969 538.457031 679.027344 538.644531 678.621094 C 542.453125 678.71875 546.273438 678.667969 549.984375 678.761719 C 557.03125 678.933594 564.15625 678.785156 571.15625 677.917969 C 571.800781 677.835938 571.890625 676.5625 571.164062 676.574219 " fill-opacity="1" fill-rule="nonzero"/><path fill="#20262b" d="M 507.332031 675.003906 C 500.230469 675.601562 493.195312 676.171875 486.054688 676.109375 C 482.03125 676.070312 478.027344 675.773438 474.027344 675.480469 C 472.492188 672.480469 472.121094 668.914062 469.859375 666.257812 C 467.972656 664.046875 465.320312 663.300781 462.496094 663.90625 C 461.902344 664.035156 461.851562 665.027344 462.492188 665.113281 C 465.472656 665.53125 467.796875 665.660156 469.515625 668.453125 C 470.714844 670.398438 471.539062 672.972656 472.125 675.339844 C 469.675781 675.164062 467.226562 675.003906 464.769531 674.917969 C 464.03125 674.894531 463.582031 676.296875 464.398438 676.476562 C 467.230469 677.097656 470.152344 677.5625 473.121094 677.898438 C 473.277344 677.980469 473.457031 678.015625 473.648438 677.957031 C 484.785156 679.167969 496.605469 678.550781 507.324219 677.132812 C 508.339844 677 508.480469 674.90625 507.332031 675.003906 " fill-opacity="1" fill-rule="nonzero"/><path fill="#20262b" d="M 544.050781 630.574219 C 541.578125 630.828125 539.105469 630.71875 536.921875 632.058594 C 535.601562 632.871094 534.675781 633.792969 533.140625 634.230469 C 531.167969 634.789062 529.449219 634.152344 527.441406 634.175781 C 526.839844 634.183594 526.4375 635.097656 526.964844 635.480469 C 529.046875 637.003906 531.929688 637.617188 534.371094 636.542969 C 535.46875 636.058594 536.25 635.199219 537.179688 634.472656 C 539.390625 632.742188 541.511719 632.953125 544.039062 632.375 C 544.859375 632.191406 545.039062 630.472656 544.050781 630.574219 " fill-opacity="1" fill-rule="nonzero"/><path fill="#20262b" d="M 481.421875 629.648438 C 479.128906 629.757812 476.613281 629.171875 474.636719 630.613281 C 473.519531 631.433594 472.558594 632.449219 471.375 633.210938 C 468.925781 634.796875 467.644531 635.070312 464.804688 634.425781 C 463.84375 634.207031 463.210938 635.835938 464.1875 636.113281 C 466.875 636.882812 469.109375 637.191406 471.359375 635.316406 C 472.480469 634.378906 473.660156 633.03125 474.984375 632.347656 C 477.046875 631.289062 479.257812 632.15625 481.414062 631.738281 C 482.382812 631.550781 482.574219 629.597656 481.421875 629.648438 " fill-opacity="1" fill-rule="nonzero"/><path fill="#604045" d="M 822.246094 630.308594 C 822.246094 630.734375 825.195312 680.285156 825.476562 680.519531 C 825.753906 680.75 855.539062 681.125 856.101562 680.519531 C 856.660156 679.90625 854.976562 668.386719 846.96875 664.171875 C 843.597656 651.101562 843.316406 631.328125 842.753906 629.554688 C 842.195312 627.78125 822.246094 630.308594 822.246094 630.308594 " fill-opacity="1" fill-rule="nonzero"/><path fill="#3d292c" d="M 855.347656 676.839844 C 852.082031 676.28125 848.769531 676.160156 845.453125 676.171875 C 845.46875 676.070312 845.472656 675.964844 845.460938 675.851562 C 844.941406 671.292969 842.996094 665.976562 838.800781 663.546875 C 834.972656 661.332031 829.070312 662.050781 825.617188 664.640625 C 824.726562 665.3125 825.535156 667.242188 826.582031 666.46875 C 829.472656 664.332031 834.695312 663.636719 837.855469 665.496094 C 841.464844 667.617188 843.183594 672.195312 843.472656 676.195312 C 838.039062 676.285156 832.574219 676.585938 827.171875 675.8125 C 826.171875 675.671875 825.890625 677.46875 826.953125 677.640625 C 836.308594 679.140625 845.746094 677.878906 855.050781 679.347656 C 856.414062 679.5625 856.808594 677.089844 855.347656 676.839844 " fill-opacity="1" fill-rule="nonzero"/><path fill="#3d292c" d="M 842.492188 636.261719 C 836.089844 637.6875 830.332031 637.203125 823.894531 636.816406 C 823.164062 636.769531 822.828125 638.007812 823.542969 638.277344 C 829.519531 640.511719 836.648438 639.902344 842.722656 638.324219 C 843.839844 638.035156 843.777344 635.972656 842.492188 636.261719 " fill-opacity="1" fill-rule="nonzero"/><path fill="#604045" d="M 771.675781 629.746094 C 771.53125 630.167969 769.148438 680.15625 769.148438 680.15625 C 769.148438 680.15625 717.167969 680.96875 717.167969 680.15625 C 717.167969 679.34375 717.589844 661.078125 750.742188 662.0625 C 750.601562 649.980469 751.023438 631.574219 751.023438 630.308594 C 751.023438 629.046875 771.675781 629.746094 771.675781 629.746094 " fill-opacity="1" fill-rule="nonzero"/><path fill="#2a313a" d="M 755.25 645.878906 C 754.636719 645.160156 753.519531 644.34375 753.167969 643.515625 C 752.878906 642.835938 752.765625 643.414062 754.359375 643.550781 C 756.0625 643.695312 756.628906 640.96875 755.140625 640.28125 C 753.203125 639.390625 750.921875 639.644531 749.828125 641.6875 C 749.03125 643.171875 749.585938 644.539062 750.496094 645.761719 C 750.214844 645.96875 749.949219 646.285156 749.710938 646.765625 C 748.683594 648.808594 749.957031 650.078125 751.140625 651.4375 C 750.464844 651.578125 749.804688 651.765625 749.183594 652.089844 C 748.421875 652.496094 748.203125 653.445312 748.410156 654.21875 C 748.695312 655.257812 749.324219 656.242188 750.058594 657.164062 C 749.9375 657.164062 749.820312 657.15625 749.703125 657.15625 C 748.90625 657.140625 748.417969 657.957031 748.472656 658.671875 C 748.550781 659.796875 748.96875 660.726562 749.449219 661.625 C 749.058594 661.484375 748.664062 661.433594 748.28125 661.53125 C 747.492188 661.734375 747.066406 662.429688 746.820312 663.261719 C 746.246094 662.273438 745.503906 661.503906 744.421875 661.75 C 742.902344 662.09375 742.917969 664.613281 742.933594 665.742188 C 742.941406 666.640625 744.117188 666.3125 744.222656 665.597656 C 744.628906 662.898438 746.5 667.148438 746.570312 667.273438 C 747.058594 668.15625 748.160156 667.277344 748.246094 666.59375 C 748.617188 663.714844 749.9375 664.746094 751.496094 666.082031 C 752.296875 666.769531 753.320312 665.628906 753.195312 664.808594 C 752.925781 663.011719 751.769531 661.542969 751.105469 659.921875 C 751.8125 660.046875 752.519531 660.160156 753.230469 660.261719 C 754.414062 660.429688 755.125 658.605469 754.46875 657.765625 C 753.710938 656.792969 752.59375 655.644531 751.804688 654.441406 C 752.566406 654.332031 753.367188 654.277344 753.960938 654.203125 C 754.980469 654.070312 755.386719 652.671875 755.117188 651.855469 C 754.710938 650.636719 754.570312 650.558594 753.867188 649.660156 C 753.105469 648.695312 752.042969 649.015625 753.777344 648.847656 C 755.039062 648.722656 756.222656 647.027344 755.25 645.878906 " fill-opacity="1" fill-rule="nonzero"/><path fill="#3d292c" d="M 770.59375 664.085938 C 767.914062 661.679688 761.632812 663.472656 759.15625 665.609375 C 756.605469 667.808594 755.125 672.089844 755.804688 675.515625 C 751.6875 675.890625 747.566406 676.335938 743.472656 676.53125 C 735.230469 676.933594 726.992188 676.113281 718.78125 676.429688 C 718.039062 676.457031 717.839844 677.625 718.621094 677.769531 C 726.734375 679.28125 735.6875 679.210938 743.902344 678.769531 C 751.835938 678.339844 760.085938 678.234375 767.925781 676.988281 C 768.914062 676.832031 769.0625 674.9375 767.9375 674.914062 C 764.457031 674.855469 760.960938 675.074219 757.464844 675.375 C 758.066406 672.355469 757.875 669.132812 760.855469 667.175781 C 763.800781 665.242188 767.007812 666.085938 770.203125 665.6875 C 770.925781 665.597656 771.0625 664.503906 770.59375 664.085938 " fill-opacity="1" fill-rule="nonzero"/><path fill="#3d292c" d="M 770.457031 637.636719 C 764.558594 635.195312 757.742188 637.574219 751.621094 636.382812 C 751.007812 636.261719 750.582031 637.277344 751.222656 637.476562 C 757.285156 639.363281 763.691406 639.140625 770.023438 639.441406 C 770.941406 639.484375 771.320312 637.996094 770.457031 637.636719 " fill-opacity="1" fill-rule="nonzero"/><path fill="#647883" d="M 763.628906 379.5 C 763.628906 379.5 744.652344 498.125 750.15625 517.21875 C 743.4375 551.070312 743.015625 623.875 746.597656 630.570312 C 750.179688 637.261719 768.511719 634.605469 773.570312 634.039062 C 778.628906 633.472656 789.160156 548.75 788.53125 541.792969 C 787.898438 534.839844 792.953125 523.589844 791.902344 522.046875 C 790.847656 520.511719 809.390625 439.582031 809.8125 436 C 810.234375 432.417969 817.1875 435.367188 817.1875 435.367188 C 817.1875 435.367188 814.449219 515.242188 817.1875 525.777344 C 819.925781 536.316406 811.289062 623.144531 820.140625 631.574219 C 826.039062 635.371094 841.84375 634.316406 844.371094 630.523438 C 846.898438 626.726562 848.164062 595.957031 849.429688 588.160156 C 850.691406 580.363281 860.808594 524.515625 858.492188 513.554688 C 857.226562 501.964844 857.011719 382.988281 855.960938 380.410156 C 854.90625 377.832031 763.628906 379.5 763.628906 379.5 " fill-opacity="1" fill-rule="nonzero"/><path fill="#4b4d37" d="M 761.921875 359.578125 C 760.855469 360.410156 760.855469 375.5625 760.011719 380.066406 C 759.171875 384.574219 855.15625 396.378906 857.878906 382.886719 C 856.382812 374.460938 857.507812 350.296875 855.542969 345.238281 C 853.570312 340.179688 761.921875 359.578125 761.921875 359.578125 " fill-opacity="1" fill-rule="nonzero"/><path fill="#4b4d37" d="M 747.371094 223.90625 C 747.371094 223.90625 713.375 306.238281 713.09375 319.558594 C 712.8125 332.875 722.085938 341.019531 727.425781 341.304688 C 732.761719 341.582031 758.191406 314.75 758.191406 314.75 L 844.664062 308.730469 C 844.664062 308.730469 857.226562 320.789062 868.183594 320.789062 C 879.140625 320.789062 887.851562 303.085938 887.570312 301.398438 C 887.289062 299.714844 846.542969 217.664062 830.953125 210.636719 C 815.363281 203.613281 747.371094 223.90625 747.371094 223.90625 " fill-opacity="1" fill-rule="nonzero"/><path fill="#f9b084" d="M 801.570312 145.175781 C 801.570312 145.175781 807.355469 176.355469 800.191406 184.082031 C 797.804688 187.035156 788.828125 187.53125 788.828125 187.53125 C 788.828125 187.53125 786.144531 161.042969 787.125 156.546875 C 788.105469 152.050781 801.570312 145.175781 801.570312 145.175781 " fill-opacity="1" fill-rule="nonzero"/><path fill="#493535" d="M 758.890625 179.707031 C 758.890625 179.707031 766.597656 191.8125 769.207031 193.074219 C 771.8125 194.34375 791.199219 192.375 792.746094 190.128906 C 794.289062 187.878906 796.398438 167.695312 797.101562 165.914062 C 797.800781 164.136719 794.070312 170.050781 793.449219 163.433594 C 792.824219 156.808594 793.203125 151.769531 797.183594 157.8125 C 798.925781 155.566406 798.644531 149.804688 798.082031 148.117188 C 797.523438 146.429688 754.960938 168.027344 758.890625 179.707031 " fill-opacity="1" fill-rule="nonzero"/><path fill="#e68e2c" d="M 735.429688 235.578125 C 735.957031 235.988281 839.738281 212.816406 839.945312 210.496094 C 840.15625 208.179688 835.523438 184.152344 831.941406 180.148438 C 828.359375 176.144531 735.007812 200.589844 731.851562 203.753906 C 728.6875 206.914062 730.582031 231.78125 735.429688 235.578125 " fill-opacity="1" fill-rule="nonzero"/><path fill="#2a313a" d="M 799.230469 185.09375 L 807.414062 215.449219 L 815.949219 213.761719 L 806.84375 183.460938 L 799.230469 185.09375 " fill-opacity="1" fill-rule="nonzero"/><path fill="#d64553" d="M 752.425781 267.261719 C 752.425781 267.261719 740.347656 269.789062 740.90625 276.8125 C 741.46875 283.839844 754.902344 363.277344 762.121094 368.699219 C 769.335938 374.121094 858.34375 359.007812 861.71875 351.140625 C 865.089844 343.273438 851.464844 255.179688 846.96875 250.960938 C 842.472656 246.75 752.425781 267.261719 752.425781 267.261719 " fill-opacity="1" fill-rule="nonzero"/><path fill="#a73744" d="M 846.464844 283.832031 C 845.351562 279.207031 844.230469 274.582031 843.109375 269.957031 C 841.886719 264.914062 841.050781 259.414062 839.074219 254.613281 C 838.394531 252.949219 836.371094 254.210938 836.519531 255.65625 C 837.484375 265.035156 841 274.628906 843.320312 283.765625 C 845.777344 293.464844 848.402344 303.105469 851.160156 312.726562 C 851.46875 313.792969 852.984375 312.984375 852.792969 312.054688 C 850.8125 302.617188 848.726562 293.210938 846.464844 283.832031 " fill-opacity="1" fill-rule="nonzero"/><path fill="#a73744" d="M 761.902344 321.648438 C 760.269531 313.1875 758.832031 304.671875 757.300781 296.1875 C 755.886719 288.351562 755.402344 279.585938 752.8125 272.066406 C 752.164062 270.179688 750.148438 271.785156 750.15625 273.152344 C 750.195312 281.488281 752.878906 290.460938 754.539062 298.621094 C 756.164062 306.617188 758.117188 314.480469 760.058594 322.402344 C 760.355469 323.621094 762.105469 322.699219 761.902344 321.648438 " fill-opacity="1" fill-rule="nonzero"/><path fill="#2a313a" d="M 746.808594 225.882812 C 746.808594 225.882812 819.085938 203.542969 828.570312 211.128906 C 838.050781 218.71875 841.210938 266.554688 841.210938 266.554688 C 841.210938 266.554688 777.15625 291.847656 752.289062 283.414062 C 744.703125 239.582031 739.039062 228.195312 746.808594 225.882812 " fill-opacity="1" fill-rule="nonzero"/><path fill="#2a313a" d="M 758.398438 309.757812 C 758.988281 309.285156 839.105469 288.261719 847.113281 295.429688 C 855.117188 302.597656 859.582031 360.128906 857.265625 365.402344 C 854.949219 370.667969 776.945312 384.367188 771.882812 379.308594 C 766.824219 374.25 753.972656 313.34375 758.398438 309.757812 " fill-opacity="1" fill-rule="nonzero"/><path fill="#2a313a" d="M 745.644531 198.863281 L 754.152344 231.492188 C 754.152344 231.492188 762.476562 229.914062 762.476562 229.597656 C 762.476562 229.28125 754.058594 196.554688 754.058594 196.554688 L 745.644531 198.863281 " fill-opacity="1" fill-rule="nonzero"/><path fill="#d64553" d="M 845.785156 312.613281 C 831.726562 315.808594 817.566406 318.496094 803.398438 321.167969 C 796.527344 322.460938 789.660156 323.753906 782.792969 325.085938 C 779.675781 325.691406 776.582031 326.425781 773.457031 326.988281 C 770.316406 327.554688 767.269531 327.519531 764.417969 329.078125 C 763.167969 329.761719 763.429688 332.042969 765.054688 331.789062 C 768.242188 331.289062 771.488281 331.722656 774.710938 331.289062 C 778.128906 330.828125 781.523438 330.171875 784.914062 329.554688 C 791.535156 328.34375 798.148438 327.085938 804.761719 325.839844 C 818.652344 323.222656 832.539062 320.574219 846.328125 317.433594 C 848.980469 316.835938 848.78125 311.929688 845.785156 312.613281 " fill-opacity="1" fill-rule="nonzero"/><path fill="#d64553" d="M 829.230469 223.914062 C 815.65625 225 802.136719 227.050781 788.949219 230.46875 C 775.746094 233.894531 762.214844 237.976562 749.652344 243.3125 C 748.574219 243.769531 748.878906 245.789062 750.175781 245.53125 C 763.210938 242.980469 775.773438 238.285156 788.667969 235.117188 C 801.820312 231.886719 815.171875 229.65625 828.675781 228.578125 C 831.214844 228.375 831.945312 223.695312 829.230469 223.914062 " fill-opacity="1" fill-rule="nonzero"/><path fill="#4a5661" d="M 846.613281 437.484375 C 841.125 431.019531 829.429688 433.152344 821.847656 433.066406 C 816.511719 433.003906 811.179688 432.9375 805.84375 432.914062 C 800.441406 432.886719 794.703125 432.390625 789.386719 433.476562 C 788.125 433.734375 787.496094 436.261719 789 436.625 C 793.441406 437.699219 798.207031 437.496094 802.753906 437.609375 C 807.800781 437.738281 812.847656 437.824219 817.894531 437.914062 C 826.652344 438.058594 836.53125 436.914062 844.804688 440.273438 C 846.253906 440.863281 847.542969 438.578125 846.613281 437.484375 " fill-opacity="1" fill-rule="nonzero"/><path fill="#4a5661" d="M 775.804688 516.257812 C 771.527344 515.867188 766.730469 516.253906 762.445312 516.550781 C 760.832031 516.664062 760.238281 519.464844 762.082031 519.582031 C 765.292969 519.789062 768.535156 519.730469 771.75 519.761719 C 772.101562 519.765625 775.164062 519.558594 775.382812 519.78125 C 775.113281 519.507812 770.445312 520.605469 770.082031 520.648438 C 765.835938 521.132812 761.996094 521.832031 759.203125 525.355469 C 758.625 526.078125 758.703125 527.910156 759.839844 528.144531 C 764.757812 529.15625 770.390625 530.6875 775.332031 529.261719 C 776.222656 529.003906 776.535156 527.566406 775.589844 527.160156 C 772.542969 525.863281 769.058594 525.527344 765.636719 525.164062 C 770.65625 523.859375 777.800781 524.910156 778.828125 519.648438 C 779.253906 517.472656 777.742188 516.4375 775.804688 516.257812 " fill-opacity="1" fill-rule="nonzero"/><path fill="#4a5661" d="M 830.71875 521.96875 C 829.203125 522.351562 829.285156 525.097656 831.03125 524.753906 C 833.546875 524.25 836.082031 523.839844 838.640625 523.644531 C 839.546875 523.574219 840.46875 523.523438 841.382812 523.511719 C 840.167969 523.890625 838.933594 524.414062 838.164062 524.6875 C 836.640625 525.222656 834.527344 525.824219 833.277344 526.839844 C 827.234375 531.738281 841.863281 535.363281 845.035156 534.414062 C 846.246094 534.050781 846.453125 532.371094 845.363281 531.769531 C 843.339844 530.65625 840.695312 530.644531 838.480469 530.023438 C 838.148438 529.929688 835.070312 529.207031 835.117188 529.296875 C 835.097656 529.261719 838.199219 527.972656 838.519531 527.863281 C 840.457031 527.167969 842.453125 526.808594 844.425781 526.265625 C 845.53125 525.957031 846.566406 525.59375 847.089844 524.460938 C 850.25 517.617188 832.90625 521.417969 830.71875 521.96875 " fill-opacity="1" fill-rule="nonzero"/><path fill="#4a5661" d="M 806.707031 392.179688 C 802.730469 389.277344 796.074219 389.113281 791.320312 388.683594 C 785.371094 388.144531 779.324219 387.265625 773.375 386.988281 C 772.273438 386.933594 771.957031 388.585938 772.878906 389.058594 C 777.625 391.476562 783.507812 391.695312 788.714844 392.199219 C 791.582031 392.476562 794.457031 392.75 797.292969 393.265625 C 800.105469 393.773438 802.757812 395.003906 805.59375 395.242188 C 807.046875 395.367188 807.867188 393.03125 806.707031 392.179688 " fill-opacity="1" fill-rule="nonzero"/><path fill="#4a5661" d="M 850.589844 394.386719 C 847.660156 391.582031 842.042969 393.074219 838.359375 393.003906 C 832.851562 392.890625 827.371094 392.152344 821.867188 392.132812 C 820.859375 392.128906 820.347656 393.789062 821.375 394.183594 C 825.644531 395.808594 830.222656 396.398438 834.757812 396.75 C 838.945312 397.074219 845.183594 395.722656 848.894531 397.777344 C 850.707031 398.78125 851.78125 395.523438 850.589844 394.386719 " fill-opacity="1" fill-rule="nonzero"/><path fill="#8a8d46" d="M 748.996094 126.367188 C 749.140625 126.152344 759.453125 108.707031 774.621094 112.921875 C 789.796875 117.140625 800.914062 131.90625 801.570312 145.175781 C 799.699219 153.59375 789.972656 164.136719 789.972656 164.136719 L 748.996094 126.367188 " fill-opacity="1" fill-rule="nonzero"/><path fill="#4b4d37" d="M 793.449219 159.777344 C 793.449219 159.777344 793.027344 169.609375 770.273438 168.488281 C 747.511719 167.363281 744.703125 148.398438 744.984375 146.148438 C 745.265625 143.898438 744.308594 125.351562 754.058594 122.402344 C 763.808594 119.453125 786.984375 125.917969 793.449219 159.777344 " fill-opacity="1" fill-rule="nonzero"/><path fill="#4b4d37" d="M 747.789062 146.007812 C 747.789062 146.007812 729.25 161.882812 732.480469 173.546875 C 735.710938 185.207031 761.136719 188.160156 771.953125 184.082031 C 782.773438 180.007812 789.976562 164.132812 789.976562 164.132812 L 747.789062 146.007812 " fill-opacity="1" fill-rule="nonzero"/><path fill="#383929" d="M 783.386719 166.738281 C 775.882812 166.035156 768.695312 167.433594 761.179688 165.695312 C 757.230469 164.78125 752.863281 163.542969 750.394531 160.058594 C 748.324219 157.132812 748.160156 153.480469 747.152344 150.152344 C 746.894531 149.292969 745.910156 150.023438 745.9375 150.65625 C 746.195312 158.527344 750.296875 164.136719 757.429688 167.21875 C 764.941406 170.464844 775.605469 171.125 783.378906 168.464844 C 784.132812 168.207031 784.375 166.832031 783.386719 166.738281 " fill-opacity="1" fill-rule="nonzero"/><path fill="#2a313a" d="M 947.410156 374.742188 C 947.410156 374.882812 942.777344 411.128906 949.097656 434.734375 C 942.355469 494.585938 947.4375 529.839844 947.4375 529.839844 C 947.4375 529.839844 940.386719 561.605469 938.425781 580.433594 C 936.457031 599.261719 940.949219 631.292969 941.230469 632.976562 C 941.515625 634.667969 954.15625 635.035156 954.15625 635.035156 C 954.15625 635.035156 973.542969 547.554688 972.980469 537.722656 C 972.417969 527.886719 992.078125 430.941406 992.359375 427.007812 C 992.359375 427.007812 994.453125 429.050781 998.632812 429.507812 C 1000.320312 454.515625 1014 534.566406 1014 534.566406 C 1014 534.566406 1013.15625 568.066406 1014 585.769531 C 1014.839844 603.472656 1020.183594 634.003906 1021.023438 635.035156 C 1021.867188 636.070312 1029.453125 637.519531 1031.417969 636.230469 C 1033.386719 634.945312 1035.632812 546.582031 1035.074219 534.566406 C 1042.9375 477.023438 1056.222656 413.125 1036.234375 372.152344 C 1017.933594 352.542969 947.410156 374.742188 947.410156 374.742188 " fill-opacity="1" fill-rule="nonzero"/><path fill="#f9b084" d="M 1051.1875 95.273438 C 1051.1875 95.273438 1049.242188 92.953125 1048.980469 91.425781 C 1048.714844 89.898438 1052.457031 81.203125 1052.984375 81.097656 C 1053.507812 80.992188 1053.558594 85.945312 1053.667969 86.105469 C 1053.769531 86.265625 1057.5625 87.632812 1058.5625 90.214844 C 1059.5625 92.796875 1057.144531 96.589844 1057.144531 96.589844 L 1051.1875 95.273438 " fill-opacity="1" fill-rule="nonzero"/><path fill="#f9b084" d="M 984.117188 128.199219 C 984.117188 128.199219 1005.65625 152.648438 997.65625 171.824219 C 995.347656 176.359375 983.546875 179.203125 982.390625 178.886719 C 981.230469 178.570312 978.269531 187.804688 978.269531 187.804688 C 978.269531 187.804688 962.792969 181.097656 961.425781 178.886719 C 960.054688 176.675781 984.117188 128.199219 984.117188 128.199219 " fill-opacity="1" fill-rule="nonzero"/><path fill="#473033" d="M 986.816406 145.585938 C 986.816406 145.585938 980.605469 138.632812 977.863281 144.113281 C 975.125 149.59375 978.597656 162.867188 988.820312 158.65625 C 981.867188 173.40625 977.4375 170.667969 975.230469 172.140625 C 973.015625 173.617188 977.578125 178.921875 974.171875 180.253906 C 970.773438 181.585938 967.957031 183.199219 967.957031 183.199219 L 944.144531 209.097656 C 944.144531 209.097656 931.082031 217.347656 912.851562 219.136719 C 901.371094 208.179688 912.851562 201.644531 912.851562 201.644531 C 912.851562 201.644531 889.570312 220.714844 889.25 219.136719 C 896.734375 187.945312 924.441406 179.414062 932.453125 183.734375 C 940.460938 188.050781 947.621094 173.191406 958.265625 177.515625 C 935.929688 168.980469 927.816406 149.910156 929.714844 134.308594 C 931.609375 118.714844 941.933594 118.609375 941.933594 118.609375 C 941.933594 118.609375 960.160156 103.4375 974.171875 113.765625 C 988.1875 124.089844 985.792969 130.535156 986.816406 145.585938 " fill-opacity="1" fill-rule="nonzero"/><path fill="#447bba" d="M 928.214844 239.015625 C 928.214844 239.015625 895.4375 300.894531 901.617188 313.234375 C 907.796875 325.566406 941.207031 341.304688 941.207031 341.304688 L 1000.09375 372.152344 C 1000.09375 372.152344 1032.121094 372.285156 1037.179688 374.742188 C 1042.234375 377.199219 1032.960938 363.078125 1033.914062 361.816406 C 1034.863281 360.550781 1037.386719 360.339844 1035.28125 352.753906 C 1033.175781 345.167969 1026.011719 295.824219 1025.589844 293.941406 C 1025.167969 292.054688 1033.949219 267.960938 1031.703125 261.074219 C 1042.660156 228.621094 1059.796875 174.109375 1056.425781 151.347656 C 1068.226562 114.535156 1057.832031 106.105469 1058.390625 101.050781 C 1058.953125 95.992188 1058.113281 94.023438 1053.332031 94.023438 C 1048.558594 94.023438 1049.398438 100.765625 1049.398438 100.765625 C 1049.398438 100.765625 1039.566406 109.195312 1037.035156 123.808594 C 1034.511719 138.421875 1036.476562 144.898438 1035.632812 145.171875 C 1034.792969 145.445312 1006.042969 184.175781 997.660156 193.472656 C 989.273438 202.769531 983.472656 186.511719 983.472656 186.511719 C 983.472656 186.511719 954.4375 172.390625 950.503906 184.210938 C 946.570312 196.023438 928.214844 239.015625 928.214844 239.015625 " fill-opacity="1" fill-rule="nonzero"/><path fill="#345f8f" d="M 939.160156 326.507812 C 938.359375 321.488281 935.109375 316.816406 933.195312 312.136719 C 932.746094 311.027344 932.109375 309.664062 932.125 308.476562 C 932.136719 307.363281 932.933594 306.308594 933.140625 305.246094 C 933.386719 303.957031 933.457031 303.21875 932.597656 302.160156 C 931.832031 301.207031 930.660156 301.25 929.769531 302.011719 C 927.351562 304.085938 924.796875 305.855469 922.191406 307.574219 C 924.203125 304.6875 926.835938 302.050781 928.988281 299.726562 C 929.65625 299.007812 928.871094 297.644531 928.089844 298.464844 C 924.527344 302.222656 921.277344 307.871094 917.140625 310.886719 C 915.402344 312.152344 915.984375 315.414062 918.449219 314.410156 C 921.875 313.003906 925.0625 310.945312 928.058594 308.679688 C 928.039062 310.632812 928.652344 312.507812 929.375 314.308594 C 931.222656 318.90625 933.160156 324.828125 936.648438 328.386719 C 937.757812 329.523438 939.339844 327.640625 939.160156 326.507812 " fill-opacity="1" fill-rule="nonzero"/><path fill="#473033" d="M 1019.269531 285.136719 C 1019.269531 285.136719 1030.859375 269.085938 1031.703125 261.078125 C 1038.441406 269.507812 1027.875 300.320312 1024.941406 304.511719 C 1022.007812 308.707031 1019.269531 285.136719 1019.269531 285.136719 " fill-opacity="1" fill-rule="nonzero"/><path fill="#473033" d="M 1018.320312 333.46875 C 1018.320312 333.46875 1032.640625 333.363281 1033.914062 333.46875 C 1035.175781 333.574219 1036.652344 351.171875 1036.128906 351.382812 C 1035.597656 351.59375 1020.425781 352.332031 1020.425781 352.332031 L 1018.320312 333.46875 " fill-opacity="1" fill-rule="nonzero"/><path fill="#e68e2c" d="M 927.1875 223.90625 C 927.1875 223.90625 921.703125 223.984375 923.390625 261.078125 C 925.078125 298.167969 936.878906 366.871094 944.460938 376.148438 C 952.050781 385.417969 1022.429688 381.203125 1027.910156 372.351562 C 1033.386719 363.5 1016.109375 219.066406 1012.3125 212.042969 C 1008.519531 205.019531 924.65625 211.183594 927.1875 223.90625 " fill-opacity="1" fill-rule="nonzero"/><path fill="#604045" d="M 927.816406 215.449219 C 927.417969 215.625 913.132812 225.320312 924.375 275.230469 C 987.867188 274.5625 1020.226562 270.871094 1020.796875 267.132812 C 1021.375 263.398438 1014.839844 214.863281 1012.101562 209.097656 C 1009.363281 203.332031 941.089844 209.652344 927.816406 215.449219 " fill-opacity="1" fill-rule="nonzero"/><path fill="#d64553" d="M 927.183594 223.90625 C 931.507812 223.21875 1008.941406 212.886719 1012.316406 212.046875 C 1015.683594 211.199219 1014.839844 185.230469 1008.941406 183.460938 C 1003.042969 181.695312 923.53125 189 919.039062 197.714844 C 914.539062 206.421875 917.167969 225.5 927.183594 223.90625 " fill-opacity="1" fill-rule="nonzero"/><path fill="#604045" d="M 937.015625 319.949219 C 937.015625 319.949219 990.398438 314.328125 995.734375 317.980469 C 1001.074219 321.636719 1007.816406 365.273438 1004.445312 366.777344 C 1001.074219 368.28125 957.246094 375.914062 949.097656 369.847656 C 940.953125 363.785156 934.765625 322.753906 937.015625 319.949219 " fill-opacity="1" fill-rule="nonzero"/><path fill="#e68e2c" d="M 986.035156 258.363281 C 976.390625 258.738281 966.738281 260.664062 957.074219 261.28125 C 952.488281 261.570312 947.902344 261.816406 943.308594 261.972656 C 938.675781 262.128906 933.671875 261.761719 929.160156 262.898438 C 928.214844 263.140625 927.742188 264.917969 928.867188 265.261719 C 933.023438 266.507812 937.695312 266.195312 942.003906 266.164062 C 947.125 266.125 952.246094 265.957031 957.355469 265.628906 C 966.71875 265.027344 976.894531 264.742188 986.015625 262.410156 C 987.8125 261.953125 988.320312 258.273438 986.035156 258.363281 " fill-opacity="1" fill-rule="nonzero"/><path fill="#e68e2c" d="M 990.691406 327.8125 C 982.410156 327.066406 974.164062 327.628906 965.90625 328.394531 C 961.894531 328.765625 957.894531 329.191406 953.878906 329.480469 C 950.425781 329.726562 946.664062 329.207031 943.566406 330.867188 C 942.882812 331.234375 942.453125 332.636719 943.277344 333.117188 C 946.292969 334.875 949.960938 334.09375 953.355469 333.875 C 957.367188 333.617188 961.367188 333.234375 965.371094 332.863281 C 973.628906 332.101562 981.875 331.535156 990.15625 332.28125 C 992.609375 332.503906 993.332031 328.050781 990.691406 327.8125 " fill-opacity="1" fill-rule="nonzero"/><path fill="#c6552c" d="M 1016.777344 373.726562 C 1010.53125 358.9375 1007.40625 343.148438 1005.863281 327.234375 C 1004.300781 311.132812 1002.910156 295.015625 1001.644531 278.890625 C 1001.46875 276.652344 998.417969 277.679688 998.648438 279.667969 C 1000.550781 296.230469 1002.15625 312.816406 1003.9375 329.390625 C 1005.632812 345.199219 1009.261719 359.816406 1015.628906 374.382812 C 1015.988281 375.210938 1017.078125 374.449219 1016.777344 373.726562 " fill-opacity="1" fill-rule="nonzero"/><path fill="#473033" d="M 1005.339844 217.898438 C 997.816406 220.253906 996.179688 226.96875 996.175781 234.054688 C 996.175781 245.011719 996.75 255.949219 998.054688 266.824219 C 998.21875 268.175781 999.941406 267.527344 999.84375 266.363281 C 999.207031 258.628906 998.691406 250.875 998.46875 243.121094 C 998.230469 235.023438 996.238281 223.835938 1005.605469 220.242188 C 1006.78125 219.792969 1006.796875 217.441406 1005.339844 217.898438 " fill-opacity="1" fill-rule="nonzero"/><path fill="#a73744" d="M 1010.078125 189.125 C 1002.046875 181.695312 998.6875 194.824219 1001.160156 200.824219 C 1002.015625 202.890625 1004.613281 207.265625 1007.164062 204.636719 C 1009.640625 202.078125 1008.222656 196.765625 1006.617188 194.242188 C 1005.925781 193.164062 1004.417969 194.566406 1004.875 195.542969 C 1005.335938 196.523438 1005.828125 197.574219 1006.019531 198.644531 C 1006.242188 199.695312 1006.207031 200.722656 1005.925781 201.730469 C 1005.988281 202.945312 1005.671875 203.074219 1004.972656 202.117188 C 1003.003906 201.09375 1002.40625 197.386719 1002.308594 195.460938 C 1002.140625 192.121094 1004.121094 187.527344 1008.007812 190.125 C 1010.222656 191.601562 1011.535156 194.667969 1011.785156 197.183594 C 1012.027344 199.648438 1011.5625 202.027344 1010.703125 204.328125 C 1010.242188 205.550781 1009.640625 207.371094 1008.75 208.332031 C 1007.785156 209.363281 1005.25 210.4375 1003.722656 209.863281 C 1001.941406 209.203125 1000.597656 205.242188 1000.085938 203.679688 C 999.015625 200.429688 999.070312 197.140625 999.902344 193.855469 C 1000.007812 193.449219 999.734375 193.164062 999.453125 193.15625 C 1000.417969 189.109375 1002.988281 185.464844 1007.652344 187.101562 C 1008.390625 187.359375 1009.054688 186.070312 1008.367188 185.667969 C 1005.53125 183.992188 1002.175781 185.265625 1000.199219 187.691406 C 997.71875 190.730469 997.28125 194.667969 997.929688 198.410156 C 997.953125 198.542969 998.003906 198.632812 998.058594 198.707031 C 997.871094 201.972656 998.457031 205.246094 1000.039062 208.214844 C 1001.503906 210.972656 1004.320312 214.109375 1007.699219 212.269531 C 1011.136719 210.394531 1013.070312 204.335938 1013.59375 200.789062 C 1014.199219 196.6875 1013.226562 192.039062 1010.078125 189.125 " fill-opacity="1" fill-rule="nonzero"/><path fill="#2a313a" d="M 940.957031 220.675781 C 939.734375 219.222656 937.988281 218.589844 936.902344 216.964844 C 935.023438 214.175781 934.578125 210.289062 934.160156 207.03125 C 933.824219 204.398438 933.464844 201.5 933.886719 198.863281 C 934.398438 195.6875 936.042969 194.871094 938.117188 192.960938 C 938.660156 192.460938 938.582031 191.582031 937.9375 191.234375 C 935.613281 189.992188 933.324219 191.894531 931.984375 193.8125 C 929.789062 196.953125 929.96875 201.160156 930.199219 204.796875 C 930.464844 209.023438 932.328125 225.90625 940.222656 222.695312 C 940.9375 222.40625 941.5625 221.394531 940.957031 220.675781 " fill-opacity="1" fill-rule="nonzero"/><path fill="#2a313a" d="M 983.46875 186.515625 C 984.105469 186.3125 984.445312 185.171875 983.667969 184.902344 C 974.324219 181.683594 968.507812 190.269531 969.03125 198.707031 C 969.457031 205.582031 972.890625 220.054688 982.675781 217.507812 C 983.628906 217.257812 984.03125 215.578125 982.957031 215.203125 C 976.136719 212.792969 973.667969 207.636719 972.484375 200.742188 C 971.882812 197.234375 971.660156 193.234375 974.101562 190.332031 C 976.472656 187.511719 980.199219 187.542969 983.46875 186.515625 " fill-opacity="1" fill-rule="nonzero"/><g clip-path="url(#25d2c10927)"><path fill="#e68e2c" d="M 954.257812 634.570312 C 954.257812 634.570312 952.679688 680.277344 952.574219 680.847656 C 952.464844 681.417969 924.652344 681.542969 923.921875 680.847656 C 923.179688 680.152344 928.121094 666.769531 937.921875 667.402344 C 940.460938 647.90625 941.335938 633.753906 941.160156 632.527344 C 940.988281 631.300781 954.257812 634.570312 954.257812 634.570312 " fill-opacity="1" fill-rule="nonzero"/></g><g clip-path="url(#6e7e48970b)"><path fill="#e68e2c" d="M 1021.023438 635.035156 C 1021.023438 635.035156 1019.335938 680.75 1021.023438 680.75 C 1022.707031 680.75 1052.910156 681.730469 1053.757812 680.75 C 1054.597656 679.765625 1046.179688 667.710938 1032.554688 667.148438 C 1031.699219 659.957031 1031.070312 637.316406 1031.417969 636.230469 C 1031.761719 635.152344 1021.023438 635.035156 1021.023438 635.035156 " fill-opacity="1" fill-rule="nonzero"/></g><path fill="#c6552c" d="M 953.042969 638.59375 C 951.867188 637.378906 950.085938 637.816406 948.53125 637.820312 C 946.179688 637.828125 943.800781 637.722656 941.457031 637.914062 C 940.71875 637.972656 940.449219 639.195312 941.289062 639.296875 C 944.898438 639.730469 949.191406 640.097656 952.796875 639.601562 C 953.273438 639.535156 953.3125 638.871094 953.042969 638.59375 " fill-opacity="1" fill-rule="nonzero"/><path fill="#c6552c" d="M 953.128906 671.214844 C 951.996094 668.867188 948.40625 668.824219 946.363281 669.90625 C 943.824219 671.246094 941.859375 673.941406 941.246094 676.734375 C 940.566406 676.765625 939.886719 676.804688 939.207031 676.871094 C 934.660156 677.3125 930.601562 677.964844 926.03125 677.261719 C 925.410156 677.167969 925.082031 678.398438 925.730469 678.535156 C 929.800781 679.410156 934.078125 678.785156 938.222656 678.648438 C 942.695312 678.5 947.1875 678.550781 951.660156 678.585938 C 952.5625 678.59375 952.828125 676.980469 951.859375 676.953125 C 948.671875 676.875 945.480469 676.632812 942.289062 676.699219 C 942.988281 674.582031 944.6875 672.5625 946.609375 671.476562 C 948.855469 670.214844 950.570312 671.359375 952.773438 671.773438 C 953.035156 671.820312 953.230469 671.417969 953.128906 671.214844 " fill-opacity="1" fill-rule="nonzero"/><path fill="#c6552c" d="M 1052.574219 678.351562 C 1045.824219 677.558594 1038.851562 676.503906 1031.9375 676.324219 C 1031.949219 676.242188 1031.964844 676.160156 1031.945312 676.074219 C 1031.449219 672.871094 1029.707031 669.535156 1026.792969 667.921875 C 1024.464844 666.628906 1021.265625 666.6875 1020.289062 669.566406 C 1019.949219 670.554688 1021.230469 671.027344 1021.613281 670.046875 C 1022.234375 668.449219 1024.265625 668.75 1025.472656 669.273438 C 1026.488281 669.714844 1027.390625 670.503906 1028.078125 671.351562 C 1029.269531 672.820312 1029.769531 674.542969 1030.324219 676.296875 C 1027.320312 676.28125 1024.339844 676.441406 1021.386719 676.886719 C 1020.761719 676.980469 1020.671875 678.273438 1021.382812 678.207031 C 1031.714844 677.292969 1042.074219 679.304688 1052.355469 680.160156 C 1053.355469 680.242188 1053.632812 678.476562 1052.574219 678.351562 " fill-opacity="1" fill-rule="nonzero"/><path fill="#c6552c" d="M 1031.148438 640.855469 C 1030.085938 639.945312 1028.519531 640.128906 1027.171875 640.042969 C 1025.445312 639.925781 1023.695312 639.78125 1021.964844 639.976562 C 1021.074219 640.074219 1020.753906 641.476562 1021.765625 641.644531 C 1023.46875 641.929688 1025.214844 641.921875 1026.9375 642.015625 C 1028.335938 642.089844 1029.765625 642.460938 1031.027344 641.777344 C 1031.355469 641.605469 1031.433594 641.101562 1031.148438 640.855469 " fill-opacity="1" fill-rule="nonzero"/><path fill="#2a313a" d="M 1033.449219 662.175781 C 1033.210938 661.890625 1033.003906 661.734375 1032.730469 661.519531 C 1032.597656 661.414062 1032.484375 661.34375 1032.378906 661.285156 C 1032.386719 661.277344 1032.390625 661.273438 1032.394531 661.261719 C 1032.769531 660.628906 1033.457031 660.460938 1033.492188 659.53125 C 1033.523438 658.792969 1033.089844 658.488281 1032.761719 657.886719 C 1032.65625 657.695312 1032.566406 657.566406 1032.484375 657.476562 C 1032.539062 657.363281 1032.597656 657.230469 1032.660156 657.046875 C 1033.285156 655.164062 1032.867188 654.792969 1031.953125 654.089844 C 1033.90625 652.625 1033.867188 651.789062 1031.972656 649.859375 C 1032.65625 649.332031 1033.21875 648.800781 1032.933594 647.613281 C 1032.570312 646.054688 1031.058594 645.875 1029.730469 645.867188 C 1028.753906 645.863281 1028.476562 647.511719 1029.519531 647.636719 C 1031.617188 647.890625 1030.152344 648.722656 1029.765625 649.027344 C 1029.191406 649.484375 1029.277344 650.359375 1029.738281 650.828125 C 1031.050781 652.15625 1031.257812 651.984375 1029.640625 652.972656 C 1029.058594 653.328125 1028.695312 654.28125 1029.171875 654.875 C 1029.167969 654.863281 1030.539062 656.117188 1030.511719 655.871094 C 1030.519531 655.957031 1029.382812 657.171875 1029.339844 657.652344 C 1029.289062 658.222656 1029.375 658.503906 1029.6875 658.984375 C 1030.078125 659.582031 1030.359375 659.746094 1030.648438 659.652344 C 1029.953125 660.105469 1029.226562 660.410156 1029.285156 661.59375 C 1029.320312 662.277344 1029.859375 662.671875 1030.136719 663.164062 C 1030.464844 663.730469 1030.890625 663.230469 1030.847656 663.859375 C 1030.84375 663.917969 1029.597656 665.160156 1029.820312 664.914062 C 1029.164062 665.640625 1029.253906 667.523438 1030.640625 667.136719 C 1030.996094 667.039062 1031.351562 666.941406 1031.707031 666.839844 C 1032.316406 666.671875 1032.628906 666.066406 1032.640625 665.496094 C 1033.675781 664.578125 1034.5625 663.527344 1033.449219 662.175781 " fill-opacity="1" fill-rule="nonzero"/><path fill="#2a313a" d="M 941.550781 650.691406 C 941.703125 650.070312 942.246094 649.847656 942.253906 649.132812 C 942.257812 648.203125 940.398438 646.492188 940.949219 645.75 C 941.808594 644.589844 940.242188 643.230469 939.328125 644.480469 C 938.320312 645.855469 938.613281 646.539062 938.96875 648.011719 C 939.214844 649.023438 939.570312 648.539062 939.570312 649.863281 C 939.566406 650.070312 939.183594 650.792969 939.136719 651.097656 C 938.789062 653.332031 937.984375 654.875 938.875 656.496094 C 938.429688 656.839844 938.085938 657.289062 937.933594 657.925781 C 937.699219 658.902344 938.6875 660.433594 938.734375 660.292969 C 938.574219 660.78125 937.3125 661.070312 937.1875 662.082031 C 937.109375 662.71875 937.390625 663.167969 937.730469 663.589844 C 937.046875 663.839844 936.503906 664.34375 936.296875 665.246094 C 936.097656 666.128906 936.726562 666.941406 937.023438 667.363281 C 937.113281 667.710938 937.3125 668.015625 937.582031 668.15625 C 937.582031 668.15625 937.582031 668.15625 937.578125 668.15625 C 937.585938 668.15625 937.585938 668.15625 937.589844 668.160156 C 937.683594 668.207031 937.785156 668.230469 937.894531 668.230469 C 938.734375 668.382812 939.316406 667.523438 939.273438 666.742188 C 939.257812 666.410156 939.203125 666.191406 939.144531 666.046875 C 939.261719 666.105469 939.433594 666.167969 939.6875 666.207031 C 940.53125 666.339844 941.140625 665.230469 941.046875 664.53125 C 940.949219 663.804688 940.90625 663.410156 940.492188 662.84375 C 940.085938 662.839844 939.683594 662.835938 939.277344 662.835938 C 939.453125 662.808594 939.628906 662.78125 939.800781 662.753906 C 939.839844 662.632812 940.355469 662.488281 940.464844 662.308594 C 940.828125 661.695312 941.152344 658.070312 940.984375 658.128906 C 941.90625 657.820312 942.367188 656.480469 941.550781 655.800781 C 940.753906 655.140625 941.324219 651.660156 941.550781 650.691406 " fill-opacity="1" fill-rule="nonzero"/><path fill="#20262b" d="M 961.378906 530.09375 C 958.089844 528.410156 955.03125 526.40625 952.070312 524.199219 C 950.996094 523.394531 949.9375 525.269531 950.839844 526.078125 C 952.535156 527.601562 954.347656 528.9375 956.242188 530.160156 C 956.171875 530.183594 956.101562 530.1875 956.03125 530.21875 C 955.046875 530.652344 954.46875 531.527344 954.296875 532.574219 C 953.839844 535.328125 956.542969 537.585938 958.648438 538.824219 C 959.5 539.324219 960.160156 538.359375 959.964844 537.5625 C 959.644531 536.277344 956.34375 533.855469 956.933594 533.035156 C 957.472656 532.289062 958.515625 532.976562 959.390625 533.019531 C 960.148438 533.054688 960.691406 532.902344 961.355469 532.53125 C 962.292969 532.007812 962.335938 530.582031 961.378906 530.09375 " fill-opacity="1" fill-rule="nonzero"/><path fill="#20262b" d="M 1028.121094 527.644531 C 1028.664062 527.203125 1028.710938 525.96875 1027.921875 525.738281 C 1026.605469 525.351562 1025.160156 526.113281 1023.953125 526.652344 C 1022.546875 527.277344 1021.289062 528.101562 1020.085938 529.0625 C 1019.386719 529.621094 1019.554688 530.757812 1020.304688 531.136719 C 1020.84375 531.414062 1021.371094 531.707031 1021.894531 532.007812 C 1020.90625 532.363281 1020.761719 534.304688 1022.0625 534.507812 C 1023.535156 534.734375 1024.964844 534.699219 1026.4375 534.464844 C 1027.40625 534.308594 1027.851562 532.640625 1027.015625 532.066406 C 1025.792969 531.226562 1024.5 530.488281 1023.183594 529.804688 C 1023.675781 529.539062 1024.175781 529.289062 1024.683594 529.074219 C 1025.847656 528.582031 1027.136719 528.453125 1028.121094 527.644531 " fill-opacity="1" fill-rule="nonzero"/><path fill="#20262b" d="M 1015.976562 426.882812 C 1011.828125 426.316406 1007.441406 427.648438 1003.164062 427.253906 C 998.207031 426.800781 993.332031 425.273438 988.988281 422.839844 C 981.714844 418.761719 975.839844 412.027344 972.769531 404.28125 C 972.203125 402.867188 970.441406 404.152344 970.855469 405.371094 C 973.640625 413.695312 978.707031 420.871094 986.070312 425.660156 C 984.765625 426.136719 983.46875 426.671875 982.140625 427.0625 C 979.238281 427.914062 976.296875 428.539062 973.285156 428.859375 C 971.867188 429.011719 971.308594 431.613281 972.960938 431.582031 C 978.292969 431.472656 985.015625 430.878906 989.550781 427.648438 C 993.21875 429.492188 997.144531 430.71875 1001.226562 431.320312 C 1005.863281 432.003906 1012.195312 432.394531 1016.296875 429.773438 C 1017.398438 429.070312 1017.503906 427.085938 1015.976562 426.882812 " fill-opacity="1" fill-rule="nonzero"/><path fill="#345f8f" d="M 1050.339844 144.675781 C 1049.371094 143.898438 1048.390625 145.363281 1048.6875 146.253906 C 1049.601562 148.96875 1051.164062 151.277344 1051.792969 154.136719 C 1052.457031 157.191406 1052.402344 160.203125 1051.683594 163.238281 C 1051.375 164.554688 1053.328125 164.875 1053.683594 163.625 C 1055.324219 157.902344 1055.527344 148.832031 1050.339844 144.675781 " fill-opacity="1" fill-rule="nonzero"/><path fill="#345f8f" d="M 1029 232.40625 C 1028.558594 224.140625 1026.8125 216.054688 1022.238281 209.058594 C 1021.339844 207.695312 1019.570312 209.636719 1020.359375 210.84375 C 1025.347656 218.546875 1026.582031 227.636719 1026.707031 236.644531 C 1026.820312 245.1875 1025.511719 254.4375 1027.714844 262.792969 C 1028.039062 264.011719 1029.402344 262.945312 1029.398438 262.101562 C 1029.347656 252.265625 1029.527344 242.238281 1029 232.40625 " fill-opacity="1" fill-rule="nonzero"/><path fill="#302123" d="M 946.480469 122.5625 C 941.269531 128.546875 937.605469 138.011719 941.566406 145.65625 C 942.179688 146.839844 943.683594 146.039062 943.542969 144.84375 C 942.644531 137.125 942.449219 130.152344 947.535156 123.664062 C 948.082031 122.964844 947.152344 121.789062 946.480469 122.5625 " fill-opacity="1" fill-rule="nonzero"/><path fill="#302123" d="M 964.265625 125.558594 C 963.867188 125.195312 963.339844 125.882812 963.519531 126.273438 C 965.03125 129.582031 966.25 132.722656 966.480469 136.191406 C 963.085938 131.335938 960.054688 126.21875 956.488281 121.503906 C 956.234375 121.164062 955.820312 121.382812 955.6875 121.699219 C 952.820312 128.34375 953.753906 135.054688 953.523438 141.917969 C 951.890625 136.871094 951.328125 131.648438 951.789062 126.242188 C 951.902344 124.902344 950.113281 124.929688 950 126.175781 C 949.335938 133.453125 950.453125 140.441406 953.1875 147.207031 C 953.671875 148.402344 955.007812 147.660156 955.191406 146.691406 C 955.824219 143.265625 955.722656 139.980469 955.40625 136.523438 C 955.09375 133.074219 954.167969 129.070312 955.171875 125.691406 C 956.507812 121.222656 957.300781 125.699219 958.292969 127.496094 C 958.816406 128.4375 959.375 129.367188 959.929688 130.289062 C 961.992188 133.707031 964.257812 136.996094 966.605469 140.226562 C 967.230469 141.085938 968.339844 140.316406 968.445312 139.476562 C 969.082031 134.453125 968.15625 129.101562 964.265625 125.558594 " fill-opacity="1" fill-rule="nonzero"/><path fill="#302123" d="M 964.800781 115.621094 C 960.414062 114.917969 956.132812 115.496094 951.984375 117.046875 C 951.167969 117.347656 951.222656 118.949219 952.164062 118.617188 C 956.210938 117.167969 960.34375 116.789062 964.613281 117.175781 C 965.480469 117.25 965.699219 115.765625 964.800781 115.621094 " fill-opacity="1" fill-rule="nonzero"/><path fill="#302123" d="M 960.527344 168.488281 C 959.496094 166.707031 958.34375 164.734375 956.5625 163.628906 C 955.886719 163.210938 955.398438 164.113281 955.691406 164.679688 C 956.359375 165.9375 957.246094 167.078125 958.074219 168.257812 C 951.796875 167.949219 948.609375 160.566406 946.765625 155.355469 C 946.457031 154.484375 945.320312 155.277344 945.585938 156.03125 C 947.949219 162.773438 951.636719 169.847656 959.699219 170.164062 C 960.554688 170.199219 960.898438 169.121094 960.527344 168.488281 " fill-opacity="1" fill-rule="nonzero"/><path fill="#302123" d="M 963.628906 165.214844 C 962.488281 163.367188 960.628906 161.941406 959.300781 160.1875 C 957.855469 158.28125 956.664062 156.25 955.707031 154.050781 C 955.308594 153.136719 954.15625 153.964844 954.449219 154.765625 C 955.3125 157.152344 956.421875 159.46875 957.863281 161.558594 C 959.089844 163.34375 960.761719 165.632812 962.785156 166.515625 C 963.519531 166.835938 963.949219 165.730469 963.628906 165.214844 " fill-opacity="1" fill-rule="nonzero"/><path fill="#302123" d="M 928.164062 189.328125 C 921.226562 188.808594 913.761719 192.453125 908.179688 196.230469 C 907.003906 197.023438 907.625 199.433594 909.023438 198.519531 C 915.152344 194.507812 921.285156 193.34375 928.152344 191.402344 C 929.09375 191.132812 929.328125 189.417969 928.164062 189.328125 " fill-opacity="1" fill-rule="nonzero"/><path fill="#e68e2c" d="M 974.589844 178.609375 C 971.953125 174.65625 966.324219 175.59375 963.011719 177.128906 C 962.136719 177.527344 962.121094 179.738281 963.203125 179.441406 C 965.042969 178.929688 966.960938 178.832031 968.828125 179.171875 C 970.523438 179.480469 972.121094 180.71875 973.816406 180.734375 C 974.492188 180.738281 975.089844 179.359375 974.589844 178.609375 " fill-opacity="1" fill-rule="nonzero"/></svg>