<svg width="352" height="349" viewBox="0 0 352 349" fill="none" xmlns="http://www.w3.org/2000/svg">
<path d="M127.763 134.614C93.8667 134.614 73.0074 87.25 73.0074 57.3357C73.0074 32.4072 86.0444 2.49288 112.118 2.49288C146.015 2.49287 166.874 49.8571 166.874 79.7714C166.874 104.7 153.837 134.614 127.763 134.614V134.614ZM226.844 134.614C200.77 134.614 187.733 104.7 187.733 79.7714C187.733 47.3643 208.593 1.25371e-05 242.489 9.57377e-06C268.563 7.2943e-06 281.6 29.9143 281.6 54.8429C284.207 87.25 263.348 134.614 226.844 134.614V134.614ZM33.8963 109.686C67.7926 109.686 91.2592 154.557 91.2592 186.964C91.2592 209.4 80.8296 231.836 57.3629 231.836C23.4666 231.836 -6.4726e-06 186.964 -9.30572e-06 154.557C-1.12671e-05 132.121 13.037 109.686 33.8963 109.686V109.686ZM260.741 186.964C260.741 154.557 286.815 109.686 318.104 109.686C341.57 109.686 352 132.121 352 154.557C352 186.964 325.926 231.836 294.637 231.836C271.17 231.836 260.741 209.4 260.741 186.964ZM177.304 181.979C229.452 181.979 299.852 261.75 299.852 316.593C299.852 341.521 281.6 349 260.741 349C229.452 349 205.985 329.057 177.304 329.057C151.23 329.057 127.763 349 99.0815 349C78.2222 349 54.7556 344.014 54.7556 316.593C54.7555 261.75 125.156 181.979 177.304 181.979V181.979Z" fill="#B8ECF7"/>
</svg>
