<svg xmlns="http://www.w3.org/2000/svg" xmlns:xlink="http://www.w3.org/1999/xlink" width="1920" zoomAndPan="magnify" viewBox="0 0 1440 809.999993" height="1080" preserveAspectRatio="xMidYMid meet" version="1.0"><defs><clipPath id="e227789268"><path d="M 300.203125 626 L 377 626 L 377 669 L 300.203125 669 Z M 300.203125 626 " clip-rule="nonzero"/></clipPath><clipPath id="380122a10a"><path d="M 358 389.207031 L 359.789062 389.207031 L 359.789062 390 L 358 390 Z M 358 389.207031 " clip-rule="nonzero"/></clipPath><clipPath id="c41d46abc9"><path d="M 358.289062 389.992188 C 358.300781 389.992188 358.597656 389.933594 359.140625 389.847656 C 358.597656 389.933594 358.300781 389.992188 358.289062 389.992188 " clip-rule="nonzero"/></clipPath></defs><path fill="#7f4a3b" d="M 908.464844 455.402344 C 900.027344 458.226562 892.972656 459.859375 889.804688 450.449219 C 886.644531 441.023438 888.257812 419.585938 894.757812 414.886719 C 896.828125 414.191406 903.035156 416.328125 906.96875 418.125 C 914.355469 426.601562 933.5625 438.410156 924.351562 439.152344 C 902.367188 441.875 925.421875 449.703125 908.464844 455.402344 " fill-opacity="1" fill-rule="nonzero"/><path fill="#7f4a3b" d="M 998.59375 290.757812 C 1001.160156 302.613281 1008.417969 309.144531 981.210938 315.042969 C 954.003906 320.953125 897.707031 329.839844 895.140625 317.984375 C 892.570312 306.136719 949.734375 280.054688 976.941406 274.164062 C 1004.160156 268.253906 996.015625 278.898438 998.59375 290.757812 " fill-opacity="1" fill-rule="nonzero"/><path fill="#7f4a3b" d="M 901.039062 427.210938 C 894.203125 427.230469 888.582031 400.855469 888.496094 368.292969 C 888.398438 335.730469 893.871094 309.316406 900.714844 309.304688 C 907.550781 309.285156 917.269531 315.632812 917.355469 348.195312 C 917.441406 380.757812 907.875 427.191406 901.039062 427.210938 " fill-opacity="1" fill-rule="nonzero"/><path fill="#f03933" d="M 826.882812 534.816406 C 820.898438 536 812.515625 538.121094 812.515625 538.121094 C 812.515625 538.121094 810.1875 549.234375 818.433594 559.867188 C 813.929688 580.019531 826.683594 613.691406 834.28125 615.722656 C 834.28125 615.722656 839.082031 615.695312 841.316406 613.890625 L 826.882812 534.816406 " fill-opacity="1" fill-rule="nonzero"/><path fill="#243740" d="M 817.871094 536.910156 C 817.871094 536.910156 835.867188 529.128906 844.820312 537.558594 L 849.8125 559.621094 L 856.601562 562.921875 C 856.601562 562.921875 858.023438 574.484375 848.34375 576.191406 C 841.117188 577.300781 848.574219 616.523438 838.691406 614.71875 C 831.09375 612.695312 818.339844 579.027344 822.84375 558.863281 C 814.597656 548.238281 817.871094 536.910156 817.871094 536.910156 " fill-opacity="1" fill-rule="nonzero"/><path fill="#7f4a3b" d="M 973.039062 548.566406 L 855.78125 559.3125 L 850.757812 537.070312 C 850.757812 537.070312 899.035156 525.460938 927.320312 516.585938 C 937 513.949219 965.8125 516.613281 965.8125 516.613281 L 973.039062 548.566406 " fill-opacity="1" fill-rule="nonzero"/><path fill="#d3d2d2" d="M 915.253906 520.210938 L 915.246094 520.203125 C 916.601562 519.820312 917.925781 519.429688 919.234375 519.046875 C 917.925781 519.429688 916.601562 519.820312 915.253906 520.210938 M 927.414062 516.566406 C 930.625 515.707031 935.894531 515.417969 941.496094 515.417969 C 935.894531 515.417969 930.625 515.707031 927.414062 516.566406 M 941.515625 515.417969 C 941.515625 515.417969 941.507812 515.417969 941.507812 515.417969 C 941.507812 515.417969 941.515625 515.417969 941.515625 515.417969 " fill-opacity="1" fill-rule="nonzero"/><path fill="#693d30" d="M 961.179688 525.539062 L 915.253906 520.210938 C 916.601562 519.820312 917.925781 519.429688 919.234375 519.046875 C 922.058594 518.207031 924.773438 517.386719 927.320312 516.585938 C 927.347656 516.585938 927.386719 516.574219 927.414062 516.566406 C 930.625 515.707031 935.894531 515.417969 941.496094 515.417969 C 941.507812 515.417969 941.507812 515.417969 941.507812 515.417969 C 941.507812 515.417969 941.515625 515.417969 941.515625 515.417969 C 952.941406 515.417969 965.8125 516.613281 965.8125 516.613281 L 961.179688 525.539062 " fill-opacity="1" fill-rule="nonzero"/><path fill="#7f4a3b" d="M 1005.296875 438.648438 C 1016.3125 442.410156 1016.550781 466 1008.550781 489.433594 C 1000.550781 512.871094 981.296875 552.222656 970.277344 548.460938 C 949.410156 542.875 962.019531 489.15625 970.019531 465.730469 C 978.019531 442.292969 994.277344 434.886719 1005.296875 438.648438 " fill-opacity="1" fill-rule="nonzero"/><path fill="#f03933" d="M 850.472656 535.78125 C 841.261719 538.101562 839.246094 539.648438 841.738281 550.625 C 844.191406 561.488281 846.691406 562.160156 856 560.277344 L 850.472656 535.78125 " fill-opacity="1" fill-rule="nonzero"/><path fill="#f03933" d="M 1103.890625 647.332031 C 1103.441406 653.410156 1103.261719 662.050781 1103.261719 662.050781 C 1103.261719 662.050781 1113.351562 667.253906 1125.789062 662.128906 C 1144.011719 671.847656 1179.871094 668.515625 1183.839844 661.726562 C 1183.839844 661.726562 1185.101562 657.097656 1183.957031 654.453125 L 1103.890625 647.332031 " fill-opacity="1" fill-rule="nonzero"/><path fill="#243740" d="M 1103.507812 656.5625 C 1103.507812 656.5625 1100.796875 637.15625 1111.308594 630.757812 L 1133.902344 631.828125 L 1138.894531 626.15625 C 1138.894531 626.15625 1150.410156 627.867188 1149.484375 637.660156 C 1148.632812 644.914062 1188.414062 648.171875 1184.050781 657.210938 C 1180.078125 664 1144.234375 667.332031 1125.988281 657.621094 C 1113.558594 662.738281 1103.507812 656.5625 1103.507812 656.5625 " fill-opacity="1" fill-rule="nonzero"/><path fill="#7f4a3b" d="M 1118.390625 504.832031 L 1133.484375 621.601562 L 1111.429688 627.457031 C 1111.429688 627.457031 1098.046875 579.636719 1088.128906 551.707031 C 1085.132812 542.128906 1086.714844 513.242188 1086.714844 513.242188 L 1118.390625 504.832031 " fill-opacity="1" fill-rule="nonzero"/><path fill="#693d30" d="M 1092.195312 563.628906 C 1090.800781 559.417969 1089.4375 555.378906 1088.128906 551.707031 C 1086.667969 547.046875 1086.296875 537.824219 1086.296875 529.578125 C 1086.296875 520.859375 1086.714844 513.242188 1086.714844 513.242188 L 1095.8125 517.53125 L 1092.195312 563.628906 " fill-opacity="1" fill-rule="nonzero"/><path fill="#1c2c32" d="M 1029.523438 466.808594 L 963.863281 421.65625 C 971.941406 440.164062 959.796875 481.226562 954.9375 504.316406 C 967.121094 503.648438 991.652344 533.957031 991.652344 533.957031 L 1029.523438 466.808594 " fill-opacity="1" fill-rule="nonzero"/><path fill="#243740" d="M 1039.796875 440.796875 C 1039.796875 465.550781 1019.730469 485.617188 994.976562 485.617188 C 970.222656 485.617188 950.15625 465.550781 950.15625 440.796875 C 950.15625 416.042969 970.222656 395.976562 994.976562 395.976562 C 1019.730469 395.976562 1039.796875 416.042969 1039.796875 440.796875 " fill-opacity="1" fill-rule="nonzero"/><path fill="#7f4a3b" d="M 1019.355469 254.367188 L 989.285156 239.941406 C 983.394531 254.671875 971.433594 266.660156 971.433594 266.660156 L 1019.699219 286.863281 C 1010.554688 275.949219 1019.355469 254.367188 1019.355469 254.367188 " fill-opacity="1" fill-rule="nonzero"/><path fill="#f03933" d="M 1041.894531 413.550781 C 1031.882812 394.09375 1038.957031 308.015625 1038.363281 306.25 C 1037.773438 304.484375 1007.699219 275.003906 1007.699219 275.003906 L 970.707031 266.15625 C 948.304688 299.769531 965.25 365.800781 965.25 365.800781 L 953.765625 421.65625 C 953.765625 421.65625 985.886719 408.242188 1002.984375 417.082031 C 1010.652344 422.390625 1051.917969 433.007812 1041.894531 413.550781 " fill-opacity="1" fill-rule="nonzero"/><path fill="#d3d2d2" d="M 953.765625 421.65625 C 953.765625 421.65625 954.050781 421.53125 954.59375 421.320312 C 954.050781 421.53125 953.765625 421.65625 953.765625 421.65625 " fill-opacity="1" fill-rule="nonzero"/><path fill="#1d2d34" d="M 954.59375 421.320312 C 956.933594 420.40625 963.941406 417.800781 972.339844 415.976562 C 963.929688 417.800781 956.921875 420.40625 954.59375 421.320312 " fill-opacity="1" fill-rule="nonzero"/><path fill="#c62f29" d="M 953.765625 421.65625 L 965.25 365.800781 C 965.25 365.800781 959.683594 344.101562 959.148438 319.253906 C 959.121094 318 959.109375 316.742188 959.109375 315.480469 C 959.109375 298.039062 961.792969 279.53125 970.707031 266.15625 L 978.964844 268.511719 C 978.964844 268.511719 1007.136719 277.078125 1007.136719 298.261719 C 1007.460938 299.261719 1005.820312 344.007812 982.535156 344.007812 C 979.511719 344.007812 976.121094 343.25 972.332031 341.550781 C 983.453125 362.707031 972.484375 415.257812 972.339844 415.976562 C 963.941406 417.800781 956.933594 420.40625 954.59375 421.320312 C 954.050781 421.53125 953.765625 421.65625 953.765625 421.65625 " fill-opacity="1" fill-rule="nonzero"/><path fill="#7f4a3b" d="M 1001.417969 300.648438 C 1001.417969 315.460938 993.371094 327.472656 983.433594 327.472656 C 973.503906 327.472656 965.449219 315.460938 965.449219 300.648438 C 965.449219 285.832031 973.503906 273.820312 983.433594 273.820312 C 993.371094 273.820312 1001.417969 285.832031 1001.417969 300.648438 " fill-opacity="1" fill-rule="nonzero"/><path fill="#7f4a3b" d="M 1115.394531 244.515625 C 1124.109375 246.289062 1131.050781 248.417969 1129.0625 258.144531 C 1127.097656 267.882812 1114.964844 285.640625 1106.972656 286.449219 C 1104.835938 286.011719 1100.539062 281.058594 1098.027344 277.535156 C 1095.878906 266.5 1085.160156 246.660156 1093.511719 250.625 C 1113.902344 259.28125 1097.867188 240.953125 1115.394531 244.515625 " fill-opacity="1" fill-rule="nonzero"/><path fill="#7f4a3b" d="M 980.464844 296.714844 C 989.726562 288.875 992.082031 279.40625 1010.066406 300.648438 C 1028.0625 321.898438 1062.363281 367.402344 1053.101562 375.242188 C 1043.851562 383.078125 993.972656 344.863281 975.976562 323.625 C 957.984375 302.382812 971.214844 304.558594 980.464844 296.714844 " fill-opacity="1" fill-rule="nonzero"/><path fill="#7f4a3b" d="M 1019.558594 455.632812 C 1025.648438 445.710938 1048.703125 450.6875 1069.800781 463.648438 C 1090.898438 476.625 1125.035156 504.078125 1118.933594 513.988281 C 1108.882812 533.117188 1059.289062 508.976562 1038.191406 496.003906 C 1017.09375 483.039062 1013.457031 465.550781 1019.558594 455.632812 " fill-opacity="1" fill-rule="nonzero"/><path fill="#7f4a3b" d="M 1107.707031 272.636719 C 1113.644531 276.046875 1105.304688 301.695312 1089.074219 329.925781 C 1072.855469 358.152344 1054.898438 378.277344 1048.960938 374.871094 C 1043.03125 371.460938 1037.800781 361.101562 1054.03125 332.867188 C 1070.25 304.636719 1101.789062 269.230469 1107.707031 272.636719 " fill-opacity="1" fill-rule="nonzero"/><path fill="#d3d2d2" d="M 1019.308594 254.480469 C 1019.320312 254.480469 1019.320312 254.472656 1019.320312 254.472656 C 1019.320312 254.472656 1019.320312 254.480469 1019.308594 254.480469 M 1019.335938 254.433594 C 1019.335938 254.421875 1019.335938 254.421875 1019.335938 254.421875 C 1019.335938 254.421875 1019.335938 254.421875 1019.335938 254.433594 M 1019.335938 254.414062 C 1019.335938 254.414062 1019.347656 254.414062 1019.347656 254.414062 C 1019.347656 254.414062 1019.335938 254.414062 1019.335938 254.414062 M 1019.347656 254.402344 C 1019.347656 254.394531 1019.347656 254.394531 1019.347656 254.394531 C 1019.347656 254.394531 1019.347656 254.394531 1019.347656 254.402344 M 1019.355469 254.375 C 1019.355469 254.375 1019.355469 254.367188 1019.355469 254.367188 C 1019.355469 254.367188 1019.355469 254.375 1019.355469 254.375 " fill-opacity="1" fill-rule="nonzero"/><path fill="#693d30" d="M 1015.546875 273.164062 C 1001.046875 265.390625 994.585938 250.222656 991.910156 241.203125 L 1019.355469 254.367188 C 1019.355469 254.367188 1019.355469 254.375 1019.355469 254.375 C 1019.355469 254.386719 1019.355469 254.386719 1019.347656 254.394531 C 1019.347656 254.394531 1019.347656 254.394531 1019.347656 254.402344 C 1019.347656 254.402344 1019.347656 254.402344 1019.347656 254.414062 C 1019.347656 254.414062 1019.335938 254.414062 1019.335938 254.414062 C 1019.335938 254.414062 1019.335938 254.414062 1019.335938 254.421875 C 1019.335938 254.421875 1019.335938 254.421875 1019.335938 254.433594 C 1019.335938 254.433594 1019.328125 254.441406 1019.328125 254.453125 C 1019.320312 254.460938 1019.320312 254.460938 1019.320312 254.472656 C 1019.320312 254.472656 1019.320312 254.480469 1019.308594 254.480469 C 1018.890625 255.558594 1015.566406 264.285156 1015.546875 273.164062 " fill-opacity="1" fill-rule="nonzero"/><path fill="#7f4a3b" d="M 1050.496094 207.199219 C 1050.441406 201.210938 1050.304688 195.761719 1050.34375 191.484375 C 1050.613281 165.9375 1021.246094 169.957031 1003.128906 169.957031 C 985 169.957031 983.433594 188.34375 983.433594 230.785156 C 983.433594 250.109375 1019.644531 263.398438 1037.773438 263.398438 C 1044.882812 259.140625 1048.089844 247.96875 1049.496094 235.234375 C 1056.195312 233.785156 1058.707031 226.664062 1058.707031 226.664062 L 1050.496094 207.199219 " fill-opacity="1" fill-rule="nonzero"/><path fill="#180b05" d="M 987.664062 149.816406 C 967.128906 149.816406 968.207031 182.808594 968.207031 206.023438 C 968.207031 223.101562 975.023438 238.261719 986.824219 244.054688 L 990.019531 244.054688 C 990.019531 244.054688 999.472656 237.679688 995.566406 221.660156 C 980.464844 208.390625 991.910156 194.835938 1001.417969 197.785156 L 1003.128906 229.535156 L 1008.589844 229.535156 L 1009.582031 209 L 1018.640625 179.875 C 1035.117188 182.789062 1046.613281 183.457031 1054.515625 182.757812 C 1050.152344 138.484375 997.582031 149.816406 987.664062 149.816406 " fill-opacity="1" fill-rule="nonzero"/><path fill="#243740" d="M 1039.089844 432.902344 L 975.789062 481.300781 C 995.871094 479.371094 1038.257812 499.535156 1058.707031 511.332031 C 1061.847656 499.535156 1088.53125 474.179688 1088.53125 474.179688 L 1039.089844 432.902344 " fill-opacity="1" fill-rule="nonzero"/><path fill="#f03933" d="M 1110.171875 627.789062 C 1112.816406 636.90625 1114.429688 638.855469 1125.320312 635.96875 C 1136.089844 633.105469 1136.664062 630.585938 1134.4375 621.34375 L 1110.171875 627.789062 " fill-opacity="1" fill-rule="nonzero"/><path fill="#e49674" d="M 538.34375 190.578125 C 546.964844 190.253906 553.980469 190.683594 554.324219 200.304688 C 554.679688 209.929688 547.289062 229.402344 539.949219 231.988281 C 537.839844 232.066406 532.664062 228.371094 529.496094 225.621094 C 524.960938 215.710938 510.355469 199.464844 519.128906 201.296875 C 540.292969 204.820312 521.027344 191.199219 538.34375 190.578125 " fill-opacity="1" fill-rule="nonzero"/><path fill="#e49674" d="M 422.710938 286.949219 C 427.921875 276.417969 429.621094 265.144531 453.800781 277.105469 C 477.984375 289.066406 517.953125 315.042969 512.742188 325.582031 C 507.527344 336.121094 448.476562 324.167969 424.292969 312.207031 C 400.113281 300.246094 417.496094 297.488281 422.710938 286.949219 " fill-opacity="1" fill-rule="nonzero"/><path fill="#e49674" d="M 537.515625 218.804688 C 543.871094 220.667969 541.839844 246.730469 532.980469 277.019531 C 524.109375 307.300781 511.765625 330.335938 505.410156 328.472656 C 499.050781 326.613281 491.765625 318.039062 500.636719 287.757812 C 509.496094 257.46875 531.144531 216.945312 537.515625 218.804688 " fill-opacity="1" fill-rule="nonzero"/><path fill="#c27f62" d="M 398.347656 524.832031 L 340.984375 622.757812 L 321.394531 610.414062 C 321.394531 610.414062 339.980469 566.035156 349.257812 538.847656 C 352.734375 529.769531 371.320312 508.777344 371.320312 508.777344 L 398.347656 524.832031 " fill-opacity="1" fill-rule="nonzero"/><g clip-path="url(#e227789268)"><path fill="#372e34" d="M 306.207031 626.375 C 303.714844 631.722656 300.5625 639.492188 300.5625 639.492188 C 300.5625 639.492188 307.914062 647.675781 320.945312 647.320312 C 334.117188 662.394531 367.742188 671.722656 373.679688 666.9375 C 373.679688 666.9375 376.417969 663.175781 376.285156 660.390625 L 306.207031 626.375 " fill-opacity="1" fill-rule="nonzero"/></g><path fill="#4ec3ba" d="M 302.683594 634.605469 C 302.683594 634.605469 306.910156 616.085938 318.625 613.917969 L 338.738281 622.664062 L 345.203125 619.246094 C 345.203125 619.246094 355.054688 624.753906 350.84375 633.308594 C 347.570312 639.589844 382.492188 656.226562 375.425781 662.917969 C 369.488281 667.703125 335.867188 658.375 322.691406 643.300781 C 309.660156 643.65625 302.683594 634.605469 302.683594 634.605469 " fill-opacity="1" fill-rule="nonzero"/><path fill="#c27f62" d="M 390.164062 427.085938 C 401.429688 427.515625 408.199219 449.347656 407.273438 473.328125 C 406.347656 497.308594 399.378906 539.191406 388.105469 538.75 C 367.179688 539.363281 364 485.988281 364.925781 462.015625 C 365.851562 438.027344 378.882812 426.648438 390.164062 427.085938 " fill-opacity="1" fill-rule="nonzero"/><path fill="#ffffff" d="M 320.476562 608.496094 C 317.011719 617.011719 317.070312 619.464844 327.082031 623.828125 C 336.972656 628.132812 338.929688 626.546875 342.796875 618.195312 L 320.476562 608.496094 " fill-opacity="1" fill-rule="nonzero"/><path fill="#372e34" d="M 326.375 559.523438 C 320.953125 561.863281 313.441406 565.574219 313.441406 565.574219 C 313.441406 565.574219 313.488281 576.574219 323.457031 584.972656 C 323.265625 604.984375 342.175781 634.308594 349.785156 634.691406 C 349.785156 634.691406 354.339844 633.699219 356.09375 631.53125 L 326.375 559.523438 " fill-opacity="1" fill-rule="nonzero"/><path fill="#4ec3ba" d="M 318.273438 563.34375 C 318.273438 563.34375 333.746094 552.308594 343.941406 558.484375 L 353.144531 578.378906 L 360.238281 580.132812 C 360.238281 580.132812 363.933594 590.796875 355.09375 594.386719 C 348.476562 596.90625 363.492188 632.554688 353.773438 632.847656 C 346.148438 632.476562 327.234375 603.148438 327.425781 583.132812 C 317.460938 574.730469 318.273438 563.34375 318.273438 563.34375 " fill-opacity="1" fill-rule="nonzero"/><path fill="#e49674" d="M 464.214844 558.816406 L 357.421875 578.835938 L 347.253906 558.433594 C 347.253906 558.433594 392.960938 543.417969 419.585938 532.613281 C 428.734375 529.300781 456.761719 529.585938 456.761719 529.585938 L 464.214844 558.816406 " fill-opacity="1" fill-rule="nonzero"/><path fill="#2e272b" d="M 420.476562 446.503906 L 352.210938 418.992188 C 355.300781 448.679688 359.730469 479.238281 361.613281 502.027344 C 372.742188 498.027344 403.929688 519.371094 403.929688 519.371094 L 420.476562 446.503906 " fill-opacity="1" fill-rule="nonzero"/><path fill="#372e34" d="M 436.082031 425.253906 C 431.15625 448.738281 408.140625 463.773438 384.65625 458.847656 C 361.183594 453.933594 346.136719 430.90625 351.0625 407.433594 C 355.980469 383.949219 379.007812 368.914062 402.480469 373.839844 C 425.964844 378.753906 441 401.78125 436.082031 425.253906 " fill-opacity="1" fill-rule="nonzero"/><path fill="#e49674" d="M 453.773438 244.378906 L 428.121094 224.714844 C 419.597656 237.515625 405.871094 246.507812 405.871094 246.507812 L 447.632812 275.253906 C 441.132812 263.089844 453.773438 244.378906 453.773438 244.378906 " fill-opacity="1" fill-rule="nonzero"/><path fill="#4ec3ba" d="M 443.5 399.832031 C 437.859375 379.382812 461.6875 299.15625 461.476562 297.363281 C 461.277344 295.566406 438.621094 261.628906 438.621094 261.628906 L 405.285156 245.890625 C 377.355469 273.304688 380.292969 339.300781 380.292969 339.300781 L 358.289062 389.992188 C 358.289062 389.992188 391.433594 383.660156 405.886719 395.449219 C 412.101562 402.007812 449.132812 420.28125 443.5 399.832031 " fill-opacity="1" fill-rule="nonzero"/><g clip-path="url(#380122a10a)"><g clip-path="url(#c41d46abc9)"><path fill="#d3d2d2" d="M 358.289062 389.992188 L 359.140625 389.992188 L 359.140625 389.847656 L 358.289062 389.847656 Z M 358.289062 389.992188 " fill-opacity="1" fill-rule="nonzero"/></g></g><path fill="#2d262a" d="M 359.140625 389.847656 C 361.546875 389.4375 368.707031 388.359375 377.03125 388.300781 C 377.03125 388.300781 377.03125 388.308594 377.03125 388.308594 C 368.707031 388.359375 361.546875 389.4375 359.140625 389.847656 " fill-opacity="1" fill-rule="nonzero"/><path fill="#41a099" d="M 358.289062 389.992188 L 380.292969 339.300781 C 380.292969 339.300781 380.207031 337.292969 380.207031 333.839844 C 380.207031 317.46875 382.222656 268.523438 405.285156 245.890625 L 412.648438 249.765625 C 412.648438 249.765625 437.660156 263.484375 433.449219 283.578125 C 433.554688 284.542969 424.160156 322.421875 404.371094 322.421875 C 400.582031 322.421875 396.398438 321.027344 391.828125 317.707031 C 398.183594 339.996094 377.289062 387.707031 377.03125 388.300781 C 368.707031 388.359375 361.546875 389.4375 359.140625 389.847656 C 358.597656 389.933594 358.300781 389.992188 358.289062 389.992188 " fill-opacity="1" fill-rule="nonzero"/><path fill="#e49674" d="M 427.550781 284.703125 C 424.609375 298.746094 414.585938 308.542969 405.164062 306.566406 C 395.742188 304.589844 390.5 291.605469 393.441406 277.554688 C 396.390625 263.5 406.414062 253.714844 415.828125 255.683594 C 425.25 257.660156 430.5 270.652344 427.550781 284.703125 " fill-opacity="1" fill-rule="nonzero"/><path fill="#e49674" d="M 323.207031 403.699219 C 314.96875 406.285156 308.09375 407.71875 305.210938 398.535156 C 302.339844 389.351562 304.324219 368.605469 310.722656 364.175781 C 312.734375 363.546875 318.710938 365.742188 322.480469 367.558594 C 329.46875 375.917969 347.855469 387.738281 338.910156 388.28125 C 317.566406 390.476562 339.742188 398.523438 323.207031 403.699219 " fill-opacity="1" fill-rule="nonzero"/><path fill="#e49674" d="M 410.03125 273.574219 C 408.542969 285.238281 410.613281 296.457031 383.855469 293.027344 C 357.097656 289.609375 310.835938 278.097656 312.324219 266.441406 C 313.8125 254.777344 373.527344 246.804688 400.292969 250.222656 C 427.054688 253.628906 411.511719 261.917969 410.03125 273.574219 " fill-opacity="1" fill-rule="nonzero"/><path fill="#e49674" d="M 417.800781 458.019531 C 428.238281 453.742188 443.445312 470.808594 452.550781 493.015625 C 461.648438 515.21875 472.675781 556.21875 462.242188 560.488281 C 443.445312 569.71875 418.414062 522.472656 409.316406 500.269531 C 400.21875 478.066406 407.359375 462.304688 417.800781 458.019531 " fill-opacity="1" fill-rule="nonzero"/><path fill="#e49674" d="M 316.554688 376.242188 C 309.929688 376.128906 305.003906 350.460938 305.566406 318.910156 C 306.109375 287.359375 311.933594 261.878906 318.558594 262.003906 C 325.183594 262.117188 334.480469 268.457031 333.917969 300.007812 C 333.375 331.558594 323.179688 376.359375 316.554688 376.242188 " fill-opacity="1" fill-rule="nonzero"/><path fill="#d3d2d2" d="M 450.792969 249.554688 C 450.792969 249.554688 450.804688 249.554688 450.804688 249.554688 C 450.804688 249.554688 450.792969 249.554688 450.792969 249.554688 M 450.832031 249.488281 C 450.84375 249.476562 450.84375 249.476562 450.84375 249.46875 C 450.84375 249.476562 450.84375 249.476562 450.832031 249.488281 M 450.851562 249.460938 C 450.851562 249.449219 450.863281 249.441406 450.863281 249.441406 C 450.863281 249.441406 450.851562 249.449219 450.851562 249.460938 M 450.871094 249.421875 C 452.371094 246.5 453.640625 244.570312 453.761719 244.390625 C 453.640625 244.570312 452.371094 246.5 450.871094 249.421875 M 453.761719 244.390625 C 453.761719 244.378906 453.773438 244.378906 453.773438 244.378906 C 453.773438 244.378906 453.761719 244.378906 453.761719 244.390625 M 453.773438 244.378906 L 430.355469 226.425781 L 453.773438 244.378906 " fill-opacity="1" fill-rule="nonzero"/><path fill="#bc7b5f" d="M 446.421875 261.441406 C 434.222656 251.1875 431.101562 235.519531 430.355469 226.425781 L 453.773438 244.378906 C 453.773438 244.378906 453.761719 244.378906 453.761719 244.390625 C 453.640625 244.570312 452.371094 246.5 450.871094 249.421875 C 450.871094 249.429688 450.863281 249.429688 450.863281 249.441406 C 450.863281 249.441406 450.851562 249.449219 450.851562 249.460938 C 450.851562 249.460938 450.84375 249.46875 450.84375 249.46875 C 450.84375 249.476562 450.84375 249.476562 450.832031 249.488281 C 450.824219 249.515625 450.8125 249.535156 450.804688 249.554688 C 450.804688 249.554688 450.792969 249.554688 450.792969 249.554688 C 449.199219 252.703125 447.367188 256.960938 446.421875 261.441406 " fill-opacity="1" fill-rule="nonzero"/><path fill="#e49674" d="M 492.683594 205.824219 C 493.820312 200.132812 494.785156 194.941406 495.671875 190.902344 C 500.988281 166.710938 472.359375 164.6875 455.15625 161.078125 C 437.972656 157.480469 432.835938 174.605469 424.390625 214.863281 C 420.542969 233.191406 452.253906 253 469.4375 256.601562 C 477.027344 253.972656 482.296875 244.019531 486.164062 232.21875 C 492.816406 232.179688 496.597656 225.917969 496.597656 225.917969 L 492.683594 205.824219 " fill-opacity="1" fill-rule="nonzero"/><path fill="#301c1a" d="M 506.316406 167.695312 C 516.109375 163.542969 506.308594 153.472656 503.367188 149.421875 C 493.621094 157.230469 477.535156 149.929688 477.21875 149.777344 C 466.078125 144.316406 452.648438 150.464844 443.242188 148.488281 C 423.769531 144.410156 421.9375 159.171875 417.316406 181.191406 C 413.917969 197.394531 421.238281 215.875 424.960938 228.125 L 427.996094 228.753906 C 427.996094 228.753906 438.222656 224.589844 437.714844 208.621094 C 426.023438 193.03125 439.578125 182.445312 448.007812 187.132812 L 443.308594 217.59375 L 448.492188 218.683594 L 453.515625 199.398438 L 467.910156 173.585938 C 502.582031 194.015625 510.203125 168.382812 506.316406 167.695312 " fill-opacity="1" fill-rule="nonzero"/><path fill="#372e34" d="M 436.082031 425.253906 L 368.878906 453.101562 C 385.699219 463.078125 407.359375 503.085938 416.617188 523.992188 C 425.820312 516.554688 461.191406 511.953125 461.191406 511.953125 L 436.082031 425.253906 " fill-opacity="1" fill-rule="nonzero"/><path fill="#ffffff" d="M 348.925781 555.667969 C 340.667969 559.722656 339.082031 561.59375 343.664062 571.503906 C 348.191406 581.300781 352.65625 581.804688 361.097656 578.140625 L 348.925781 555.667969 " fill-opacity="1" fill-rule="nonzero"/><path fill="#4ec3ba" d="M 651.304688 626.425781 C 648.671875 630.882812 645.273438 637.363281 645.273438 637.363281 C 645.273438 637.363281 650.972656 645.117188 662.34375 645.917969 C 672.527344 660.160156 700.984375 671.140625 706.5625 667.492188 C 706.5625 667.492188 709.28125 664.449219 709.40625 662.011719 L 651.304688 626.425781 " fill-opacity="1" fill-rule="nonzero"/><path fill="#243740" d="M 647.535156 633.296875 C 647.535156 633.296875 652.796875 617.535156 663.171875 616.640625 L 679.9375 625.964844 L 685.855469 623.550781 C 685.855469 623.550781 693.960938 629.183594 689.558594 636.277344 C 686.179688 641.460938 715.152344 658.921875 708.433594 664.152344 C 702.855469 667.796875 674.378906 656.808594 664.203125 642.578125 C 652.832031 641.765625 647.535156 633.296875 647.535156 633.296875 " fill-opacity="1" fill-rule="nonzero"/><path fill="#e49674" d="M 749.71875 505.578125 L 681.988281 623.722656 L 665.148438 614.222656 C 665.148438 614.222656 687.058594 547.90625 697.578125 525.082031 C 701.425781 517.5 714.664062 501.386719 714.664062 501.386719 L 749.71875 505.578125 " fill-opacity="1" fill-rule="nonzero"/><path fill="#d3d2d2" d="M 692.984375 534.730469 C 694.589844 531.4375 696.109375 528.269531 697.464844 525.328125 C 696.316406 527.839844 695.027344 530.855469 693.652344 534.246094 L 692.984375 534.730469 M 716.632812 501.625 L 714.953125 501.425781 C 715.582031 500.660156 715.953125 500.222656 715.953125 500.222656 L 716.632812 501.625 " fill-opacity="1" fill-rule="nonzero"/><path fill="#bc7b5f" d="M 693.652344 534.246094 C 695.027344 530.855469 696.316406 527.839844 697.464844 525.328125 C 697.5 525.242188 697.539062 525.167969 697.578125 525.082031 C 700.8125 518.703125 711.609375 505.460938 714.953125 501.425781 L 716.632812 501.625 L 722.351562 513.453125 L 693.652344 534.246094 " fill-opacity="1" fill-rule="nonzero"/><path fill="#4ec3ba" d="M 664.183594 613.679688 C 660.394531 620.78125 660.222656 622.921875 668.539062 627.609375 C 676.765625 632.246094 678.597656 631.042969 682.714844 624.132812 L 664.183594 613.679688 " fill-opacity="1" fill-rule="nonzero"/><path fill="#472b29" d="M 753.425781 150.339844 C 753.425781 150.339844 697.167969 150.082031 714.285156 185.824219 C 726.484375 213.058594 670.90625 231.664062 668.625 231.054688 C 668.625 231.054688 669.519531 242.59375 687.199219 239.597656 C 697.511719 241.363281 672.261719 250.230469 648.117188 253.085938 C 665.757812 261.019531 679.324219 247.0625 690.855469 253.628906 C 690.855469 253.628906 676.957031 264.359375 664.003906 266.519531 C 667.773438 277.410156 730.359375 239.148438 714.847656 256.582031 C 724.5 261.382812 784.269531 198.988281 744.058594 177.878906 C 727.351562 168.164062 750.28125 175.007812 752.996094 176 C 755.707031 176.992188 753.425781 150.339844 753.425781 150.339844 " fill-opacity="1" fill-rule="nonzero"/><path fill="#347e92" d="M 743.054688 162.453125 C 742.933594 171.027344 739.628906 177.9375 735.648438 177.878906 C 731.6875 177.824219 723.191406 174.453125 728.757812 157.023438 C 731.351562 148.851562 748.738281 150.453125 752.707031 150.5 C 756.667969 150.558594 743.171875 153.882812 743.054688 162.453125 " fill-opacity="1" fill-rule="nonzero"/><path fill="#e49674" d="M 913.773438 331.996094 C 915.636719 339.347656 915.875 344.140625 906.574219 346.496094 C 897.289062 348.847656 878.664062 348.472656 873.925781 345.753906 C 873.460938 343.949219 873.25 337.140625 875.351562 333.828125 C 884.179688 327.816406 899.464844 308.472656 899.253906 316.40625 C 893.820312 335.175781 910.03125 317.226562 913.773438 331.996094 " fill-opacity="1" fill-rule="nonzero"/><path fill="#e49674" d="M 884.78125 338.203125 C 885.402344 343.921875 860.914062 351.261719 830.101562 354.601562 C 799.265625 357.945312 773.777344 356.015625 773.15625 350.304688 C 772.535156 344.589844 764.621094 331.050781 808.527344 332.484375 C 839.351562 329.140625 884.171875 332.484375 884.78125 338.203125 " fill-opacity="1" fill-rule="nonzero"/><path fill="#e49674" d="M 751.820312 417.128906 C 765.089844 419.414062 766.207031 439.621094 762.417969 461.710938 C 758.625 483.800781 751.648438 516.6875 738.371094 514.40625 C 688.964844 515.144531 728.699219 472.203125 718.082031 445.339844 C 721.863281 423.257812 738.558594 414.859375 751.820312 417.128906 " fill-opacity="1" fill-rule="nonzero"/><path fill="#203239" d="M 777.910156 435.410156 L 724.097656 394.523438 C 689.835938 431.652344 732.460938 460.03125 711.125 481.578125 C 715.125 483.324219 754.082031 500.222656 754.082031 500.222656 L 777.910156 435.410156 " fill-opacity="1" fill-rule="nonzero"/><path fill="#4ec3ba" d="M 778.300781 589.96875 C 774.042969 592.898438 768.230469 597.367188 768.230469 597.367188 C 768.230469 597.367188 770.148438 606.789062 780.144531 612.296875 C 783.390625 629.5 804.613281 651.425781 811.207031 650.441406 C 811.207031 650.441406 814.941406 648.828125 816.078125 646.671875 L 778.300781 589.96875 " fill-opacity="1" fill-rule="nonzero"/><path fill="#243740" d="M 772 594.625 C 772 594.625 783.390625 582.53125 793.195312 586.082031 L 804.46875 601.585938 L 810.863281 601.871094 C 810.863281 601.871094 815.847656 610.386719 808.886719 614.96875 C 803.628906 618.261719 822.585938 646.28125 814.300781 648.191406 C 807.703125 649.164062 786.492188 627.246094 783.226562 610.042969 C 773.25 604.535156 772 594.625 772 594.625 " fill-opacity="1" fill-rule="nonzero"/><path fill="#e49674" d="M 862.96875 462.027344 L 808.726562 594.835938 L 790.3125 588.9375 C 790.3125 588.9375 809.003906 516.574219 814.691406 492.109375 C 816.9375 483.90625 826.683594 468.480469 826.683594 468.480469 L 862.96875 462.027344 " fill-opacity="1" fill-rule="nonzero"/><path fill="#d3d2d2" d="M 812.144531 502.484375 C 812.984375 499.210938 813.765625 496.058594 814.464844 493.109375 C 813.84375 495.753906 813.089844 498.894531 812.238281 502.378906 L 812.144531 502.484375 M 826.84375 468.453125 C 827.390625 467.582031 827.703125 467.085938 827.703125 467.085938 L 828.765625 468.109375 L 826.84375 468.453125 " fill-opacity="1" fill-rule="nonzero"/><path fill="#bc7b5f" d="M 812.238281 502.378906 C 813.089844 498.894531 813.84375 495.753906 814.464844 493.109375 C 814.539062 492.777344 814.617188 492.441406 814.691406 492.109375 C 816.542969 485.320312 824.25 472.625 826.84375 468.453125 L 828.765625 468.109375 L 836.609375 475.707031 L 812.238281 502.378906 " fill-opacity="1" fill-rule="nonzero"/><path fill="#4ec3ba" d="M 789.25 588.601562 C 786.980469 596.316406 787.246094 598.453125 796.335938 601.363281 C 805.328125 604.238281 806.882812 602.703125 809.519531 595.09375 L 789.25 588.601562 " fill-opacity="1" fill-rule="nonzero"/><path fill="#e49674" d="M 757.089844 426.523438 C 761.269531 414.351562 784.476562 413.140625 807.179688 420.929688 C 829.878906 428.71875 867.730469 448.15625 863.558594 460.347656 C 857.144531 483.355469 804.878906 471.746094 782.1875 463.957031 C 759.484375 456.15625 752.917969 438.714844 757.089844 426.523438 " fill-opacity="1" fill-rule="nonzero"/><path fill="#243740" d="M 792.105469 400.050781 L 741.394531 448.835938 C 764.507812 459.289062 787.820312 473.855469 827.742188 473.882812 C 829.289062 469.808594 843.511719 436.9375 843.511719 436.9375 L 792.105469 400.050781 " fill-opacity="1" fill-rule="nonzero"/><path fill="#243740" d="M 796.382812 416.53125 C 796.085938 438.304688 778.195312 455.707031 756.421875 455.410156 C 734.65625 455.117188 717.234375 437.214844 717.539062 415.449219 C 717.84375 393.675781 735.726562 376.261719 757.5 376.558594 C 779.277344 376.863281 796.6875 394.753906 796.382812 416.53125 " fill-opacity="1" fill-rule="nonzero"/><path fill="#e49674" d="M 776.917969 242.394531 L 753.765625 232.457031 C 747.484375 247.550781 735 259.730469 735 259.730469 L 778.140625 278.46875 C 768.878906 267.109375 776.917969 242.394531 776.917969 242.394531 " fill-opacity="1" fill-rule="nonzero"/><path fill="#347e92" d="M 796.992188 393.886719 C 790.121094 380.070312 794.484375 357.515625 797.660156 330.839844 C 826.109375 330.316406 803.636719 301.542969 801.691406 298.613281 C 798.015625 293.066406 772.238281 268.828125 772.238281 268.828125 L 734.265625 259.195312 C 710.714844 293.488281 738.199219 349.550781 738.199219 349.550781 L 731.265625 383.058594 L 717.710938 402.945312 C 717.710938 402.945312 748.191406 383.785156 765.679688 393.132812 C 773.492188 398.707031 807.046875 414.066406 796.992188 393.886719 " fill-opacity="1" fill-rule="nonzero"/><path fill="#e49674" d="M 755.695312 288.800781 C 755.535156 300.636719 748.964844 310.15625 741.03125 310.050781 C 733.101562 309.933594 726.789062 300.246094 726.941406 288.40625 C 727.113281 276.5625 733.683594 267.054688 741.613281 267.15625 C 749.558594 267.273438 755.859375 276.960938 755.695312 288.800781 " fill-opacity="1" fill-rule="nonzero"/><path fill="#e49674" d="M 752.210938 405.695312 C 747.742188 411.945312 744.230469 415.257812 736.546875 409.4375 C 728.878906 403.621094 717.414062 388.664062 716.507812 383.144531 C 717.597656 381.617188 722.683594 377.007812 726.550781 376.519531 C 736.738281 379.585938 761.242188 379.089844 755.019531 384.082031 C 737.175781 391.996094 761.183594 393.132812 752.210938 405.695312 " fill-opacity="1" fill-rule="nonzero"/><path fill="#e49674" d="M 747.640625 277.992188 C 749.691406 287.101562 748.945312 300.714844 723.085938 306.527344 C 697.214844 312.339844 650.847656 318.222656 648.804688 309.113281 C 646.761719 299.996094 699.878906 275.453125 725.75 269.640625 C 751.621094 263.828125 745.597656 268.875 747.640625 277.992188 " fill-opacity="1" fill-rule="nonzero"/><path fill="#e49674" d="M 729.15625 386.820312 C 725.167969 391.03125 704.078125 376.453125 682.054688 354.257812 C 660.03125 332.0625 645.40625 310.671875 649.40625 306.460938 C 653.398438 302.261719 658.789062 287.195312 685.394531 322.824219 C 707.417969 345.019531 733.148438 382.621094 729.15625 386.820312 " fill-opacity="1" fill-rule="nonzero"/><path fill="#d3d2d2" d="M 773.804688 265.773438 C 773.804688 265.773438 773.796875 265.765625 773.796875 265.765625 C 773.796875 265.746094 773.796875 265.726562 773.796875 265.699219 C 773.796875 265.726562 773.796875 265.746094 773.804688 265.773438 M 774.253906 254.558594 C 774.578125 252.199219 774.988281 250.023438 775.398438 248.1875 C 775.046875 249.878906 774.605469 252.132812 774.253906 254.558594 " fill-opacity="1" fill-rule="nonzero"/><path fill="#bc7b5f" d="M 773.796875 265.765625 C 761.996094 257.601562 758.511719 243.121094 756.449219 233.792969 L 776.066406 245.21875 C 776.066406 245.21875 775.78125 246.375 775.398438 248.1875 C 774.988281 250.023438 774.578125 252.199219 774.253906 254.558594 C 773.691406 258.402344 773.328125 262.671875 773.796875 265.699219 C 773.796875 265.726562 773.796875 265.746094 773.796875 265.765625 " fill-opacity="1" fill-rule="nonzero"/><path fill="#e49674" d="M 813.089844 203.042969 C 813.109375 197.515625 814.015625 193.019531 814.109375 189.078125 C 814.671875 165.519531 786.589844 168.316406 769.863281 168.097656 C 753.148438 167.867188 751.46875 184.800781 750.933594 223.960938 C 750.683594 241.773438 783.925781 254.5 800.648438 254.730469 C 807.253906 250.890625 808.011719 241 809.46875 229.269531 L 816.257812 226.347656 L 813.089844 203.042969 " fill-opacity="1" fill-rule="nonzero"/><path fill="#472b29" d="M 791.65625 148.746094 C 779.742188 145.539062 759.773438 148.945312 750.214844 148.8125 C 730.417969 148.546875 733.949219 192.4375 733.996094 189.03125 C 733.769531 205.507812 742.816406 229.804688 754.121094 235.550781 L 757.195312 235.597656 C 757.195312 235.597656 766.386719 229.574219 762.847656 214.070312 C 748.449219 201.078125 754.742188 189.984375 767.5625 191.503906 L 776.125 224.476562 L 774.367188 186.929688 L 785.644531 174.101562 C 796.957031 176.25 805.832031 177.28125 812.773438 177.480469 C 817.957031 159.484375 791.992188 148.832031 791.65625 148.746094 " fill-opacity="1" fill-rule="nonzero"/><path fill="#c9835a" d="M 654.636719 503.449219 L 701.53125 630.03125 L 685.003906 637.660156 C 685.003906 637.660156 651.9375 575.601562 640.308594 555.007812 C 636.644531 547.90625 627.25 519.058594 627.25 519.058594 L 654.636719 503.449219 " fill-opacity="1" fill-rule="nonzero"/><path fill="#d3d2d2" d="M 645.148438 563.828125 C 643.46875 560.707031 641.847656 557.730469 640.308594 555.007812 C 641.664062 557.40625 643.296875 560.355469 645.148438 563.703125 L 645.148438 563.828125 M 627.535156 518.894531 C 627.238281 517.96875 627.066406 517.433594 627.066406 517.433594 L 628.453125 518.378906 L 627.535156 518.894531 " fill-opacity="1" fill-rule="nonzero"/><path fill="#a66c49" d="M 645.148438 563.703125 C 643.296875 560.355469 641.664062 557.40625 640.308594 555.007812 C 637.128906 548.839844 629.492188 525.050781 627.535156 518.894531 L 628.453125 518.378906 L 645.0625 529.710938 L 645.148438 563.703125 " fill-opacity="1" fill-rule="nonzero"/><path fill="#ffffff" d="M 416.589844 512.296875 C 412.054688 510.53125 405.515625 508.355469 405.515625 508.355469 C 405.515625 508.355469 399.175781 514.816406 400.160156 525.5 C 388.464844 537.109375 382.566406 565.214844 386.804688 569.832031 C 386.804688 569.832031 390.042969 571.886719 392.324219 571.636719 L 416.589844 512.296875 " fill-opacity="1" fill-rule="nonzero"/><path fill="#f03933" d="M 409.640625 509.84375 C 409.640625 509.84375 425.066406 512.347656 427.472656 521.855469 L 421.335938 538.816406 L 424.484375 543.953125 C 424.484375 543.953125 420.476562 552.324219 413.230469 549.320312 C 407.894531 546.960938 396.066406 576.515625 390.195312 571.066406 C 385.957031 566.433594 391.855469 538.332031 403.550781 526.722656 C 402.574219 516.039062 409.640625 509.84375 409.640625 509.84375 " fill-opacity="1" fill-rule="nonzero"/><path fill="#c9835a" d="M 545.054688 561.949219 L 427.578125 542.914062 L 430.394531 524.945312 C 430.394531 524.945312 496.0625 522.398438 519.644531 524.144531 C 527.59375 525.042969 546.164062 531.390625 546.164062 531.390625 L 545.054688 561.949219 " fill-opacity="1" fill-rule="nonzero"/><path fill="#d3d2d2" d="M 546.078125 533.75 L 546.152344 531.628906 C 547.078125 531.953125 547.605469 532.136719 547.605469 532.136719 L 546.078125 533.75 M 519.644531 524.144531 C 517 523.953125 513.828125 523.8125 510.277344 523.707031 L 509.628906 523.277344 C 513.152344 523.621094 516.53125 523.914062 519.644531 524.144531 " fill-opacity="1" fill-rule="nonzero"/><path fill="#a66c49" d="M 538.058594 542.140625 L 510.277344 523.707031 C 513.828125 523.8125 517 523.953125 519.644531 524.144531 C 526.296875 524.890625 541.398438 529.988281 546.152344 531.628906 L 546.078125 533.75 L 538.058594 542.140625 " fill-opacity="1" fill-rule="nonzero"/><path fill="#ffffff" d="M 430.554688 523.914062 C 423.054688 522.914062 421.105469 523.46875 419.710938 532.34375 C 418.335938 541.117188 420.007812 542.351562 427.453125 543.695312 L 430.554688 523.914062 " fill-opacity="1" fill-rule="nonzero"/><path fill="#c9835a" d="M 708.964844 297.933594 C 715.457031 300.914062 719.105469 303.566406 715.34375 311.769531 C 711.589844 319.96875 700.335938 333.398438 695.542969 335.261719 C 693.949219 334.535156 688.832031 330.679688 687.640625 327.183594 C 688.441406 317.160156 683.277344 294.546875 688.964844 299.375 C 699.535156 314.441406 695.925781 291.96875 708.964844 297.933594 " fill-opacity="1" fill-rule="nonzero"/><path fill="#c9835a" d="M 598.113281 322.898438 C 609.160156 319.425781 616.890625 320.425781 625.597656 343.796875 C 634.292969 367.175781 647.90625 408.03125 639.679688 411.097656 C 631.441406 414.160156 601.816406 367.746094 593.113281 344.367188 C 584.40625 320.988281 589.875 325.964844 598.113281 322.898438 " fill-opacity="1" fill-rule="nonzero"/><path fill="#c9835a" d="M 697.339844 323.699219 C 701.894531 326.621094 692.832031 348.902344 677.101562 373.464844 C 661.367188 398.039062 644.917969 415.59375 640.367188 412.671875 C 635.8125 409.75 621.214844 407.566406 648.164062 376.234375 C 663.898438 351.660156 692.792969 320.78125 697.339844 323.699219 " fill-opacity="1" fill-rule="nonzero"/><path fill="#c9835a" d="M 579.449219 475.257812 C 591.554688 479.011719 590.105469 497.996094 583.863281 518.140625 C 577.617188 538.28125 567.050781 568.105469 554.953125 564.355469 C 508.777344 558.960938 551.109375 523.78125 544.511719 497.425781 C 550.753906 477.28125 567.355469 471.507812 579.449219 475.257812 " fill-opacity="1" fill-rule="nonzero"/><path fill="#191e2a" d="M 593.351562 453.082031 L 539.089844 429.683594 C 516.1875 471.355469 543.058594 484.863281 542.800781 510.351562 L 590.964844 514.875 L 593.351562 453.082031 " fill-opacity="1" fill-rule="nonzero"/><path fill="#ffffff" d="M 682.1875 656.046875 C 682.769531 660.867188 683.945312 667.664062 683.945312 667.664062 C 683.945312 667.664062 692.640625 670.183594 701.585938 664.277344 C 717.347656 669.078125 744.890625 660.972656 746.960938 655.054688 C 746.960938 655.054688 747.238281 651.234375 745.941406 649.34375 L 682.1875 656.046875 " fill-opacity="1" fill-rule="nonzero"/><path fill="#f03933" d="M 683.304688 663.332031 C 683.304688 663.332031 678.199219 648.550781 685.453125 641.9375 L 703.296875 639.3125 L 706.332031 634.109375 C 706.332031 634.109375 715.609375 633.679688 716.382812 641.488281 C 716.832031 647.292969 748.46875 643.742188 746.4375 651.484375 C 744.363281 657.410156 716.824219 665.515625 701.0625 660.707031 C 692.117188 666.613281 683.304688 663.332031 683.304688 663.332031 " fill-opacity="1" fill-rule="nonzero"/><path fill="#ffffff" d="M 684.058594 638.097656 C 687.390625 644.886719 688.929688 646.203125 697.089844 642.433594 C 705.148438 638.710938 705.242188 636.648438 702.234375 629.699219 L 684.058594 638.097656 " fill-opacity="1" fill-rule="nonzero"/><path fill="#c9835a" d="M 566.105469 460.730469 C 572.578125 450.476562 594.085938 454.398438 613.1875 466.445312 C 632.289062 478.484375 662.742188 504.480469 656.269531 514.730469 C 645.425781 534.417969 600.082031 512.46875 580.988281 500.421875 C 561.886719 488.375 559.640625 470.980469 566.105469 460.730469 " fill-opacity="1" fill-rule="nonzero"/><path fill="#202636" d="M 603.898438 444.050781 L 546.90625 477.757812 C 565.820312 492.328125 583.996094 510.714844 620.558594 519.382812 C 622.859375 515.972656 642.992188 488.957031 642.992188 488.957031 L 603.898438 444.050781 " fill-opacity="1" fill-rule="nonzero"/><path fill="#202636" d="M 607.019531 455.554688 C 604.441406 475.886719 585.886719 490.285156 565.5625 487.707031 C 545.238281 485.140625 530.832031 466.570312 533.410156 446.246094 C 535.984375 425.921875 554.542969 411.527344 574.867188 414.105469 C 595.191406 416.671875 609.589844 435.230469 607.019531 455.554688 " fill-opacity="1" fill-rule="nonzero"/><path fill="#c9835a" d="M 607.144531 290.691406 L 586.554688 278.964844 C 579.089844 292.417969 566.132812 302.488281 566.132812 302.488281 L 604.492188 324.558594 C 597.027344 312.960938 607.144531 290.691406 607.144531 290.691406 " fill-opacity="1" fill-rule="nonzero"/><path fill="#f03933" d="M 609.96875 434.457031 C 604.996094 420.816406 611.460938 400.1875 617.234375 375.585938 C 643.890625 378.078125 625.902344 348.816406 624.394531 345.867188 C 621.539062 340.300781 599.984375 314.917969 599.984375 314.917969 L 565.492188 301.917969 C 539.871094 331.5 559.660156 386.8125 559.660156 386.8125 L 549.648438 417.40625 L 534.886719 434.570312 C 534.886719 434.570312 565.398438 419.871094 580.769531 430.457031 C 587.488281 436.480469 617.246094 454.378906 609.96875 434.457031 " fill-opacity="1" fill-rule="nonzero"/><path fill="#d3d2d2" d="M 601.78125 312.226562 C 601.78125 312.214844 601.769531 312.214844 601.769531 312.214844 C 601.769531 312.179688 601.769531 312.148438 601.78125 312.113281 C 601.78125 312.148438 601.78125 312.1875 601.78125 312.226562 M 603.308594 302.058594 C 603.910156 299.652344 604.597656 297.457031 605.214844 295.652344 C 604.671875 297.277344 603.957031 299.578125 603.308594 302.058594 " fill-opacity="1" fill-rule="nonzero"/><path fill="#a66c49" d="M 601.769531 312.214844 C 591.601562 303.339844 589.867188 289.429688 588.921875 280.496094 L 606.054688 293.25 C 606.054688 293.25 605.714844 294.175781 605.214844 295.652344 C 604.597656 297.457031 603.910156 299.652344 603.308594 302.058594 C 602.410156 305.515625 601.664062 309.316406 601.78125 312.113281 C 601.769531 312.148438 601.769531 312.179688 601.769531 312.214844 " fill-opacity="1" fill-rule="nonzero"/><path fill="#c9835a" d="M 636.097656 256.199219 C 635.820312 251.003906 636.421875 246.730469 636.289062 243.015625 C 635.515625 220.859375 609.292969 225.039062 593.570312 225.746094 C 577.855469 226.453125 577.21875 242.453125 578.867188 279.261719 C 579.621094 296.007812 611.546875 306.125 627.25 305.417969 C 633.253906 301.449219 633.425781 292.121094 634.140625 281.027344 L 640.367188 277.90625 L 636.097656 256.199219 " fill-opacity="1" fill-rule="nonzero"/><path fill="#c9835a" d="M 582.417969 331.84375 C 581.015625 342.90625 573.886719 351.097656 566.46875 350.171875 C 559.058594 349.226562 554.191406 339.5 555.585938 328.453125 C 556.988281 317.398438 564.121094 309.199219 571.535156 310.136719 C 578.953125 311.070312 583.8125 320.789062 582.417969 331.84375 " fill-opacity="1" fill-rule="nonzero"/><path fill="#c9835a" d="M 485.09375 464.757812 C 477.992188 465.511719 473.496094 465.089844 472.550781 456.117188 C 471.597656 447.144531 474.441406 429.847656 477.609375 425.796875 C 479.347656 425.617188 485.714844 426.324219 488.523438 428.730469 C 492.953125 437.75 508.921875 454.570312 501.550781 453.320312 C 484.789062 445.742188 499.347656 463.25 485.09375 464.757812 " fill-opacity="1" fill-rule="nonzero"/><path fill="#c9835a" d="M 483.652344 437.789062 C 478.25 437.609375 474.6875 413.816406 475.699219 384.652344 C 476.714844 355.5 477.542969 336.980469 482.945312 337.171875 C 488.351562 337.351562 506.394531 326.832031 499.183594 367.527344 C 498.183594 396.683594 489.066406 437.980469 483.652344 437.789062 " fill-opacity="1" fill-rule="nonzero"/><path fill="#38171e" d="M 619.738281 206.445312 C 617.007812 205.878906 538.582031 194.175781 550.011719 250.164062 C 537.476562 264.855469 557.253906 316.199219 523.070312 313.296875 C 526.765625 317.542969 534.820312 317.46875 544.042969 314.222656 C 540.234375 320.609375 534.066406 324.722656 523.355469 324.121094 C 527.738281 328.894531 537 327.414062 546.785156 321.820312 C 542.992188 328.332031 536.796875 332.539062 525.972656 331.9375 C 532.0625 338.566406 547.585938 333.113281 560.835938 321.34375 C 558.324219 328.933594 552.921875 334.574219 541.609375 335.824219 C 568.003906 351.660156 578.839844 288.378906 582.496094 289.972656 L 585.390625 289.847656 C 585.390625 289.847656 593.695312 283.683594 589.503906 269.316406 C 575.277344 257.917969 580.578125 247.148438 592.710938 247.855469 L 598.582031 266.050781 L 598.839844 243.195312 L 607.785156 237.8125 C 627.878906 242.070312 631.621094 236.914062 634.390625 232.199219 C 638.277344 215.007812 620.050781 206.511719 619.738281 206.445312 " fill-opacity="1" fill-rule="nonzero"/><path fill="#c9835a" d="M 576.023438 320.894531 C 576.976562 329.628906 574.859375 342.277344 550.058594 344.988281 C 525.265625 347.699219 481.285156 348.320312 480.332031 339.578125 C 479.375 330.839844 531.644531 313.496094 556.433594 310.785156 C 581.234375 308.074219 575.078125 312.160156 576.023438 320.894531 " fill-opacity="1" fill-rule="nonzero"/></svg>