<svg xmlns="http://www.w3.org/2000/svg" xmlns:xlink="http://www.w3.org/1999/xlink" width="1920" zoomAndPan="magnify" viewBox="0 0 1440 809.999993" height="1080" preserveAspectRatio="xMidYMid meet" version="1.0"><defs><clipPath id="19a4be4500"><path d="M 786 634 L 875.820312 634 L 875.820312 672 L 786 672 Z M 786 634 " clip-rule="nonzero"/></clipPath><clipPath id="1ba326df8a"><path d="M 591.042969 616 L 675 616 L 675 679 L 591.042969 679 Z M 591.042969 616 " clip-rule="nonzero"/></clipPath></defs><path fill="#f9dba7" d="M 664.386719 495.304688 C 666.28125 492.371094 673.359375 396.21875 685.070312 364.289062 L 713.589844 364.289062 L 738.859375 345.941406 C 738.859375 345.941406 761.824219 452.042969 770.84375 491.328125 C 779.558594 529.269531 807.261719 646.410156 808.339844 648.402344 C 809.410156 650.394531 792.523438 653.050781 792.523438 653.050781 C 792.523438 653.050781 747.453125 548.894531 740.507812 509.28125 C 740.1875 507.441406 728.082031 480.992188 714.894531 451.976562 C 707.050781 485.949219 698.855469 502.6875 695.734375 508.140625 C 676.382812 541.9375 621.960938 635.59375 621.398438 637.785156 C 620.835938 639.976562 609.214844 624.84375 609.214844 624.84375 C 609.214844 624.84375 642.601562 529.128906 664.386719 495.304688 Z M 664.386719 495.304688 " fill-opacity="1" fill-rule="nonzero"/><g clip-path="url(#19a4be4500)"><path fill="#d6d6d6" d="M 787.738281 649.054688 C 783.359375 635.855469 792.839844 645.601562 794.449219 646.414062 C 797.0625 647.730469 804.640625 648.210938 806.152344 645.757812 C 807.703125 643.25 798.097656 632.214844 810.890625 634.941406 C 823.578125 637.648438 838.535156 638.207031 844.601562 639.117188 C 848.480469 639.699219 855.375 639.890625 860.921875 640.46875 C 865.234375 640.921875 870.089844 641.71875 871.6875 643.421875 C 872.699219 644.5 875.820312 646.316406 875.820312 646.316406 C 865.6875 660.394531 834.105469 663.144531 833.691406 663.089844 C 830.886719 662.792969 828.632812 662.914062 826.066406 664.304688 C 794.824219 674.878906 786.410156 670.089844 786.410156 670.089844 C 786.050781 668.53125 787.929688 665.066406 787.742188 663.847656 C 786.199219 654.015625 789.5 654.355469 787.738281 649.054688 Z M 787.738281 649.054688 " fill-opacity="1" fill-rule="nonzero"/></g><g clip-path="url(#1ba326df8a)"><path fill="#d6d6d6" d="M 597.128906 632.554688 C 602.515625 624.1875 604.757812 626.628906 606.964844 621.5 C 612.46875 608.722656 613.078125 622.292969 613.738281 623.96875 C 614.816406 626.6875 620.164062 632.074219 622.925781 631.242188 C 625.753906 630.394531 625.90625 615.777344 633.660156 626.292969 C 641.347656 636.734375 652.160156 647.070312 656.089844 651.773438 C 658.605469 654.777344 663.636719 659.492188 667.394531 663.601562 C 670.324219 666.800781 673.417969 670.613281 673.480469 672.945312 C 673.523438 674.425781 674.644531 677.847656 674.644531 677.847656 C 657.710938 681.664062 632.265625 662.773438 631.992188 662.464844 C 630.894531 661.261719 629.832031 660.285156 628.589844 659.546875 L 625.480469 658.3125 C 595.089844 645.503906 591.980469 636.34375 591.980469 636.34375 C 592.75 634.941406 596.460938 633.589844 597.128906 632.554688 Z M 597.128906 632.554688 " fill-opacity="1" fill-rule="nonzero"/></g><path fill="#424270" d="M 745.011719 338.867188 L 679.476562 340.941406 C 679.476562 340.941406 665.929688 365.609375 669.644531 383.398438 C 675.753906 412.683594 664.769531 491.941406 664.769531 491.941406 L 700.457031 499.347656 C 700.457031 499.347656 745.726562 389.097656 745.011719 338.867188 Z M 745.011719 338.867188 " fill-opacity="1" fill-rule="nonzero"/><path fill="#4e4d82" d="M 745.011719 337.972656 L 769.1875 484.066406 L 736.738281 500.242188 C 736.738281 500.242188 697.875 428.550781 681.113281 407.265625 C 674.851562 399.3125 666.207031 392.636719 669.753906 368.414062 C 671.285156 357.945312 679.476562 340.941406 679.476562 340.941406 " fill-opacity="1" fill-rule="nonzero"/><path fill="#f9dba7" d="M 730.578125 127.550781 C 745.328125 127.550781 754.726562 142.046875 754.609375 158.847656 C 754.585938 161.589844 754.976562 168.253906 754.414062 170.789062 C 751.683594 183.054688 744.429688 189.957031 733.773438 191.085938 L 735.703125 217.195312 L 714.714844 217.195312 L 715.652344 184.484375 C 709.144531 178.003906 704.90625 167.921875 703.875 158.878906 C 701.917969 141.6875 715.832031 127.550781 730.578125 127.550781 Z M 730.578125 127.550781 " fill-opacity="1" fill-rule="nonzero"/><path fill="#383838" d="M 685.890625 165.183594 C 682.875 159.164062 656.578125 121.359375 687.851562 108.585938 C 704.214844 101.902344 712.390625 118.867188 715.171875 127.777344 C 740.28125 116.023438 750.871094 137.714844 748.824219 138.53125 C 745.160156 139.988281 739.597656 148.363281 738.527344 151.855469 C 737.457031 155.351562 737.738281 158.648438 735.871094 158.886719 C 733.332031 159.214844 727.800781 155.089844 726.195312 160.273438 C 725.453125 162.671875 725.863281 166.277344 727.417969 168.835938 L 727.414062 168.839844 C 727.414062 168.839844 725.785156 171.445312 721.015625 177.949219 C 717.636719 183.089844 715.617188 185.558594 715.617188 185.558594 C 715.617188 185.558594 713.824219 182.132812 705.558594 173.679688 C 701.539062 169.570312 696.269531 166.003906 696.613281 153.289062 C 696.773438 147.128906 700.40625 137.269531 710.613281 130.179688 C 710.90625 130.007812 711.191406 129.863281 711.480469 129.695312 C 710.347656 128.601562 708.722656 127.554688 706.355469 126.808594 C 694.980469 123.214844 689.65625 145.789062 694.007812 163.605469 C 698.480469 181.917969 676.28125 180.40625 676.28125 180.40625 C 676.28125 180.40625 693.375 180.125 685.890625 165.183594 Z M 685.890625 165.183594 " fill-opacity="1" fill-rule="nonzero"/><path fill="#d1b0c8" d="M 721.375 150.734375 C 720.046875 143.34375 716.519531 123.007812 717.820312 122.691406 C 723.570312 121.304688 723.71875 122.117188 723.71875 122.117188 L 727.753906 149.851562 C 735.449219 150.457031 741.507812 156.875 741.507812 164.71875 C 741.507812 172.964844 734.816406 179.644531 726.5625 179.644531 C 718.308594 179.644531 711.617188 172.960938 711.617188 164.71875 C 711.617188 158.300781 715.679688 152.84375 721.375 150.734375 Z M 721.375 150.734375 " fill-opacity="1" fill-rule="nonzero"/><path fill="#f9dba7" d="M 599.484375 422.980469 C 606.660156 420.679688 609.652344 415.617188 610.988281 403.203125 C 611.304688 400.253906 609.65625 398.8125 608.65625 398.410156 C 606.421875 404.382812 602.753906 407.6875 601.277344 407.007812 C 599.527344 406.199219 609.496094 383.777344 609.539062 383.714844 C 611.671875 379.425781 611.902344 380.402344 613.300781 377.457031 C 616.566406 369.582031 625.660156 382.882812 625.660156 382.882812 L 625.648438 382.882812 C 625.296875 385.460938 623.421875 397.605469 617.691406 411.285156 C 610.179688 429.222656 590.757812 425.78125 599.484375 422.980469 Z M 599.484375 422.980469 " fill-opacity="1" fill-rule="nonzero"/><path fill="#f9dba7" d="M 825.113281 351.476562 L 825.113281 351.484375 C 827.65625 352.066406 839.601562 355.019531 852.730469 361.949219 C 869.945312 371.03125 864.769531 390.035156 862.757812 381.101562 C 861.589844 375.925781 858.992188 370.863281 844.066406 367.890625 C 841.152344 367.308594 839.566406 368.824219 839.078125 369.777344 C 844.832031 372.539062 847.800781 376.480469 846.988281 377.890625 C 846.027344 379.5625 824.554688 367.632812 824.5 367.585938 C 820.414062 365.078125 821.40625 364.9375 818.589844 363.28125 C 811.035156 359.328125 825.113281 351.476562 825.113281 351.476562 Z M 825.113281 351.476562 " fill-opacity="1" fill-rule="nonzero"/><path fill="#d1b0c8" d="M 630.503906 304.460938 C 638.921875 287.855469 650.800781 271.835938 662.199219 258.652344 C 656.929688 252.257812 652.421875 238.445312 652.007812 210.164062 C 651.929688 204.949219 668.132812 200.277344 682.125 200.03125 C 694.480469 199.8125 702.300781 201.359375 708.210938 203.410156 C 708.214844 203.410156 708.222656 203.410156 708.226562 203.410156 C 724.882812 209.058594 731.167969 212.417969 735.007812 216.816406 C 745.121094 228.414062 740.566406 230.789062 744.175781 244.304688 C 754.027344 276.148438 755.265625 298.546875 759.863281 315.246094 C 764.113281 330.664062 769.71875 359.003906 764.015625 367.285156 C 757.957031 376.082031 750.273438 379.945312 737.222656 379.664062 C 724.167969 379.382812 709.371094 370.304688 693.511719 373.847656 C 682.488281 376.3125 665.246094 388.140625 662.355469 377.832031 C 660.535156 371.351562 663.117188 348.992188 666.769531 326.316406 C 666.1875 326.992188 665.609375 327.664062 665.042969 328.34375 C 644.089844 353.542969 628.339844 390.347656 624.324219 390.9375 C 620.648438 391.480469 609.894531 385.195312 609.179688 381.441406 C 608.679688 378.800781 613.1875 338.628906 630.503906 304.460938 Z M 630.503906 304.460938 " fill-opacity="1" fill-rule="nonzero"/><path fill="#b89cb1" d="M 721.558594 208.355469 L 721.511719 207.972656 C 721.511719 207.972656 721.589844 208.148438 721.710938 208.417969 C 721.660156 208.394531 721.609375 208.375 721.558594 208.355469 Z M 721.558594 208.355469 " fill-opacity="1" fill-rule="nonzero"/><path fill="#b89cb1" d="M 833.941406 353.867188 C 828.519531 362 825.667969 370.101562 825.667969 370.101562 C 825.667969 370.101562 795.46875 366.25 765.285156 341.023438 C 763.980469 331.820312 761.789062 322.214844 759.867188 315.242188 C 756.050781 301.390625 754.53125 283.597656 748.507812 259.757812 C 757.179688 274.332031 767.425781 289.707031 778.460938 302.601562 C 808.09375 337.238281 835.320312 351.796875 833.941406 353.867188 Z M 833.941406 353.867188 " fill-opacity="1" fill-rule="nonzero"/><path fill="#b89cb1" d="M 661.878906 366.695312 C 661.902344 366.175781 661.933594 365.644531 661.964844 365.105469 C 661.972656 365 661.980469 364.894531 661.984375 364.789062 C 662.015625 364.265625 662.054688 363.730469 662.089844 363.1875 C 662.101562 363.058594 662.109375 362.929688 662.117188 362.800781 C 662.15625 362.253906 662.203125 361.695312 662.246094 361.128906 C 662.257812 361.011719 662.269531 360.894531 662.277344 360.777344 C 662.328125 360.1875 662.378906 359.589844 662.433594 358.976562 C 662.445312 358.894531 662.453125 358.8125 662.460938 358.730469 C 662.839844 354.613281 663.359375 350.074219 663.984375 345.296875 C 664 345.164062 664.019531 345.03125 664.035156 344.898438 C 664.125 344.230469 664.210938 343.554688 664.304688 342.875 C 664.332031 342.679688 664.359375 342.484375 664.386719 342.285156 C 664.476562 341.632812 664.566406 340.980469 664.65625 340.320312 C 664.691406 340.097656 664.722656 339.871094 664.753906 339.640625 C 664.84375 338.992188 664.9375 338.339844 665.035156 337.679688 C 665.066406 337.460938 665.097656 337.238281 665.128906 337.015625 C 665.226562 336.339844 665.328125 335.660156 665.429688 334.976562 C 665.457031 334.796875 665.484375 334.613281 665.511719 334.429688 C 665.617188 333.714844 665.726562 332.996094 665.835938 332.273438 C 665.855469 332.148438 665.875 332.023438 665.894531 331.902344 C 666.179688 330.035156 666.503906 328.152344 666.804688 326.277344 C 684.125 306.296875 709.386719 288.769531 719.246094 282.285156 C 698.671875 316.949219 708.738281 362.277344 711.957031 374.289062 C 706.003906 373.042969 699.84375 372.433594 693.511719 373.847656 C 687.777344 375.132812 680.355469 378.945312 674.152344 380.859375 C 673.554688 381.046875 672.96875 381.210938 672.394531 381.355469 C 672.386719 381.359375 672.378906 381.359375 672.371094 381.363281 C 671.226562 381.652344 670.136719 381.851562 669.125 381.933594 C 669.109375 381.933594 669.089844 381.9375 669.074219 381.9375 C 667.546875 382.054688 666.195312 381.90625 665.089844 381.367188 C 665.089844 381.367188 665.085938 381.367188 665.085938 381.363281 C 664.347656 381.007812 663.71875 380.476562 663.222656 379.738281 C 662.722656 378.625 662.289062 377.222656 661.953125 375.488281 C 661.949219 375.46875 661.949219 375.445312 661.949219 375.425781 C 661.722656 373.261719 661.714844 370.347656 661.875 366.875 C 661.875 366.8125 661.875 366.753906 661.878906 366.695312 Z M 661.878906 366.695312 " fill-opacity="1" fill-rule="nonzero"/><path fill="#b89cb1" d="M 662.1875 258.640625 C 660.523438 256.480469 659.566406 255.339844 657.976562 251.253906 C 674.710938 236.722656 695.761719 227.59375 695.761719 227.59375 C 695.761719 227.59375 686.316406 234.074219 683.648438 236.316406 C 677.71875 241.296875 668.476562 251.25 662.1875 258.640625 Z M 662.1875 258.640625 " fill-opacity="1" fill-rule="nonzero"/></svg>